NotoAmalgamated-RegularCondensed.ufo
<glyph name="quotedbl" format="2">
  <advance width="379"/>
  <unicode hex="0022"/>
  <note>
quotedbl
</note>
  <outline>
    <contour>
      <point x="152" y="714" type="line"/>
      <point x="58" y="714" type="line"/>
      <point x="75" y="456" type="line"/>
      <point x="136" y="456" type="line"/>
    </contour>
    <contour>
      <point x="322" y="714" type="line"/>
      <point x="228" y="714" type="line"/>
      <point x="245" y="456" type="line"/>
      <point x="306" y="456" type="line"/>
    </contour>
  </outline>
</glyph>
<glyph name="quotesingle" format="2">
  <advance width="208"/>
  <unicode hex="0027"/>
  <note>
quotesingle
</note>
  <outline>
    <contour>
      <point x="152" y="714" type="line"/>
      <point x="58" y="714" type="line"/>
      <point x="75" y="456" type="line"/>
      <point x="136" y="456" type="line"/>
    </contour>
  </outline>
</glyph>
<glyph name="hyphen" format="2">
  <advance width="274"/>
  <unicode hex="002D"/>
  <anchor x="137" y="0" name="bottom"/>
  <anchor x="247" y="0" name="bottomright"/>
  <anchor x="137" y="608" name="top"/>
  <anchor x="247" y="608" name="topright"/>
  <outline>
    <contour>
      <point x="27" y="229" type="line"/>
      <point x="247" y="229" type="line"/>
      <point x="247" y="310" type="line"/>
      <point x="27" y="310" type="line"/>
    </contour>
  </outline>
</glyph>
<glyph name="period" format="2">
  <advance width="226"/>
  <unicode hex="002E"/>
  <outline>
    <contour>
      <point x="59" y="55" type="curve" smooth="yes"/>
      <point x="59" y="13"/>
      <point x="79" y="-9"/>
      <point x="113" y="-9" type="curve" smooth="yes"/>
      <point x="145" y="-9"/>
      <point x="167" y="11"/>
      <point x="167" y="55" type="curve" smooth="yes"/>
      <point x="167" y="100"/>
      <point x="146" y="119"/>
      <point x="113" y="119" type="curve" smooth="yes"/>
      <point x="78" y="119"/>
      <point x="59" y="97"/>
    </contour>
  </outline>
</glyph>
<glyph name="slash" format="2">
  <advance width="371"/>
  <unicode hex="002F"/>
  <outline>
    <contour>
      <point x="358" y="717" type="line"/>
      <point x="282" y="717" type="line"/>
      <point x="19" y="-3" type="line"/>
      <point x="96" y="-3" type="line"/>
    </contour>
  </outline>
</glyph>
<glyph name="bracketleft" format="2">
  <advance width="312"/>
  <unicode hex="005B"/>
  <note>
bracketleft
</note>
  <outline>
    <contour>
      <point x="281" y="-93" type="line"/>
      <point x="149" y="-93" type="line"/>
      <point x="149" y="652" type="line"/>
      <point x="281" y="652" type="line"/>
      <point x="281" y="720" type="line"/>
      <point x="72" y="720" type="line"/>
      <point x="72" y="-161" type="line"/>
      <point x="281" y="-161" type="line"/>
    </contour>
  </outline>
</glyph>
<glyph name="bracketright" format="2">
  <advance width="312"/>
  <unicode hex="005D"/>
  <note>
bracketright
</note>
  <outline>
    <contour>
      <point x="31" y="-161" type="line"/>
      <point x="240" y="-161" type="line"/>
      <point x="240" y="720" type="line"/>
      <point x="31" y="720" type="line"/>
      <point x="31" y="652" type="line"/>
      <point x="163" y="652" type="line"/>
      <point x="163" y="-93" type="line"/>
      <point x="31" y="-93" type="line"/>
    </contour>
  </outline>
</glyph>
<glyph name="multiply" format="2">
  <advance width="430"/>
  <unicode hex="00D7"/>
  <anchor x="214" y="0" name="bottom"/>
  <anchor x="375" y="0" name="bottomright"/>
  <anchor x="214" y="608" name="top"/>
  <anchor x="375" y="608" name="topright"/>
  <outline>
    <contour>
      <point x="351" y="537" type="line"/>
      <point x="214" y="400" type="line"/>
      <point x="78" y="535" type="line"/>
      <point x="32" y="488" type="line"/>
      <point x="167" y="353" type="line"/>
      <point x="32" y="217" type="line"/>
      <point x="78" y="170" type="line"/>
      <point x="214" y="306" type="line"/>
      <point x="350" y="171" type="line"/>
      <point x="396" y="217" type="line"/>
      <point x="262" y="353" type="line"/>
      <point x="399" y="491" type="line"/>
    </contour>
  </outline>
</glyph>
<glyph name="apostrophemod" format="2">
  <advance width="158"/>
  <unicode hex="02BC"/>
  <outline>
    <contour>
      <point x="120" y="540" type="curve"/>
      <point x="113" y="551" type="line"/>
      <point x="41" y="551" type="line"/>
      <point x="35" y="482"/>
      <point x="17" y="385"/>
      <point x="-4" y="305" type="curve"/>
      <point x="50" y="305" type="line"/>
      <point x="80" y="380"/>
      <point x="103" y="457"/>
    </contour>
  </outline>
</glyph>
<glyph name="minusmod" format="2">
  <advance width="274"/>
  <unicode hex="02D7"/>
  <outline>
    <contour>
      <point x="27" y="214" type="line"/>
      <point x="247" y="214" type="line"/>
      <point x="247" y="295" type="line"/>
      <point x="27" y="295" type="line"/>
    </contour>
  </outline>
</glyph>
<glyph name="tildecomb" format="2">
  <unicode hex="0303"/>
  <anchor x="198" y="551" name="_top"/>
  <anchor x="198" y="761" name="top"/>
  <outline>
    <contour>
      <point x="50" y="638" type="curve"/>
      <point x="100" y="638" type="line"/>
      <point x="106" y="675"/>
      <point x="120" y="697"/>
      <point x="138" y="697" type="curve" smooth="yes"/>
      <point x="169" y="697"/>
      <point x="216" y="639"/>
      <point x="264" y="639" type="curve" smooth="yes"/>
      <point x="309" y="639"/>
      <point x="341" y="682"/>
      <point x="346" y="761" type="curve"/>
      <point x="295" y="761" type="line"/>
      <point x="289" y="726"/>
      <point x="280" y="703"/>
      <point x="260" y="703" type="curve" smooth="yes"/>
      <point x="223" y="703"/>
      <point x="182" y="760"/>
      <point x="133" y="760" type="curve" smooth="yes"/>
      <point x="77" y="760"/>
      <point x="56" y="701"/>
    </contour>
  </outline>
</glyph>
<glyph name="doublemacroncomb" format="2">
  <unicode hex="035E"/>
  <outline>
    <contour>
      <point x="398" y="731" type="line"/>
      <point x="-397" y="731" type="line"/>
      <point x="-397" y="660" type="line"/>
      <point x="398" y="660" type="line"/>
    </contour>
  </outline>
</glyph>
<glyph name="koKai-thai" format="2">
  <advance width="452"/>
  <unicode hex="0E01"/>
  <note>
uni0E01
</note>
  <anchor x="218" y="0" name="bottom"/>
  <anchor x="384" y="0" name="bottomright"/>
  <anchor x="214" y="551" name="top"/>
  <anchor x="379" y="551" name="topright"/>
  <outline>
    <contour>
      <point x="217" y="561" type="curve" smooth="yes"/>
      <point x="111" y="561"/>
      <point x="44" y="484"/>
      <point x="44" y="401" type="curve" smooth="yes"/>
      <point x="44" y="370" type="line"/>
      <point x="159" y="309" type="line"/>
      <point x="155" y="328" type="line"/>
      <point x="102" y="328"/>
      <point x="51" y="290"/>
      <point x="51" y="195" type="curve" smooth="yes"/>
      <point x="51" y="0" type="line"/>
      <point x="127" y="0" type="line"/>
      <point x="127" y="195" type="line" smooth="yes"/>
      <point x="127" y="265"/>
      <point x="157" y="294"/>
      <point x="196" y="294" type="curve"/>
      <point x="202" y="350" type="line"/>
      <point x="91" y="416" type="line"/>
      <point x="119" y="378" type="line"/>
      <point x="119" y="441"/>
      <point x="150" y="490"/>
      <point x="216" y="490" type="curve" smooth="yes"/>
      <point x="280" y="490"/>
      <point x="308" y="451"/>
      <point x="308" y="380" type="curve" smooth="yes"/>
      <point x="308" y="0" type="line"/>
      <point x="384" y="0" type="line"/>
      <point x="384" y="389" type="line" smooth="yes"/>
      <point x="384" y="504"/>
      <point x="314" y="561"/>
    </contour>
    <contour>
      <point x="128" y="333" type="line"/>
      <point x="128" y="315" type="line"/>
      <point x="135" y="315" type="line"/>
      <point x="135" y="333" type="line"/>
    </contour>
  </outline>
</glyph>
<glyph name="khoKhai-thai" format="2">
  <advance width="443"/>
  <unicode hex="0E02"/>
  <note>
uni0E02
</note>
  <anchor x="232" y="0" name="bottom"/>
  <anchor x="375" y="0" name="bottomright"/>
  <anchor x="232" y="551" name="top"/>
  <anchor x="380" y="551" name="topright"/>
  <outline>
    <contour>
      <point x="232" y="-10" type="curve" smooth="yes"/>
      <point x="330" y="-10"/>
      <point x="380" y="50"/>
      <point x="380" y="156" type="curve" smooth="yes"/>
      <point x="380" y="551" type="line"/>
      <point x="304" y="551" type="line"/>
      <point x="304" y="163" type="line" smooth="yes"/>
      <point x="304" y="110"/>
      <point x="295" y="61"/>
      <point x="232" y="61" type="curve" smooth="yes"/>
      <point x="169" y="61"/>
      <point x="160" y="110"/>
      <point x="160" y="162" type="curve" smooth="yes"/>
      <point x="160" y="206" type="line" smooth="yes"/>
      <point x="160" y="309"/>
      <point x="228" y="314"/>
      <point x="228" y="447" type="curve" smooth="yes"/>
      <point x="228" y="507"/>
      <point x="196" y="558"/>
      <point x="132" y="558" type="curve" smooth="yes"/>
      <point x="81" y="558"/>
      <point x="46" y="516"/>
      <point x="46" y="457" type="curve" smooth="yes"/>
      <point x="46" y="396"/>
      <point x="80" y="357"/>
      <point x="131" y="357" type="curve" smooth="yes"/>
      <point x="180" y="357"/>
      <point x="206" y="392"/>
      <point x="206" y="457" type="curve"/>
      <point x="158" y="396" type="line"/>
      <point x="158" y="345"/>
      <point x="83" y="319"/>
      <point x="83" y="216" type="curve" smooth="yes"/>
      <point x="83" y="154" type="line" smooth="yes"/>
      <point x="83" y="49"/>
      <point x="134" y="-10"/>
    </contour>
    <contour>
      <point x="131" y="401" type="curve" smooth="yes"/>
      <point x="105" y="401"/>
      <point x="92" y="424"/>
      <point x="92" y="457" type="curve" smooth="yes"/>
      <point x="92" y="491"/>
      <point x="105" y="514"/>
      <point x="131" y="514" type="curve" smooth="yes"/>
      <point x="157" y="514"/>
      <point x="170" y="491"/>
      <point x="170" y="457" type="curve" smooth="yes"/>
      <point x="170" y="423"/>
      <point x="157" y="401"/>
    </contour>
  </outline>
</glyph>
<glyph name="khoKhuat-thai" format="2">
  <advance width="447"/>
  <unicode hex="0E03"/>
  <anchor x="234" y="0" name="bottom"/>
  <anchor x="379" y="0" name="bottomright"/>
  <anchor x="234" y="551" name="top"/>
  <anchor x="384" y="551" name="topright"/>
  <outline>
    <contour>
      <point x="235" y="-10" type="curve" smooth="yes"/>
      <point x="334" y="-10"/>
      <point x="384" y="54"/>
      <point x="384" y="156" type="curve" smooth="yes"/>
      <point x="384" y="551" type="line"/>
      <point x="308" y="551" type="line"/>
      <point x="308" y="163" type="line" smooth="yes"/>
      <point x="308" y="115"/>
      <point x="298" y="61"/>
      <point x="235" y="61" type="curve" smooth="yes"/>
      <point x="178" y="61"/>
      <point x="159" y="103"/>
      <point x="159" y="162" type="curve" smooth="yes"/>
      <point x="159" y="199" type="line" smooth="yes"/>
      <point x="159" y="312"/>
      <point x="252" y="329"/>
      <point x="252" y="456" type="curve" smooth="yes"/>
      <point x="252" y="491"/>
      <point x="249" y="518"/>
      <point x="244" y="551" type="curve"/>
      <point x="197" y="551" type="line"/>
      <point x="197" y="499"/>
      <point x="187" y="451"/>
      <point x="159" y="451" type="curve"/>
      <point x="172" y="425" type="line"/>
      <point x="177" y="437"/>
      <point x="179" y="449"/>
      <point x="179" y="464" type="curve" smooth="yes"/>
      <point x="179" y="513"/>
      <point x="156" y="558"/>
      <point x="104" y="558" type="curve" smooth="yes"/>
      <point x="55" y="558"/>
      <point x="26" y="517"/>
      <point x="26" y="464" type="curve" smooth="yes"/>
      <point x="26" y="407"/>
      <point x="58" y="369"/>
      <point x="107" y="369" type="curve" smooth="yes"/>
      <point x="166" y="369"/>
      <point x="211" y="425"/>
      <point x="211" y="472" type="curve"/>
      <point x="192" y="472" type="line"/>
      <point x="193" y="465"/>
      <point x="194" y="457"/>
      <point x="194" y="449" type="curve" smooth="yes"/>
      <point x="194" y="365"/>
      <point x="83" y="340"/>
      <point x="83" y="202" type="curve" smooth="yes"/>
      <point x="83" y="154" type="line" smooth="yes"/>
      <point x="83" y="53"/>
      <point x="136" y="-10"/>
    </contour>
    <contour>
      <point x="103" y="412" type="curve" smooth="yes"/>
      <point x="80" y="412"/>
      <point x="71" y="438"/>
      <point x="71" y="466" type="curve" smooth="yes"/>
      <point x="71" y="496"/>
      <point x="80" y="516"/>
      <point x="103" y="516" type="curve" smooth="yes"/>
      <point x="126" y="516"/>
      <point x="134" y="496"/>
      <point x="134" y="466" type="curve" smooth="yes"/>
      <point x="134" y="437"/>
      <point x="126" y="412"/>
    </contour>
  </outline>
</glyph>
<glyph name="khoKhwai-thai" format="2">
  <advance width="479"/>
  <unicode hex="0E04"/>
  <note>
uni0E04
</note>
  <anchor x="238" y="0" name="bottom"/>
  <anchor x="411" y="0" name="bottomright"/>
  <anchor x="227" y="551" name="top"/>
  <anchor x="406" y="551" name="topright"/>
  <outline>
    <contour>
      <point x="233" y="561" type="curve" smooth="yes"/>
      <point x="115" y="561"/>
      <point x="43" y="494"/>
      <point x="43" y="350" type="curve" smooth="yes"/>
      <point x="43" y="236"/>
      <point x="65" y="178"/>
      <point x="65" y="81" type="curve" smooth="yes"/>
      <point x="65" y="0" type="line"/>
      <point x="141" y="0" type="line"/>
      <point x="141" y="65" type="line" smooth="yes"/>
      <point x="141" y="147"/>
      <point x="141" y="209"/>
      <point x="173" y="229" type="curve"/>
      <point x="169" y="303" type="line"/>
      <point x="160" y="290"/>
      <point x="156" y="272"/>
      <point x="156" y="259" type="curve" smooth="yes"/>
      <point x="156" y="194"/>
      <point x="195" y="160"/>
      <point x="233" y="160" type="curve" smooth="yes"/>
      <point x="279" y="160"/>
      <point x="311" y="199"/>
      <point x="311" y="259" type="curve" smooth="yes"/>
      <point x="311" y="320"/>
      <point x="279" y="358"/>
      <point x="231" y="358" type="curve" smooth="yes"/>
      <point x="160" y="358"/>
      <point x="102" y="261"/>
      <point x="102" y="147" type="curve"/>
      <point x="130" y="147" type="line"/>
      <point x="130" y="219"/>
      <point x="119" y="251"/>
      <point x="119" y="345" type="curve" smooth="yes"/>
      <point x="119" y="445"/>
      <point x="157" y="490"/>
      <point x="233" y="490" type="curve" smooth="yes"/>
      <point x="293" y="490"/>
      <point x="335" y="455"/>
      <point x="335" y="360" type="curve" smooth="yes"/>
      <point x="335" y="0" type="line"/>
      <point x="411" y="0" type="line"/>
      <point x="411" y="369" type="line" smooth="yes"/>
      <point x="411" y="508"/>
      <point x="326" y="561"/>
    </contour>
    <contour>
      <point x="232" y="314" type="curve" smooth="yes"/>
      <point x="255" y="314"/>
      <point x="265" y="289"/>
      <point x="265" y="259" type="curve" smooth="yes"/>
      <point x="265" y="229"/>
      <point x="255" y="204"/>
      <point x="232" y="204" type="curve" smooth="yes"/>
      <point x="209" y="204"/>
      <point x="199" y="228"/>
      <point x="199" y="259" type="curve" smooth="yes"/>
      <point x="199" y="289"/>
      <point x="209" y="314"/>
    </contour>
    <contour>
      <point x="117" y="263" type="line"/>
      <point x="117" y="255" type="line"/>
      <point x="130" y="255" type="line"/>
      <point x="130" y="263" type="line"/>
    </contour>
  </outline>
</glyph>
<glyph name="khoKhon-thai" format="2">
  <advance width="486"/>
  <unicode hex="0E05"/>
  <anchor x="241" y="0" name="bottom"/>
  <anchor x="418" y="0" name="bottomright"/>
  <anchor x="230" y="551" name="top"/>
  <anchor x="413" y="551" name="topright"/>
  <outline>
    <contour>
      <point x="63" y="0" type="line"/>
      <point x="139" y="0" type="line"/>
      <point x="139" y="65" type="line" smooth="yes"/>
      <point x="139" y="136"/>
      <point x="139" y="206"/>
      <point x="176" y="229" type="curve"/>
      <point x="173" y="303" type="line"/>
      <point x="163" y="291"/>
      <point x="159" y="274"/>
      <point x="159" y="259" type="curve" smooth="yes"/>
      <point x="159" y="194"/>
      <point x="198" y="160"/>
      <point x="236" y="160" type="curve" smooth="yes"/>
      <point x="282" y="160"/>
      <point x="314" y="199"/>
      <point x="314" y="259" type="curve" smooth="yes"/>
      <point x="314" y="320"/>
      <point x="282" y="358"/>
      <point x="234" y="358" type="curve" smooth="yes"/>
      <point x="163" y="358"/>
      <point x="102" y="248"/>
      <point x="102" y="147" type="curve"/>
      <point x="128" y="147" type="line"/>
      <point x="128" y="219"/>
      <point x="117" y="242"/>
      <point x="117" y="327" type="curve" smooth="yes"/>
      <point x="117" y="430"/>
      <point x="135" y="478"/>
      <point x="169" y="485" type="curve"/>
      <point x="233" y="417" type="line"/>
      <point x="238" y="417" type="line"/>
      <point x="303" y="485" type="line"/>
      <point x="332" y="481"/>
      <point x="342" y="449"/>
      <point x="342" y="392" type="curve" smooth="yes"/>
      <point x="342" y="0" type="line"/>
      <point x="418" y="0" type="line"/>
      <point x="418" y="383" type="line" smooth="yes"/>
      <point x="418" y="502"/>
      <point x="378" y="555"/>
      <point x="294" y="558" type="curve"/>
      <point x="236" y="494" type="line"/>
      <point x="177" y="558" type="line"/>
      <point x="85" y="555"/>
      <point x="41" y="466"/>
      <point x="41" y="341" type="curve" smooth="yes"/>
      <point x="41" y="232"/>
      <point x="63" y="178"/>
      <point x="63" y="81" type="curve" smooth="yes"/>
    </contour>
    <contour>
      <point x="235" y="204" type="curve" smooth="yes"/>
      <point x="212" y="204"/>
      <point x="202" y="230"/>
      <point x="202" y="259" type="curve" smooth="yes"/>
      <point x="202" y="287"/>
      <point x="212" y="314"/>
      <point x="235" y="314" type="curve" smooth="yes"/>
      <point x="258" y="314"/>
      <point x="268" y="287"/>
      <point x="268" y="259" type="curve" smooth="yes"/>
      <point x="268" y="231"/>
      <point x="258" y="204"/>
    </contour>
    <contour>
      <point x="115" y="252" type="line"/>
      <point x="115" y="244" type="line"/>
      <point x="128" y="244" type="line"/>
      <point x="128" y="252" type="line"/>
    </contour>
  </outline>
</glyph>
<glyph name="khoRakhang-thai" format="2">
  <advance width="495"/>
  <unicode hex="0E06"/>
  <anchor x="269" y="0" name="bottom"/>
  <anchor x="425" y="0" name="bottomright"/>
  <anchor x="283" y="551" name="top"/>
  <anchor x="425" y="551" name="topright"/>
  <outline>
    <contour>
      <point x="135" y="-7" type="curve" smooth="yes"/>
      <point x="198" y="-7"/>
      <point x="226" y="42"/>
      <point x="226" y="102" type="curve" smooth="yes"/>
      <point x="226" y="121"/>
      <point x="223" y="131"/>
      <point x="223" y="158" type="curve"/>
      <point x="201" y="133" type="line"/>
      <point x="255" y="111"/>
      <point x="311" y="69"/>
      <point x="353" y="0" type="curve"/>
      <point x="425" y="0" type="line"/>
      <point x="425" y="551" type="line"/>
      <point x="349" y="551" type="line"/>
      <point x="349" y="51" type="line"/>
      <point x="374" y="73" type="line"/>
      <point x="328" y="138"/>
      <point x="252" y="188"/>
      <point x="188" y="208" type="curve"/>
      <point x="225" y="180" type="line"/>
      <point x="218" y="201"/>
      <point x="217" y="225"/>
      <point x="217" y="239" type="curve" smooth="yes"/>
      <point x="217" y="322"/>
      <point x="265" y="329"/>
      <point x="265" y="456" type="curve" smooth="yes"/>
      <point x="265" y="491"/>
      <point x="262" y="518"/>
      <point x="257" y="551" type="curve"/>
      <point x="210" y="551" type="line"/>
      <point x="210" y="499"/>
      <point x="200" y="451"/>
      <point x="172" y="451" type="curve"/>
      <point x="185" y="425" type="line"/>
      <point x="190" y="437"/>
      <point x="192" y="449"/>
      <point x="192" y="464" type="curve" smooth="yes"/>
      <point x="192" y="513"/>
      <point x="169" y="558"/>
      <point x="117" y="558" type="curve" smooth="yes"/>
      <point x="68" y="558"/>
      <point x="39" y="517"/>
      <point x="39" y="464" type="curve" smooth="yes"/>
      <point x="39" y="407"/>
      <point x="71" y="369"/>
      <point x="120" y="369" type="curve" smooth="yes"/>
      <point x="179" y="369"/>
      <point x="224" y="425"/>
      <point x="224" y="472" type="curve"/>
      <point x="205" y="472" type="line"/>
      <point x="206" y="465"/>
      <point x="207" y="457"/>
      <point x="207" y="449" type="curve" smooth="yes"/>
      <point x="207" y="365"/>
      <point x="140" y="349"/>
      <point x="140" y="253" type="curve" smooth="yes"/>
      <point x="140" y="230"/>
      <point x="142" y="208"/>
      <point x="147" y="188" type="curve"/>
      <point x="170" y="210" type="line"/>
      <point x="158" y="213"/>
      <point x="146" y="214"/>
      <point x="134" y="214" type="curve" smooth="yes"/>
      <point x="83" y="214"/>
      <point x="45" y="172"/>
      <point x="45" y="105" type="curve" smooth="yes"/>
      <point x="45" y="32"/>
      <point x="83" y="-7"/>
    </contour>
    <contour>
      <point x="129" y="42" type="curve" smooth="yes"/>
      <point x="108" y="42"/>
      <point x="96" y="67"/>
      <point x="96" y="104" type="curve" smooth="yes"/>
      <point x="96" y="137"/>
      <point x="106" y="165"/>
      <point x="132" y="165" type="curve" smooth="yes"/>
      <point x="141" y="165"/>
      <point x="147" y="163"/>
      <point x="154" y="160" type="curve"/>
      <point x="156" y="146"/>
      <point x="158" y="125"/>
      <point x="158" y="105" type="curve" smooth="yes"/>
      <point x="158" y="70"/>
      <point x="152" y="42"/>
    </contour>
    <contour>
      <point x="116" y="412" type="curve" smooth="yes"/>
      <point x="93" y="412"/>
      <point x="84" y="438"/>
      <point x="84" y="466" type="curve" smooth="yes"/>
      <point x="84" y="496"/>
      <point x="93" y="516"/>
      <point x="116" y="516" type="curve" smooth="yes"/>
      <point x="139" y="516"/>
      <point x="147" y="496"/>
      <point x="147" y="466" type="curve" smooth="yes"/>
      <point x="147" y="437"/>
      <point x="139" y="412"/>
    </contour>
  </outline>
</glyph>
<glyph name="ngoNgu-thai" format="2">
  <advance width="392"/>
  <unicode hex="0E07"/>
  <note>
uni0E07
</note>
  <anchor x="159" y="0" name="bottom"/>
  <anchor x="321" y="0" name="bottomright"/>
  <anchor x="184" y="551" name="top"/>
  <anchor x="321" y="551" name="topright"/>
  <outline>
    <contour>
      <point x="324" y="127" type="curve" smooth="yes"/>
      <point x="324" y="448" type="line" smooth="yes"/>
      <point x="324" y="518"/>
      <point x="293" y="558"/>
      <point x="241" y="558" type="curve" smooth="yes"/>
      <point x="190" y="558"/>
      <point x="161" y="520"/>
      <point x="161" y="458" type="curve" smooth="yes"/>
      <point x="161" y="397"/>
      <point x="192" y="360"/>
      <point x="241" y="360" type="curve" smooth="yes"/>
      <point x="293" y="360"/>
      <point x="310" y="407"/>
      <point x="310" y="458" type="curve"/>
      <point x="296" y="458" type="line"/>
      <point x="296" y="417"/>
      <point x="286" y="377"/>
      <point x="248" y="377" type="curve"/>
      <point x="248" y="132" type="line" smooth="yes"/>
      <point x="248" y="79"/>
      <point x="232" y="71"/>
      <point x="202" y="71" type="curve" smooth="yes"/>
      <point x="142" y="71" type="line"/>
      <point x="184" y="46" type="line"/>
      <point x="168" y="173"/>
      <point x="138" y="301"/>
      <point x="91" y="418" type="curve"/>
      <point x="22" y="386" type="line"/>
      <point x="74" y="255"/>
      <point x="101" y="131"/>
      <point x="123" y="0" type="curve"/>
      <point x="215" y="0" type="line" smooth="yes"/>
      <point x="292" y="0"/>
      <point x="324" y="42"/>
    </contour>
    <contour>
      <point x="241" y="404" type="curve" smooth="yes"/>
      <point x="217" y="404"/>
      <point x="207" y="427"/>
      <point x="207" y="459" type="curve" smooth="yes"/>
      <point x="207" y="491"/>
      <point x="217" y="514"/>
      <point x="241" y="514" type="curve" smooth="yes"/>
      <point x="265" y="514"/>
      <point x="276" y="491"/>
      <point x="276" y="459" type="curve" smooth="yes"/>
      <point x="276" y="426"/>
      <point x="265" y="404"/>
    </contour>
  </outline>
</glyph>
<glyph name="choChan-thai" format="2">
  <advance width="419"/>
  <unicode hex="0E08"/>
  <anchor x="192" y="0" name="bottom"/>
  <anchor x="356" y="0" name="bottomright"/>
  <anchor x="192" y="551" name="top"/>
  <anchor x="366" y="551" name="topright"/>
  <outline>
    <contour>
      <point x="135" y="0" type="line"/>
      <point x="221" y="0" type="line" smooth="yes"/>
      <point x="342" y="0"/>
      <point x="376" y="130"/>
      <point x="376" y="282" type="curve" smooth="yes"/>
      <point x="376" y="452"/>
      <point x="326" y="561"/>
      <point x="186" y="561" type="curve" smooth="yes"/>
      <point x="127" y="561"/>
      <point x="80" y="548"/>
      <point x="38" y="528" type="curve"/>
      <point x="56" y="459" type="line"/>
      <point x="92" y="478"/>
      <point x="131" y="490"/>
      <point x="178" y="490" type="curve" smooth="yes"/>
      <point x="270" y="490"/>
      <point x="300" y="421"/>
      <point x="300" y="282" type="curve" smooth="yes"/>
      <point x="300" y="138"/>
      <point x="279" y="71"/>
      <point x="213" y="71" type="curve" smooth="yes"/>
      <point x="200" y="71" type="line"/>
      <point x="211" y="59" type="line"/>
      <point x="211" y="260" type="line" smooth="yes"/>
      <point x="211" y="329"/>
      <point x="180" y="370"/>
      <point x="128" y="370" type="curve" smooth="yes"/>
      <point x="77" y="370"/>
      <point x="48" y="331"/>
      <point x="48" y="270" type="curve" smooth="yes"/>
      <point x="48" y="210"/>
      <point x="79" y="172"/>
      <point x="128" y="172" type="curve" smooth="yes"/>
      <point x="180" y="172"/>
      <point x="197" y="219"/>
      <point x="197" y="270" type="curve"/>
      <point x="183" y="270" type="line"/>
      <point x="183" y="229"/>
      <point x="173" y="189"/>
      <point x="135" y="189" type="curve"/>
    </contour>
    <contour>
      <point x="128" y="216" type="curve" smooth="yes"/>
      <point x="104" y="216"/>
      <point x="94" y="240"/>
      <point x="94" y="271" type="curve" smooth="yes"/>
      <point x="94" y="302"/>
      <point x="104" y="326"/>
      <point x="128" y="326" type="curve" smooth="yes"/>
      <point x="152" y="326"/>
      <point x="163" y="302"/>
      <point x="163" y="271" type="curve" smooth="yes"/>
      <point x="163" y="239"/>
      <point x="152" y="216"/>
    </contour>
  </outline>
</glyph>
<glyph name="choChing-thai" format="2">
  <advance width="459"/>
  <unicode hex="0E09"/>
  <anchor x="258" y="0" name="bottom"/>
  <anchor x="411" y="0" name="bottomright"/>
  <anchor x="226" y="551" name="top"/>
  <anchor x="384" y="551" name="topright"/>
  <outline>
    <contour>
      <point x="196" y="158" type="line"/>
      <point x="196" y="151" type="line"/>
      <point x="212" y="151" type="line"/>
      <point x="212" y="158" type="line"/>
    </contour>
    <contour>
      <point x="202" y="76" type="line"/>
      <point x="202" y="262" type="line" smooth="yes"/>
      <point x="202" y="332"/>
      <point x="171" y="372"/>
      <point x="119" y="372" type="curve" smooth="yes"/>
      <point x="68" y="372"/>
      <point x="39" y="334"/>
      <point x="39" y="272" type="curve" smooth="yes"/>
      <point x="39" y="211"/>
      <point x="70" y="174"/>
      <point x="119" y="174" type="curve" smooth="yes"/>
      <point x="171" y="174"/>
      <point x="188" y="221"/>
      <point x="188" y="272" type="curve"/>
      <point x="174" y="272" type="line"/>
      <point x="174" y="231"/>
      <point x="164" y="191"/>
      <point x="126" y="191" type="curve"/>
      <point x="126" y="0" type="line"/>
      <point x="191" y="0" type="line"/>
      <point x="213" y="87"/>
      <point x="245" y="133"/>
      <point x="302" y="146" type="curve"/>
      <point x="293" y="162" type="line"/>
      <point x="282" y="143"/>
      <point x="275" y="117"/>
      <point x="275" y="91" type="curve" smooth="yes"/>
      <point x="275" y="30"/>
      <point x="306" y="-7"/>
      <point x="354" y="-7" type="curve" smooth="yes"/>
      <point x="401" y="-7"/>
      <point x="432" y="30"/>
      <point x="432" y="91" type="curve" smooth="yes"/>
      <point x="432" y="152"/>
      <point x="404" y="198"/>
      <point x="351" y="198" type="curve"/>
      <point x="362" y="179" type="line"/>
      <point x="382" y="189"/>
      <point x="389" y="218"/>
      <point x="389" y="246" type="curve" smooth="yes"/>
      <point x="389" y="378" type="line" smooth="yes"/>
      <point x="389" y="491"/>
      <point x="347" y="561"/>
      <point x="223" y="561" type="curve" smooth="yes"/>
      <point x="166" y="561"/>
      <point x="106" y="543"/>
      <point x="63" y="514" type="curve"/>
      <point x="81" y="445" type="line"/>
      <point x="119" y="471"/>
      <point x="167" y="490"/>
      <point x="213" y="490" type="curve" smooth="yes"/>
      <point x="304" y="490"/>
      <point x="313" y="434"/>
      <point x="313" y="369" type="curve" smooth="yes"/>
      <point x="313" y="269" type="line" smooth="yes"/>
      <point x="313" y="240"/>
      <point x="313" y="223"/>
      <point x="288" y="214" type="curve" smooth="yes"/>
      <point x="229" y="194"/>
      <point x="196" y="163"/>
      <point x="169" y="94" type="curve"/>
    </contour>
    <contour>
      <point x="119" y="218" type="curve" smooth="yes"/>
      <point x="95" y="218"/>
      <point x="85" y="241"/>
      <point x="85" y="273" type="curve" smooth="yes"/>
      <point x="85" y="305"/>
      <point x="95" y="328"/>
      <point x="119" y="328" type="curve" smooth="yes"/>
      <point x="143" y="328"/>
      <point x="154" y="305"/>
      <point x="154" y="273" type="curve" smooth="yes"/>
      <point x="154" y="240"/>
      <point x="143" y="218"/>
    </contour>
    <contour>
      <point x="354" y="39" type="curve" smooth="yes"/>
      <point x="332" y="39"/>
      <point x="323" y="62"/>
      <point x="323" y="93" type="curve" smooth="yes"/>
      <point x="323" y="110"/>
      <point x="327" y="131"/>
      <point x="335" y="147" type="curve"/>
      <point x="339" y="148"/>
      <point x="344" y="149"/>
      <point x="350" y="149" type="curve" smooth="yes"/>
      <point x="375" y="149"/>
      <point x="384" y="122"/>
      <point x="384" y="92" type="curve" smooth="yes"/>
      <point x="384" y="60"/>
      <point x="377" y="39"/>
    </contour>
  </outline>
</glyph>
<glyph name="choChang-thai" format="2">
  <advance width="452"/>
  <unicode hex="0E0A"/>
  <anchor x="236" y="0" name="bottom"/>
  <anchor x="384" y="0" name="bottomright"/>
  <anchor x="237" y="551" name="top"/>
  <anchor x="394" y="551" name="topright"/>
  <outline>
    <contour>
      <point x="236" y="-10" type="curve" smooth="yes"/>
      <point x="331" y="-10"/>
      <point x="389" y="50"/>
      <point x="389" y="156" type="curve" smooth="yes"/>
      <point x="389" y="275" type="line" smooth="yes"/>
      <point x="389" y="347"/>
      <point x="366" y="396"/>
      <point x="299" y="396" type="curve"/>
      <point x="299" y="382" type="line"/>
      <point x="370" y="382"/>
      <point x="389" y="422"/>
      <point x="389" y="480" type="curve" smooth="yes"/>
      <point x="389" y="551" type="line"/>
      <point x="314" y="551" type="line"/>
      <point x="314" y="487" type="line" smooth="yes"/>
      <point x="314" y="446"/>
      <point x="314" y="418"/>
      <point x="263" y="418" type="curve"/>
      <point x="263" y="353" type="line"/>
      <point x="305" y="353"/>
      <point x="313" y="329"/>
      <point x="313" y="285" type="curve" smooth="yes"/>
      <point x="313" y="163" type="line" smooth="yes"/>
      <point x="313" y="104"/>
      <point x="298" y="61"/>
      <point x="236" y="61" type="curve" smooth="yes"/>
      <point x="170" y="61"/>
      <point x="160" y="110"/>
      <point x="160" y="162" type="curve" smooth="yes"/>
      <point x="160" y="206" type="line" smooth="yes"/>
      <point x="160" y="309"/>
      <point x="228" y="314"/>
      <point x="228" y="447" type="curve" smooth="yes"/>
      <point x="228" y="507"/>
      <point x="196" y="558"/>
      <point x="132" y="558" type="curve" smooth="yes"/>
      <point x="81" y="558"/>
      <point x="46" y="516"/>
      <point x="46" y="457" type="curve" smooth="yes"/>
      <point x="46" y="396"/>
      <point x="80" y="357"/>
      <point x="131" y="357" type="curve" smooth="yes"/>
      <point x="180" y="357"/>
      <point x="206" y="392"/>
      <point x="206" y="457" type="curve"/>
      <point x="158" y="396" type="line"/>
      <point x="158" y="345"/>
      <point x="83" y="319"/>
      <point x="83" y="216" type="curve" smooth="yes"/>
      <point x="83" y="154" type="line" smooth="yes"/>
      <point x="83" y="49"/>
      <point x="141" y="-10"/>
    </contour>
    <contour>
      <point x="131" y="401" type="curve" smooth="yes"/>
      <point x="105" y="401"/>
      <point x="92" y="424"/>
      <point x="92" y="457" type="curve" smooth="yes"/>
      <point x="92" y="491"/>
      <point x="105" y="514"/>
      <point x="131" y="514" type="curve" smooth="yes"/>
      <point x="157" y="514"/>
      <point x="170" y="491"/>
      <point x="170" y="457" type="curve" smooth="yes"/>
      <point x="170" y="423"/>
      <point x="157" y="401"/>
    </contour>
    <contour>
      <point x="335" y="396" type="line"/>
      <point x="335" y="379" type="line"/>
      <point x="342" y="379" type="line"/>
      <point x="342" y="396" type="line"/>
    </contour>
  </outline>
</glyph>
<glyph name="soSo-thai" format="2">
  <advance width="461"/>
  <unicode hex="0E0B"/>
  <note>
uni0E0B
</note>
  <anchor x="241" y="0" name="bottom"/>
  <anchor x="393" y="0" name="bottomright"/>
  <anchor x="241" y="551" name="top"/>
  <anchor x="403" y="551" name="topright"/>
  <outline>
    <contour>
      <point x="243" y="-10" type="curve" smooth="yes"/>
      <point x="338" y="-10"/>
      <point x="398" y="50"/>
      <point x="398" y="156" type="curve" smooth="yes"/>
      <point x="398" y="275" type="line" smooth="yes"/>
      <point x="398" y="347"/>
      <point x="375" y="396"/>
      <point x="308" y="396" type="curve"/>
      <point x="308" y="382" type="line"/>
      <point x="379" y="382"/>
      <point x="398" y="422"/>
      <point x="398" y="480" type="curve" smooth="yes"/>
      <point x="398" y="551" type="line"/>
      <point x="323" y="551" type="line"/>
      <point x="323" y="487" type="line" smooth="yes"/>
      <point x="323" y="446"/>
      <point x="323" y="418"/>
      <point x="276" y="418" type="curve"/>
      <point x="276" y="353" type="line"/>
      <point x="315" y="353"/>
      <point x="322" y="329"/>
      <point x="322" y="287" type="curve" smooth="yes"/>
      <point x="322" y="163" type="line" smooth="yes"/>
      <point x="322" y="104"/>
      <point x="308" y="61"/>
      <point x="243" y="61" type="curve" smooth="yes"/>
      <point x="183" y="61"/>
      <point x="159" y="103"/>
      <point x="159" y="163" type="curve" smooth="yes"/>
      <point x="159" y="199" type="line" smooth="yes"/>
      <point x="159" y="314"/>
      <point x="249" y="329"/>
      <point x="249" y="456" type="curve" smooth="yes"/>
      <point x="249" y="491"/>
      <point x="246" y="518"/>
      <point x="241" y="551" type="curve"/>
      <point x="194" y="551" type="line"/>
      <point x="194" y="499"/>
      <point x="184" y="451"/>
      <point x="156" y="451" type="curve"/>
      <point x="169" y="425" type="line"/>
      <point x="174" y="437"/>
      <point x="176" y="449"/>
      <point x="176" y="464" type="curve" smooth="yes"/>
      <point x="176" y="513"/>
      <point x="153" y="558"/>
      <point x="101" y="558" type="curve" smooth="yes"/>
      <point x="52" y="558"/>
      <point x="23" y="517"/>
      <point x="23" y="464" type="curve" smooth="yes"/>
      <point x="23" y="407"/>
      <point x="55" y="369"/>
      <point x="104" y="369" type="curve" smooth="yes"/>
      <point x="163" y="369"/>
      <point x="208" y="425"/>
      <point x="208" y="472" type="curve"/>
      <point x="189" y="472" type="line"/>
      <point x="190" y="465"/>
      <point x="191" y="457"/>
      <point x="191" y="449" type="curve" smooth="yes"/>
      <point x="191" y="365"/>
      <point x="83" y="340"/>
      <point x="83" y="202" type="curve" smooth="yes"/>
      <point x="83" y="155" type="line" smooth="yes"/>
      <point x="83" y="53"/>
      <point x="144" y="-10"/>
    </contour>
    <contour>
      <point x="100" y="412" type="curve" smooth="yes"/>
      <point x="77" y="412"/>
      <point x="68" y="438"/>
      <point x="68" y="466" type="curve" smooth="yes"/>
      <point x="68" y="496"/>
      <point x="77" y="516"/>
      <point x="100" y="516" type="curve" smooth="yes"/>
      <point x="123" y="516"/>
      <point x="131" y="496"/>
      <point x="131" y="466" type="curve" smooth="yes"/>
      <point x="131" y="437"/>
      <point x="123" y="412"/>
    </contour>
    <contour>
      <point x="344" y="396" type="line"/>
      <point x="344" y="379" type="line"/>
      <point x="351" y="379" type="line"/>
      <point x="351" y="396" type="line"/>
    </contour>
  </outline>
</glyph>
<glyph name="choChoe-thai" format="2">
  <advance width="658"/>
  <unicode hex="0E0C"/>
  <anchor x="328" y="0" name="bottom"/>
  <anchor x="588" y="0" name="bottomright"/>
  <anchor x="316" y="551" name="top"/>
  <anchor x="588" y="551" name="topright"/>
  <outline>
    <contour>
      <point x="134" y="-7" type="curve" smooth="yes"/>
      <point x="185" y="-7"/>
      <point x="214" y="31"/>
      <point x="214" y="93" type="curve" smooth="yes"/>
      <point x="214" y="153"/>
      <point x="183" y="190"/>
      <point x="134" y="190" type="curve" smooth="yes"/>
      <point x="82" y="190"/>
      <point x="65" y="144"/>
      <point x="65" y="93" type="curve"/>
      <point x="79" y="93" type="line"/>
      <point x="79" y="134"/>
      <point x="89" y="173"/>
      <point x="127" y="173" type="curve"/>
      <point x="127" y="209" type="line" smooth="yes"/>
      <point x="127" y="279"/>
      <point x="158" y="308"/>
      <point x="196" y="308" type="curve"/>
      <point x="202" y="364" type="line"/>
      <point x="91" y="430" type="line"/>
      <point x="118" y="390" type="line"/>
      <point x="118" y="457"/>
      <point x="155" y="490"/>
      <point x="220" y="490" type="curve" smooth="yes"/>
      <point x="286" y="490"/>
      <point x="324" y="449"/>
      <point x="324" y="380" type="curve" smooth="yes"/>
      <point x="324" y="261" type="line" smooth="yes"/>
      <point x="324" y="234"/>
      <point x="326" y="211"/>
      <point x="329" y="193" type="curve"/>
      <point x="353" y="205" type="line"/>
      <point x="341" y="211"/>
      <point x="332" y="214"/>
      <point x="319" y="214" type="curve" smooth="yes"/>
      <point x="268" y="214"/>
      <point x="234" y="171"/>
      <point x="234" y="104" type="curve" smooth="yes"/>
      <point x="234" y="35"/>
      <point x="269" y="-7"/>
      <point x="322" y="-7" type="curve" smooth="yes"/>
      <point x="385" y="-7"/>
      <point x="411" y="42"/>
      <point x="411" y="102" type="curve" smooth="yes"/>
      <point x="411" y="117"/>
      <point x="410" y="138"/>
      <point x="402" y="155" type="curve"/>
      <point x="386" y="134" type="line"/>
      <point x="438" y="110"/>
      <point x="475" y="65"/>
      <point x="511" y="0" type="curve"/>
      <point x="588" y="0" type="line"/>
      <point x="588" y="551" type="line"/>
      <point x="512" y="551" type="line"/>
      <point x="512" y="52" type="line"/>
      <point x="535" y="74" type="line"/>
      <point x="492" y="143"/>
      <point x="431" y="189"/>
      <point x="373" y="211" type="curve"/>
      <point x="406" y="179" type="line"/>
      <point x="402" y="199"/>
      <point x="400" y="216"/>
      <point x="400" y="242" type="curve" smooth="yes"/>
      <point x="400" y="389" type="line" smooth="yes"/>
      <point x="400" y="502"/>
      <point x="320" y="561"/>
      <point x="221" y="561" type="curve" smooth="yes"/>
      <point x="116" y="561"/>
      <point x="44" y="495"/>
      <point x="44" y="415" type="curve" smooth="yes"/>
      <point x="44" y="384" type="line"/>
      <point x="159" y="323" type="line"/>
      <point x="148" y="339" type="line"/>
      <point x="102" y="339"/>
      <point x="51" y="304"/>
      <point x="51" y="209" type="curve" smooth="yes"/>
      <point x="51" y="103" type="line" smooth="yes"/>
      <point x="51" y="33"/>
      <point x="82" y="-7"/>
    </contour>
    <contour>
      <point x="134" y="37" type="curve" smooth="yes"/>
      <point x="110" y="37"/>
      <point x="99" y="60"/>
      <point x="99" y="92" type="curve" smooth="yes"/>
      <point x="99" y="124"/>
      <point x="110" y="146"/>
      <point x="134" y="146" type="curve" smooth="yes"/>
      <point x="158" y="146"/>
      <point x="168" y="123"/>
      <point x="168" y="92" type="curve" smooth="yes"/>
      <point x="168" y="60"/>
      <point x="158" y="37"/>
    </contour>
    <contour>
      <point x="316" y="42" type="curve" smooth="yes"/>
      <point x="295" y="42"/>
      <point x="285" y="67"/>
      <point x="285" y="104" type="curve" smooth="yes"/>
      <point x="285" y="137"/>
      <point x="293" y="165"/>
      <point x="319" y="165" type="curve" smooth="yes"/>
      <point x="325" y="165"/>
      <point x="332" y="164"/>
      <point x="338" y="161" type="curve"/>
      <point x="341" y="141"/>
      <point x="343" y="126"/>
      <point x="343" y="105" type="curve" smooth="yes"/>
      <point x="343" y="70"/>
      <point x="339" y="42"/>
    </contour>
    <contour>
      <point x="130" y="348" type="line"/>
      <point x="130" y="330" type="line"/>
      <point x="137" y="330" type="line"/>
      <point x="137" y="348" type="line"/>
    </contour>
  </outline>
</glyph>
<glyph name="yoYing-thai" format="2">
  <advance width="661"/>
  <unicode hex="0E0D"/>
  <anchor x="331" y="-245" name="bottom"/>
  <anchor x="593" y="-245" name="bottomright"/>
  <outline>
    <contour>
      <point x="444" y="-245" type="curve" smooth="yes"/>
      <point x="529" y="-245"/>
      <point x="587" y="-200"/>
      <point x="618" y="-117" type="curve"/>
      <point x="560" y="-81" type="line"/>
      <point x="531" y="-151"/>
      <point x="497" y="-184"/>
      <point x="449" y="-184" type="curve" smooth="yes"/>
      <point x="437" y="-184"/>
      <point x="431" y="-182"/>
      <point x="422" y="-178" type="curve"/>
      <point x="430" y="-207" type="line"/>
      <point x="451" y="-185"/>
      <point x="459" y="-161"/>
      <point x="459" y="-134" type="curve" smooth="yes"/>
      <point x="459" y="-84"/>
      <point x="433" y="-49"/>
      <point x="386" y="-49" type="curve" smooth="yes"/>
      <point x="341" y="-49"/>
      <point x="313" y="-88"/>
      <point x="313" y="-136" type="curve" smooth="yes"/>
      <point x="313" y="-209"/>
      <point x="367" y="-245"/>
    </contour>
    <contour>
      <point x="386" y="-178" type="curve" smooth="yes"/>
      <point x="369" y="-178"/>
      <point x="359" y="-162"/>
      <point x="359" y="-136" type="curve" smooth="yes"/>
      <point x="359" y="-111"/>
      <point x="369" y="-94"/>
      <point x="386" y="-94" type="curve" smooth="yes"/>
      <point x="404" y="-94"/>
      <point x="413" y="-111"/>
      <point x="413" y="-136" type="curve" smooth="yes"/>
      <point x="413" y="-162"/>
      <point x="404" y="-178"/>
    </contour>
    <component base="yoYing-thai.less"/>
  </outline>
</glyph>
<glyph name="doChada-thai" format="2">
  <advance width="487"/>
  <unicode hex="0E0E"/>
  <anchor x="222" y="-277" name="bottom"/>
  <anchor x="419" y="-270" name="bottomright"/>
  <anchor x="252" y="551" name="top"/>
  <anchor x="414" y="551" name="topright"/>
  <outline>
    <contour>
      <point x="188" y="-277" type="curve" smooth="yes"/>
      <point x="254" y="-277"/>
      <point x="277" y="-216"/>
      <point x="277" y="-153" type="curve" smooth="yes"/>
      <point x="277" y="-141"/>
      <point x="276" y="-129"/>
      <point x="273" y="-115" type="curve"/>
      <point x="242" y="-164" type="line"/>
      <point x="276" y="-176"/>
      <point x="322" y="-223"/>
      <point x="347" y="-270" type="curve"/>
      <point x="419" y="-270" type="line"/>
      <point x="419" y="389" type="line" smooth="yes"/>
      <point x="419" y="508"/>
      <point x="337" y="561"/>
      <point x="251" y="561" type="curve" smooth="yes"/>
      <point x="150" y="561"/>
      <point x="85" y="495"/>
      <point x="85" y="415" type="curve" smooth="yes"/>
      <point x="85" y="384" type="line"/>
      <point x="200" y="323" type="line"/>
      <point x="198" y="342" type="line"/>
      <point x="132" y="339"/>
      <point x="112" y="298"/>
      <point x="112" y="239" type="curve" smooth="yes"/>
      <point x="112" y="173" type="line"/>
      <point x="150" y="173"/>
      <point x="160" y="134"/>
      <point x="160" y="93" type="curve"/>
      <point x="174" y="93" type="line"/>
      <point x="174" y="144"/>
      <point x="157" y="190"/>
      <point x="105" y="190" type="curve" smooth="yes"/>
      <point x="56" y="190"/>
      <point x="25" y="153"/>
      <point x="25" y="93" type="curve" smooth="yes"/>
      <point x="25" y="31"/>
      <point x="54" y="-7"/>
      <point x="105" y="-7" type="curve" smooth="yes"/>
      <point x="157" y="-7"/>
      <point x="188" y="33"/>
      <point x="188" y="103" type="curve" smooth="yes"/>
      <point x="188" y="239" type="line" smooth="yes"/>
      <point x="188" y="272"/>
      <point x="199" y="308"/>
      <point x="237" y="308" type="curve"/>
      <point x="243" y="364" type="line"/>
      <point x="132" y="430" type="line"/>
      <point x="159" y="389" type="line"/>
      <point x="159" y="456"/>
      <point x="190" y="490"/>
      <point x="250" y="490" type="curve" smooth="yes"/>
      <point x="303" y="490"/>
      <point x="343" y="455"/>
      <point x="343" y="380" type="curve" smooth="yes"/>
      <point x="343" y="-184" type="line"/>
      <point x="354" y="-177" type="line"/>
      <point x="310" y="-122"/>
      <point x="249" y="-77"/>
      <point x="195" y="-77" type="curve" smooth="yes"/>
      <point x="137" y="-77"/>
      <point x="102" y="-110"/>
      <point x="102" y="-175" type="curve" smooth="yes"/>
      <point x="102" y="-235"/>
      <point x="139" y="-277"/>
    </contour>
    <contour>
      <point x="188" y="-228" type="curve" smooth="yes"/>
      <point x="165" y="-228"/>
      <point x="152" y="-204"/>
      <point x="152" y="-176" type="curve" smooth="yes"/>
      <point x="152" y="-148"/>
      <point x="163" y="-125"/>
      <point x="192" y="-125" type="curve" smooth="yes"/>
      <point x="204" y="-125"/>
      <point x="215" y="-128"/>
      <point x="227" y="-136" type="curve"/>
      <point x="231" y="-185"/>
      <point x="223" y="-228"/>
    </contour>
    <contour>
      <point x="105" y="37" type="curve" smooth="yes"/>
      <point x="81" y="37"/>
      <point x="71" y="60"/>
      <point x="71" y="92" type="curve" smooth="yes"/>
      <point x="71" y="123"/>
      <point x="81" y="146"/>
      <point x="105" y="146" type="curve" smooth="yes"/>
      <point x="129" y="146"/>
      <point x="140" y="124"/>
      <point x="140" y="92" type="curve" smooth="yes"/>
      <point x="140" y="60"/>
      <point x="129" y="37"/>
    </contour>
    <contour>
      <point x="169" y="347" type="line"/>
      <point x="169" y="329" type="line"/>
      <point x="176" y="329" type="line"/>
      <point x="176" y="347" type="line"/>
    </contour>
  </outline>
</glyph>
<glyph name="toPatak-thai" format="2">
  <advance width="494"/>
  <unicode hex="0E0F"/>
  <anchor x="226" y="-277" name="bottom"/>
  <anchor x="423" y="-277" name="bottomright"/>
  <anchor x="256" y="551" name="top"/>
  <anchor x="421" y="551" name="topright"/>
  <outline>
    <contour>
      <point x="138" y="-277" type="curve" smooth="yes"/>
      <point x="181" y="-277"/>
      <point x="206" y="-245"/>
      <point x="217" y="-200" type="curve"/>
      <point x="193" y="-200" type="line"/>
      <point x="234" y="-270" type="line"/>
      <point x="257" y="-270" type="line"/>
      <point x="286" y="-178" type="line"/>
      <point x="270" y="-178" type="line"/>
      <point x="276" y="-233"/>
      <point x="303" y="-277"/>
      <point x="349" y="-277" type="curve" smooth="yes"/>
      <point x="402" y="-277"/>
      <point x="426" y="-230"/>
      <point x="426" y="-156" type="curve" smooth="yes"/>
      <point x="426" y="389" type="line" smooth="yes"/>
      <point x="426" y="508"/>
      <point x="343" y="561"/>
      <point x="255" y="561" type="curve" smooth="yes"/>
      <point x="152" y="561"/>
      <point x="85" y="495"/>
      <point x="85" y="415" type="curve" smooth="yes"/>
      <point x="85" y="384" type="line"/>
      <point x="200" y="323" type="line"/>
      <point x="198" y="342" type="line"/>
      <point x="132" y="339"/>
      <point x="112" y="298"/>
      <point x="112" y="239" type="curve" smooth="yes"/>
      <point x="112" y="173" type="line"/>
      <point x="150" y="173"/>
      <point x="160" y="134"/>
      <point x="160" y="93" type="curve"/>
      <point x="174" y="93" type="line"/>
      <point x="174" y="144"/>
      <point x="157" y="190"/>
      <point x="105" y="190" type="curve" smooth="yes"/>
      <point x="56" y="190"/>
      <point x="25" y="153"/>
      <point x="25" y="93" type="curve" smooth="yes"/>
      <point x="25" y="31"/>
      <point x="54" y="-7"/>
      <point x="105" y="-7" type="curve" smooth="yes"/>
      <point x="157" y="-7"/>
      <point x="188" y="33"/>
      <point x="188" y="103" type="curve" smooth="yes"/>
      <point x="188" y="239" type="line" smooth="yes"/>
      <point x="188" y="272"/>
      <point x="199" y="308"/>
      <point x="237" y="308" type="curve"/>
      <point x="243" y="364" type="line"/>
      <point x="132" y="430" type="line"/>
      <point x="159" y="389" type="line"/>
      <point x="159" y="456"/>
      <point x="192" y="490"/>
      <point x="254" y="490" type="curve" smooth="yes"/>
      <point x="309" y="490"/>
      <point x="350" y="455"/>
      <point x="350" y="380" type="curve" smooth="yes"/>
      <point x="350" y="-166" type="line" smooth="yes"/>
      <point x="350" y="-187"/>
      <point x="349" y="-206"/>
      <point x="333" y="-206" type="curve" smooth="yes"/>
      <point x="315" y="-206"/>
      <point x="298" y="-160"/>
      <point x="300" y="-86" type="curve"/>
      <point x="258" y="-86" type="line"/>
      <point x="228" y="-208" type="line"/>
      <point x="256" y="-208" type="line"/>
      <point x="233" y="-157" type="line" smooth="yes"/>
      <point x="213" y="-113"/>
      <point x="183" y="-82"/>
      <point x="139" y="-82" type="curve" smooth="yes"/>
      <point x="94" y="-82"/>
      <point x="58" y="-116"/>
      <point x="58" y="-178" type="curve" smooth="yes"/>
      <point x="58" y="-239"/>
      <point x="96" y="-277"/>
    </contour>
    <contour>
      <point x="141" y="-229" type="curve" smooth="yes"/>
      <point x="120" y="-229"/>
      <point x="109" y="-206"/>
      <point x="109" y="-178" type="curve" smooth="yes"/>
      <point x="109" y="-154"/>
      <point x="119" y="-130"/>
      <point x="142" y="-130" type="curve" smooth="yes"/>
      <point x="155" y="-130"/>
      <point x="170" y="-140"/>
      <point x="182" y="-164" type="curve"/>
      <point x="179" y="-196"/>
      <point x="168" y="-229"/>
    </contour>
    <contour>
      <point x="105" y="37" type="curve" smooth="yes"/>
      <point x="81" y="37"/>
      <point x="71" y="60"/>
      <point x="71" y="92" type="curve" smooth="yes"/>
      <point x="71" y="123"/>
      <point x="81" y="146"/>
      <point x="105" y="146" type="curve" smooth="yes"/>
      <point x="129" y="146"/>
      <point x="140" y="124"/>
      <point x="140" y="92" type="curve" smooth="yes"/>
      <point x="140" y="60"/>
      <point x="129" y="37"/>
    </contour>
    <contour>
      <point x="169" y="347" type="line"/>
      <point x="169" y="329" type="line"/>
      <point x="176" y="329" type="line"/>
      <point x="176" y="347" type="line"/>
    </contour>
  </outline>
</glyph>
<glyph name="thoThan-thai" format="2">
  <advance width="448"/>
  <unicode hex="0E10"/>
  <anchor x="211" y="-277" name="bottom"/>
  <anchor x="410" y="-277" name="bottomright"/>
  <outline>
    <contour>
      <point x="95" y="-277" type="curve" smooth="yes"/>
      <point x="138" y="-277"/>
      <point x="161" y="-241"/>
      <point x="172" y="-198" type="curve"/>
      <point x="155" y="-198" type="line"/>
      <point x="187" y="-270" type="line"/>
      <point x="205" y="-270" type="line"/>
      <point x="236" y="-168" type="line"/>
      <point x="215" y="-168" type="line"/>
      <point x="220" y="-225"/>
      <point x="260" y="-277"/>
      <point x="319" y="-277" type="curve" smooth="yes"/>
      <point x="375" y="-277"/>
      <point x="413" y="-230"/>
      <point x="413" y="-153" type="curve" smooth="yes"/>
      <point x="413" y="-135" type="line" smooth="yes"/>
      <point x="413" y="-76"/>
      <point x="389" y="-33"/>
      <point x="342" y="-33" type="curve" smooth="yes"/>
      <point x="299" y="-33"/>
      <point x="274" y="-71"/>
      <point x="274" y="-119" type="curve" smooth="yes"/>
      <point x="274" y="-171"/>
      <point x="304" y="-203"/>
      <point x="342" y="-203" type="curve" smooth="yes"/>
      <point x="381" y="-203"/>
      <point x="396" y="-166"/>
      <point x="396" y="-119" type="curve"/>
      <point x="378" y="-119" type="line"/>
      <point x="378" y="-150"/>
      <point x="370" y="-181"/>
      <point x="342" y="-181" type="curve"/>
      <point x="342" y="-185" type="line" smooth="yes"/>
      <point x="342" y="-198"/>
      <point x="331" y="-214"/>
      <point x="313" y="-214" type="curve" smooth="yes"/>
      <point x="276" y="-214"/>
      <point x="251" y="-175"/>
      <point x="255" y="-86" type="curve"/>
      <point x="213" y="-86" type="line"/>
      <point x="183" y="-207" type="line"/>
      <point x="207" y="-207" type="line"/>
      <point x="186" y="-157" type="line" smooth="yes"/>
      <point x="168" y="-114"/>
      <point x="141" y="-80"/>
      <point x="96" y="-80" type="curve" smooth="yes"/>
      <point x="51" y="-80"/>
      <point x="17" y="-114"/>
      <point x="17" y="-176" type="curve" smooth="yes"/>
      <point x="17" y="-237"/>
      <point x="53" y="-277"/>
    </contour>
    <contour>
      <point x="342" y="-162" type="curve" smooth="yes"/>
      <point x="324" y="-162"/>
      <point x="315" y="-143"/>
      <point x="315" y="-119" type="curve" smooth="yes"/>
      <point x="315" y="-94"/>
      <point x="324" y="-74"/>
      <point x="342" y="-74" type="curve" smooth="yes"/>
      <point x="361" y="-74"/>
      <point x="369" y="-94"/>
      <point x="369" y="-119" type="curve" smooth="yes"/>
      <point x="369" y="-144"/>
      <point x="361" y="-162"/>
    </contour>
    <contour>
      <point x="98" y="-229" type="curve" smooth="yes"/>
      <point x="77" y="-229"/>
      <point x="68" y="-204"/>
      <point x="68" y="-176" type="curve" smooth="yes"/>
      <point x="68" y="-152"/>
      <point x="76" y="-128"/>
      <point x="99" y="-128" type="curve" smooth="yes"/>
      <point x="112" y="-128"/>
      <point x="126" y="-138"/>
      <point x="137" y="-159" type="curve"/>
      <point x="136" y="-191"/>
      <point x="126" y="-229"/>
    </contour>
    <component base="thoThan-thai.less"/>
  </outline>
</glyph>
<glyph name="thoNangmontho-thai" format="2">
  <advance width="482"/>
  <unicode hex="0E11"/>
  <anchor x="257" y="0" name="bottom"/>
  <anchor x="421" y="0" name="bottomright"/>
  <anchor x="252" y="551" name="top"/>
  <anchor x="416" y="551" name="topright"/>
  <outline>
    <contour>
      <point x="92" y="0" type="line"/>
      <point x="168" y="0" type="line"/>
      <point x="168" y="182" type="line" smooth="yes"/>
      <point x="168" y="339"/>
      <point x="232" y="491"/>
      <point x="299" y="491" type="curve" smooth="yes"/>
      <point x="329" y="491"/>
      <point x="345" y="471"/>
      <point x="345" y="426" type="curve" smooth="yes"/>
      <point x="345" y="0" type="line"/>
      <point x="421" y="0" type="line"/>
      <point x="421" y="434" type="line" smooth="yes"/>
      <point x="421" y="517"/>
      <point x="385" y="561"/>
      <point x="322" y="561" type="curve" smooth="yes"/>
      <point x="273" y="561"/>
      <point x="226" y="517"/>
      <point x="201" y="447" type="curve"/>
      <point x="222" y="433" type="line"/>
      <point x="224" y="445"/>
      <point x="225" y="457"/>
      <point x="225" y="470" type="curve"/>
      <point x="225" y="505"/>
      <point x="223" y="518"/>
      <point x="218" y="551" type="curve"/>
      <point x="171" y="551" type="line"/>
      <point x="172" y="499"/>
      <point x="168" y="443"/>
      <point x="136" y="443" type="curve"/>
      <point x="148" y="416" type="line"/>
      <point x="156" y="429"/>
      <point x="159" y="445"/>
      <point x="159" y="464" type="curve" smooth="yes"/>
      <point x="159" y="513"/>
      <point x="138" y="558"/>
      <point x="86" y="558" type="curve" smooth="yes"/>
      <point x="37" y="558"/>
      <point x="10" y="517"/>
      <point x="10" y="464" type="curve" smooth="yes"/>
      <point x="10" y="407"/>
      <point x="40" y="369"/>
      <point x="89" y="369" type="curve" smooth="yes"/>
      <point x="141" y="369"/>
      <point x="186" y="409"/>
      <point x="186" y="472" type="curve"/>
      <point x="171" y="472" type="line"/>
      <point x="171" y="405"/>
      <point x="92" y="348"/>
      <point x="92" y="202" type="curve" smooth="yes"/>
    </contour>
    <contour>
      <point x="85" y="412" type="curve" smooth="yes"/>
      <point x="64" y="412"/>
      <point x="55" y="438"/>
      <point x="55" y="466" type="curve" smooth="yes"/>
      <point x="55" y="496"/>
      <point x="64" y="516"/>
      <point x="85" y="516" type="curve" smooth="yes"/>
      <point x="106" y="516"/>
      <point x="114" y="496"/>
      <point x="114" y="466" type="curve" smooth="yes"/>
      <point x="114" y="437"/>
      <point x="106" y="412"/>
    </contour>
    <contour>
      <point x="219" y="500" type="line"/>
      <point x="219" y="495" type="line"/>
      <point x="231" y="491" type="line"/>
      <point x="231" y="496" type="line"/>
    </contour>
  </outline>
</glyph>
<glyph name="thoPhuthao-thai" format="2">
  <advance width="690"/>
  <unicode hex="0E12"/>
  <anchor x="334" y="0" name="bottom"/>
  <anchor x="620" y="0" name="bottomright"/>
  <anchor x="334" y="551" name="top"/>
  <anchor x="620" y="551" name="topright"/>
  <outline>
    <contour>
      <point x="368" y="-7" type="curve" smooth="yes"/>
      <point x="431" y="-7"/>
      <point x="457" y="42"/>
      <point x="457" y="102" type="curve" smooth="yes"/>
      <point x="457" y="118"/>
      <point x="454" y="138"/>
      <point x="446" y="156" type="curve"/>
      <point x="432" y="132" type="line"/>
      <point x="477" y="108"/>
      <point x="511" y="67"/>
      <point x="546" y="0" type="curve"/>
      <point x="620" y="0" type="line"/>
      <point x="620" y="551" type="line"/>
      <point x="544" y="551" type="line"/>
      <point x="544" y="52" type="line"/>
      <point x="567" y="74" type="line"/>
      <point x="531" y="139"/>
      <point x="473" y="188"/>
      <point x="419" y="209" type="curve"/>
      <point x="452" y="179" type="line"/>
      <point x="448" y="199"/>
      <point x="446" y="217"/>
      <point x="446" y="243" type="curve" smooth="yes"/>
      <point x="446" y="383" type="line" smooth="yes"/>
      <point x="446" y="503"/>
      <point x="390" y="555"/>
      <point x="310" y="558" type="curve"/>
      <point x="249" y="494" type="line"/>
      <point x="187" y="556" type="line"/>
      <point x="96" y="553"/>
      <point x="48" y="469"/>
      <point x="48" y="344" type="curve" smooth="yes"/>
      <point x="48" y="209"/>
      <point x="70" y="166"/>
      <point x="70" y="79" type="curve" smooth="yes"/>
      <point x="70" y="0" type="line"/>
      <point x="144" y="0" type="line"/>
      <point x="257" y="150" type="line" smooth="yes"/>
      <point x="285" y="187"/>
      <point x="308" y="218"/>
      <point x="308" y="264" type="curve" smooth="yes"/>
      <point x="308" y="324"/>
      <point x="278" y="367"/>
      <point x="231" y="367" type="curve" smooth="yes"/>
      <point x="186" y="367"/>
      <point x="154" y="328"/>
      <point x="154" y="267" type="curve" smooth="yes"/>
      <point x="154" y="207"/>
      <point x="187" y="169"/>
      <point x="233" y="169" type="curve" smooth="yes"/>
      <point x="274" y="169"/>
      <point x="296" y="213"/>
      <point x="296" y="268" type="curve"/>
      <point x="282" y="268" type="line"/>
      <point x="282" y="221"/>
      <point x="262" y="186"/>
      <point x="206" y="186" type="curve"/>
      <point x="100" y="44" type="line"/>
      <point x="129" y="28" type="line"/>
      <point x="129" y="98" type="line" smooth="yes"/>
      <point x="129" y="181"/>
      <point x="113" y="218"/>
      <point x="113" y="330" type="curve" smooth="yes"/>
      <point x="113" y="433"/>
      <point x="142" y="479"/>
      <point x="177" y="483" type="curve"/>
      <point x="247" y="415" type="line"/>
      <point x="251" y="415" type="line"/>
      <point x="321" y="484" type="line"/>
      <point x="349" y="480"/>
      <point x="370" y="453"/>
      <point x="370" y="392" type="curve" smooth="yes"/>
      <point x="370" y="262" type="line" smooth="yes"/>
      <point x="370" y="235"/>
      <point x="372" y="211"/>
      <point x="375" y="193" type="curve"/>
      <point x="399" y="205" type="line"/>
      <point x="387" y="211"/>
      <point x="378" y="214"/>
      <point x="365" y="214" type="curve" smooth="yes"/>
      <point x="315" y="214"/>
      <point x="282" y="171"/>
      <point x="282" y="104" type="curve" smooth="yes"/>
      <point x="282" y="35"/>
      <point x="316" y="-7"/>
    </contour>
    <contour>
      <point x="362" y="42" type="curve" smooth="yes"/>
      <point x="343" y="42"/>
      <point x="333" y="67"/>
      <point x="333" y="104" type="curve" smooth="yes"/>
      <point x="333" y="137"/>
      <point x="340" y="165"/>
      <point x="365" y="165" type="curve" smooth="yes"/>
      <point x="371" y="165"/>
      <point x="378" y="164"/>
      <point x="384" y="161" type="curve"/>
      <point x="387" y="141"/>
      <point x="389" y="126"/>
      <point x="389" y="105" type="curve" smooth="yes"/>
      <point x="389" y="70"/>
      <point x="385" y="42"/>
    </contour>
    <contour>
      <point x="230" y="213" type="curve" smooth="yes"/>
      <point x="209" y="213"/>
      <point x="200" y="238"/>
      <point x="200" y="268" type="curve" smooth="yes"/>
      <point x="200" y="298"/>
      <point x="209" y="323"/>
      <point x="230" y="323" type="curve" smooth="yes"/>
      <point x="251" y="323"/>
      <point x="262" y="298"/>
      <point x="262" y="268" type="curve" smooth="yes"/>
      <point x="262" y="237"/>
      <point x="251" y="213"/>
    </contour>
  </outline>
</glyph>
<glyph name="noNen-thai" format="2">
  <advance width="653"/>
  <unicode hex="0E13"/>
  <anchor x="344" y="0" name="bottom"/>
  <anchor x="611" y="0" name="bottomright"/>
  <anchor x="316" y="551" name="top"/>
  <anchor x="588" y="551" name="topright"/>
  <outline>
    <contour>
      <point x="134" y="-7" type="curve" smooth="yes"/>
      <point x="185" y="-7"/>
      <point x="214" y="31"/>
      <point x="214" y="93" type="curve" smooth="yes"/>
      <point x="214" y="153"/>
      <point x="183" y="190"/>
      <point x="134" y="190" type="curve" smooth="yes"/>
      <point x="82" y="190"/>
      <point x="65" y="144"/>
      <point x="65" y="93" type="curve"/>
      <point x="79" y="93" type="line"/>
      <point x="79" y="134"/>
      <point x="89" y="173"/>
      <point x="127" y="173" type="curve"/>
      <point x="127" y="209" type="line" smooth="yes"/>
      <point x="127" y="279"/>
      <point x="158" y="308"/>
      <point x="196" y="308" type="curve"/>
      <point x="202" y="364" type="line"/>
      <point x="91" y="430" type="line"/>
      <point x="118" y="390" type="line"/>
      <point x="118" y="457"/>
      <point x="150" y="490"/>
      <point x="211" y="490" type="curve" smooth="yes"/>
      <point x="273" y="490"/>
      <point x="306" y="449"/>
      <point x="306" y="380" type="curve" smooth="yes"/>
      <point x="306" y="0" type="line"/>
      <point x="380" y="0" type="line"/>
      <point x="402" y="87"/>
      <point x="444" y="133"/>
      <point x="501" y="146" type="curve"/>
      <point x="492" y="162" type="line"/>
      <point x="481" y="143"/>
      <point x="474" y="117"/>
      <point x="474" y="91" type="curve" smooth="yes"/>
      <point x="474" y="30"/>
      <point x="505" y="-7"/>
      <point x="553" y="-7" type="curve" smooth="yes"/>
      <point x="600" y="-7"/>
      <point x="631" y="30"/>
      <point x="631" y="91" type="curve" smooth="yes"/>
      <point x="631" y="151"/>
      <point x="603" y="198"/>
      <point x="550" y="198" type="curve"/>
      <point x="561" y="169" type="line"/>
      <point x="580" y="189"/>
      <point x="588" y="218"/>
      <point x="588" y="246" type="curve" smooth="yes"/>
      <point x="588" y="551" type="line"/>
      <point x="512" y="551" type="line"/>
      <point x="512" y="269" type="line" smooth="yes"/>
      <point x="512" y="240"/>
      <point x="512" y="223"/>
      <point x="487" y="214" type="curve" smooth="yes"/>
      <point x="429" y="194"/>
      <point x="383" y="164"/>
      <point x="355" y="93" type="curve"/>
      <point x="382" y="79" type="line"/>
      <point x="382" y="389" type="line" smooth="yes"/>
      <point x="382" y="502"/>
      <point x="307" y="561"/>
      <point x="212" y="561" type="curve" smooth="yes"/>
      <point x="111" y="561"/>
      <point x="44" y="495"/>
      <point x="44" y="415" type="curve" smooth="yes"/>
      <point x="44" y="384" type="line"/>
      <point x="159" y="323" type="line"/>
      <point x="148" y="339" type="line"/>
      <point x="102" y="339"/>
      <point x="51" y="304"/>
      <point x="51" y="209" type="curve" smooth="yes"/>
      <point x="51" y="103" type="line" smooth="yes"/>
      <point x="51" y="33"/>
      <point x="82" y="-7"/>
    </contour>
    <contour>
      <point x="134" y="37" type="curve" smooth="yes"/>
      <point x="110" y="37"/>
      <point x="99" y="60"/>
      <point x="99" y="92" type="curve" smooth="yes"/>
      <point x="99" y="124"/>
      <point x="110" y="146"/>
      <point x="134" y="146" type="curve" smooth="yes"/>
      <point x="158" y="146"/>
      <point x="168" y="123"/>
      <point x="168" y="92" type="curve" smooth="yes"/>
      <point x="168" y="60"/>
      <point x="158" y="37"/>
    </contour>
    <contour>
      <point x="129" y="327" type="line"/>
      <point x="136" y="327" type="line"/>
      <point x="136" y="345" type="line"/>
      <point x="129" y="345" type="line"/>
    </contour>
    <contour>
      <point x="375" y="146" type="line"/>
      <point x="375" y="138" type="line"/>
      <point x="391" y="138" type="line"/>
      <point x="391" y="146" type="line"/>
    </contour>
    <contour>
      <point x="553" y="39" type="curve" smooth="yes"/>
      <point x="531" y="39"/>
      <point x="522" y="62"/>
      <point x="522" y="93" type="curve" smooth="yes"/>
      <point x="522" y="110"/>
      <point x="526" y="131"/>
      <point x="534" y="147" type="curve"/>
      <point x="538" y="148"/>
      <point x="543" y="149"/>
      <point x="549" y="149" type="curve" smooth="yes"/>
      <point x="574" y="149"/>
      <point x="583" y="122"/>
      <point x="583" y="92" type="curve" smooth="yes"/>
      <point x="583" y="60"/>
      <point x="576" y="39"/>
    </contour>
  </outline>
</glyph>
<glyph name="doDek-thai" format="2">
  <advance width="483"/>
  <unicode hex="0E14"/>
  <anchor x="241" y="0" name="bottom"/>
  <anchor x="415" y="0" name="bottomright"/>
  <anchor x="232" y="551" name="top"/>
  <anchor x="410" y="551" name="topright"/>
  <outline>
    <contour>
      <point x="67" y="0" type="line"/>
      <point x="143" y="0" type="line"/>
      <point x="262" y="150" type="line" smooth="yes"/>
      <point x="291" y="186"/>
      <point x="312" y="217"/>
      <point x="312" y="264" type="curve" smooth="yes"/>
      <point x="312" y="324"/>
      <point x="284" y="367"/>
      <point x="236" y="367" type="curve" smooth="yes"/>
      <point x="189" y="367"/>
      <point x="158" y="329"/>
      <point x="158" y="268" type="curve" smooth="yes"/>
      <point x="158" y="208"/>
      <point x="186" y="169"/>
      <point x="235" y="169" type="curve" smooth="yes"/>
      <point x="278" y="169"/>
      <point x="300" y="217"/>
      <point x="300" y="268" type="curve"/>
      <point x="288" y="268" type="line"/>
      <point x="288" y="227"/>
      <point x="271" y="186"/>
      <point x="209" y="186" type="curve"/>
      <point x="107" y="55" type="line"/>
      <point x="137" y="28" type="line"/>
      <point x="137" y="93" type="line" smooth="yes"/>
      <point x="137" y="176"/>
      <point x="124" y="229"/>
      <point x="124" y="325" type="curve" smooth="yes"/>
      <point x="124" y="446"/>
      <point x="167" y="490"/>
      <point x="233" y="490" type="curve" smooth="yes"/>
      <point x="311" y="490"/>
      <point x="339" y="434"/>
      <point x="339" y="339" type="curve" smooth="yes"/>
      <point x="339" y="0" type="line"/>
      <point x="415" y="0" type="line"/>
      <point x="415" y="348" type="line" smooth="yes"/>
      <point x="415" y="482"/>
      <point x="348" y="561"/>
      <point x="233" y="561" type="curve" smooth="yes"/>
      <point x="125" y="561"/>
      <point x="48" y="484"/>
      <point x="48" y="339" type="curve" smooth="yes"/>
      <point x="48" y="220"/>
      <point x="67" y="161"/>
      <point x="67" y="74" type="curve" smooth="yes"/>
    </contour>
    <contour>
      <point x="235" y="213" type="curve" smooth="yes"/>
      <point x="212" y="213"/>
      <point x="204" y="238"/>
      <point x="204" y="268" type="curve" smooth="yes"/>
      <point x="204" y="298"/>
      <point x="212" y="323"/>
      <point x="235" y="323" type="curve" smooth="yes"/>
      <point x="258" y="323"/>
      <point x="266" y="298"/>
      <point x="266" y="268" type="curve" smooth="yes"/>
      <point x="266" y="237"/>
      <point x="258" y="213"/>
    </contour>
  </outline>
</glyph>
<glyph name="toTao-thai" format="2">
  <advance width="490"/>
  <unicode hex="0E15"/>
  <note>
uni0E15
</note>
  <anchor x="246" y="0" name="bottom"/>
  <anchor x="422" y="0" name="bottomright"/>
  <anchor x="238" y="551" name="top"/>
  <anchor x="417" y="551" name="topright"/>
  <outline>
    <contour>
      <point x="70" y="0" type="line"/>
      <point x="146" y="0" type="line"/>
      <point x="266" y="151" type="line" smooth="yes"/>
      <point x="295" y="187"/>
      <point x="317" y="216"/>
      <point x="317" y="264" type="curve" smooth="yes"/>
      <point x="317" y="324"/>
      <point x="287" y="367"/>
      <point x="240" y="367" type="curve" smooth="yes"/>
      <point x="195" y="367"/>
      <point x="163" y="328"/>
      <point x="163" y="267" type="curve" smooth="yes"/>
      <point x="163" y="207"/>
      <point x="196" y="169"/>
      <point x="242" y="169" type="curve" smooth="yes"/>
      <point x="288" y="169"/>
      <point x="304" y="218"/>
      <point x="304" y="268" type="curve"/>
      <point x="290" y="268" type="line"/>
      <point x="290" y="224"/>
      <point x="279" y="186"/>
      <point x="215" y="186" type="curve"/>
      <point x="114" y="57" type="line"/>
      <point x="140" y="28" type="line"/>
      <point x="140" y="98" type="line" smooth="yes"/>
      <point x="140" y="181"/>
      <point x="124" y="218"/>
      <point x="124" y="330" type="curve" smooth="yes"/>
      <point x="124" y="428"/>
      <point x="144" y="471"/>
      <point x="175" y="480" type="curve"/>
      <point x="234" y="421" type="line"/>
      <point x="242" y="421" type="line"/>
      <point x="299" y="481" type="line"/>
      <point x="336" y="472"/>
      <point x="346" y="442"/>
      <point x="346" y="395" type="curve" smooth="yes"/>
      <point x="346" y="0" type="line"/>
      <point x="422" y="0" type="line"/>
      <point x="422" y="386" type="line" smooth="yes"/>
      <point x="422" y="506"/>
      <point x="375" y="556"/>
      <point x="296" y="558" type="curve"/>
      <point x="238" y="495" type="line"/>
      <point x="180" y="558" type="line"/>
      <point x="92" y="554"/>
      <point x="48" y="468"/>
      <point x="48" y="344" type="curve" smooth="yes"/>
      <point x="48" y="209"/>
      <point x="70" y="166"/>
      <point x="70" y="79" type="curve" smooth="yes"/>
    </contour>
    <contour>
      <point x="239" y="213" type="curve" smooth="yes"/>
      <point x="218" y="213"/>
      <point x="209" y="238"/>
      <point x="209" y="268" type="curve" smooth="yes"/>
      <point x="209" y="298"/>
      <point x="218" y="323"/>
      <point x="239" y="323" type="curve" smooth="yes"/>
      <point x="260" y="323"/>
      <point x="271" y="298"/>
      <point x="271" y="268" type="curve" smooth="yes"/>
      <point x="271" y="237"/>
      <point x="260" y="213"/>
    </contour>
  </outline>
</glyph>
<glyph name="thoThahan-thai" format="2">
  <advance width="506"/>
  <unicode hex="0E17"/>
  <anchor x="285" y="0" name="bottom"/>
  <anchor x="445" y="0" name="bottomright"/>
  <anchor x="285" y="551" name="top"/>
  <anchor x="440" y="551" name="topright"/>
  <outline>
    <contour>
      <point x="125" y="0" type="line"/>
      <point x="201" y="0" type="line"/>
      <point x="201" y="203" type="line" smooth="yes"/>
      <point x="201" y="354"/>
      <point x="245" y="491"/>
      <point x="316" y="491" type="curve" smooth="yes"/>
      <point x="356" y="491"/>
      <point x="369" y="457"/>
      <point x="369" y="404" type="curve" smooth="yes"/>
      <point x="369" y="0" type="line"/>
      <point x="445" y="0" type="line"/>
      <point x="445" y="412" type="line" smooth="yes"/>
      <point x="445" y="506"/>
      <point x="405" y="561"/>
      <point x="327" y="561" type="curve" smooth="yes"/>
      <point x="250" y="561"/>
      <point x="191" y="486"/>
      <point x="177" y="369" type="curve"/>
      <point x="188" y="363" type="line"/>
      <point x="188" y="448" type="line" smooth="yes"/>
      <point x="188" y="518"/>
      <point x="157" y="558"/>
      <point x="105" y="558" type="curve" smooth="yes"/>
      <point x="54" y="558"/>
      <point x="25" y="520"/>
      <point x="25" y="458" type="curve" smooth="yes"/>
      <point x="25" y="398"/>
      <point x="56" y="361"/>
      <point x="105" y="361" type="curve" smooth="yes"/>
      <point x="157" y="361"/>
      <point x="174" y="407"/>
      <point x="174" y="458" type="curve"/>
      <point x="160" y="458" type="line"/>
      <point x="160" y="417"/>
      <point x="144" y="383"/>
      <point x="125" y="383" type="curve"/>
    </contour>
    <contour>
      <point x="105" y="405" type="curve" smooth="yes"/>
      <point x="81" y="405"/>
      <point x="71" y="428"/>
      <point x="71" y="459" type="curve" smooth="yes"/>
      <point x="71" y="491"/>
      <point x="81" y="514"/>
      <point x="105" y="514" type="curve" smooth="yes"/>
      <point x="129" y="514"/>
      <point x="140" y="491"/>
      <point x="140" y="459" type="curve" smooth="yes"/>
      <point x="140" y="427"/>
      <point x="129" y="405"/>
    </contour>
    <contour>
      <point x="182" y="431" type="line"/>
      <point x="182" y="422" type="line"/>
      <point x="196" y="422" type="line"/>
      <point x="196" y="431" type="line"/>
    </contour>
  </outline>
</glyph>
<glyph name="thoThong-thai" format="2">
  <advance width="407"/>
  <unicode hex="0E18"/>
  <anchor x="208" y="0" name="bottom"/>
  <anchor x="361" y="0" name="bottomright"/>
  <anchor x="198" y="551" name="top"/>
  <anchor x="348" y="551" name="topright"/>
  <outline>
    <contour>
      <point x="50" y="0" type="line"/>
      <point x="240" y="0" type="line" smooth="yes"/>
      <point x="339" y="0"/>
      <point x="366" y="48"/>
      <point x="366" y="147" type="curve" smooth="yes"/>
      <point x="366" y="214" type="line" smooth="yes"/>
      <point x="366" y="304"/>
      <point x="339" y="343"/>
      <point x="265" y="359" type="curve" smooth="yes"/>
      <point x="123" y="389" type="line"/>
      <point x="123" y="416" type="line" smooth="yes"/>
      <point x="123" y="460"/>
      <point x="133" y="490"/>
      <point x="182" y="490" type="curve" smooth="yes"/>
      <point x="220" y="490"/>
      <point x="257" y="477"/>
      <point x="293" y="477" type="curve" smooth="yes"/>
      <point x="316" y="477"/>
      <point x="334" y="478"/>
      <point x="356" y="485" type="curve"/>
      <point x="348" y="555" type="line"/>
      <point x="328" y="550"/>
      <point x="305" y="548"/>
      <point x="285" y="548" type="curve" smooth="yes"/>
      <point x="245" y="548"/>
      <point x="226" y="561"/>
      <point x="167" y="561" type="curve" smooth="yes"/>
      <point x="90" y="561"/>
      <point x="47" y="512"/>
      <point x="47" y="418" type="curve" smooth="yes"/>
      <point x="47" y="331" type="line"/>
      <point x="240" y="291" type="line" smooth="yes"/>
      <point x="281" y="283"/>
      <point x="291" y="260"/>
      <point x="291" y="222" type="curve" smooth="yes"/>
      <point x="291" y="151" type="line" smooth="yes"/>
      <point x="291" y="85"/>
      <point x="273" y="71"/>
      <point x="228" y="71" type="curve" smooth="yes"/>
      <point x="126" y="71" type="line"/>
      <point x="126" y="242" type="line"/>
      <point x="50" y="242" type="line"/>
    </contour>
  </outline>
</glyph>
<glyph name="noNu-thai" format="2">
  <advance width="462"/>
  <unicode hex="0E19"/>
  <note>
uni0E19
</note>
  <anchor x="232" y="0" name="bottom"/>
  <anchor x="420" y="0" name="bottomright"/>
  <anchor x="242" y="551" name="top"/>
  <anchor x="397" y="551" name="topright"/>
  <outline>
    <contour>
      <point x="362" y="-7" type="curve" smooth="yes"/>
      <point x="409" y="-7"/>
      <point x="440" y="30"/>
      <point x="440" y="91" type="curve" smooth="yes"/>
      <point x="440" y="151"/>
      <point x="412" y="198"/>
      <point x="359" y="198" type="curve"/>
      <point x="370" y="169" type="line"/>
      <point x="389" y="189"/>
      <point x="397" y="218"/>
      <point x="397" y="246" type="curve" smooth="yes"/>
      <point x="397" y="551" type="line"/>
      <point x="321" y="551" type="line"/>
      <point x="321" y="268" type="line" smooth="yes"/>
      <point x="321" y="239"/>
      <point x="321" y="222"/>
      <point x="296" y="213" type="curve" smooth="yes"/>
      <point x="238" y="193"/>
      <point x="192" y="162"/>
      <point x="164" y="91" type="curve"/>
      <point x="188" y="78" type="line"/>
      <point x="188" y="448" type="line" smooth="yes"/>
      <point x="188" y="518"/>
      <point x="157" y="558"/>
      <point x="105" y="558" type="curve" smooth="yes"/>
      <point x="54" y="558"/>
      <point x="25" y="520"/>
      <point x="25" y="458" type="curve" smooth="yes"/>
      <point x="25" y="397"/>
      <point x="56" y="360"/>
      <point x="105" y="360" type="curve" smooth="yes"/>
      <point x="157" y="360"/>
      <point x="174" y="407"/>
      <point x="174" y="458" type="curve"/>
      <point x="160" y="458" type="line"/>
      <point x="160" y="417"/>
      <point x="150" y="377"/>
      <point x="112" y="377" type="curve"/>
      <point x="112" y="0" type="line"/>
      <point x="189" y="0" type="line"/>
      <point x="211" y="87"/>
      <point x="253" y="133"/>
      <point x="310" y="146" type="curve"/>
      <point x="301" y="162" type="line"/>
      <point x="290" y="143"/>
      <point x="283" y="117"/>
      <point x="283" y="91" type="curve" smooth="yes"/>
      <point x="283" y="30"/>
      <point x="314" y="-7"/>
    </contour>
    <contour>
      <point x="181" y="131" type="line"/>
      <point x="197" y="131" type="line"/>
      <point x="197" y="139" type="line"/>
      <point x="181" y="139" type="line"/>
    </contour>
    <contour>
      <point x="105" y="404" type="curve" smooth="yes"/>
      <point x="81" y="404"/>
      <point x="71" y="427"/>
      <point x="71" y="459" type="curve" smooth="yes"/>
      <point x="71" y="491"/>
      <point x="81" y="514"/>
      <point x="105" y="514" type="curve" smooth="yes"/>
      <point x="129" y="514"/>
      <point x="140" y="491"/>
      <point x="140" y="459" type="curve" smooth="yes"/>
      <point x="140" y="426"/>
      <point x="129" y="404"/>
    </contour>
    <contour>
      <point x="362" y="39" type="curve" smooth="yes"/>
      <point x="340" y="39"/>
      <point x="331" y="62"/>
      <point x="331" y="93" type="curve" smooth="yes"/>
      <point x="331" y="110"/>
      <point x="335" y="131"/>
      <point x="343" y="147" type="curve"/>
      <point x="347" y="148"/>
      <point x="352" y="149"/>
      <point x="358" y="149" type="curve" smooth="yes"/>
      <point x="383" y="149"/>
      <point x="392" y="122"/>
      <point x="392" y="92" type="curve" smooth="yes"/>
      <point x="392" y="60"/>
      <point x="385" y="39"/>
    </contour>
  </outline>
</glyph>
<glyph name="poPla-thai" format="2">
  <advance width="484"/>
  <unicode hex="0E1B"/>
  <note>
uni0E1B
</note>
  <anchor x="264" y="0" name="bottom"/>
  <anchor x="411" y="0" name="bottomright"/>
  <anchor x="169" y="552" name="top"/>
  <anchor x="300" y="552" name="topright"/>
  <outline>
    <contour>
      <point x="416" y="743" type="line"/>
      <point x="340" y="743" type="line"/>
      <point x="340" y="152" type="line" smooth="yes"/>
      <point x="340" y="84"/>
      <point x="324" y="70"/>
      <point x="279" y="70" type="curve" smooth="yes"/>
      <point x="143" y="70" type="line"/>
      <point x="188" y="26" type="line"/>
      <point x="188" y="448" type="line" smooth="yes"/>
      <point x="188" y="518"/>
      <point x="157" y="558"/>
      <point x="105" y="558" type="curve" smooth="yes"/>
      <point x="54" y="558"/>
      <point x="25" y="520"/>
      <point x="25" y="458" type="curve" smooth="yes"/>
      <point x="25" y="397"/>
      <point x="56" y="360"/>
      <point x="105" y="360" type="curve" smooth="yes"/>
      <point x="157" y="360"/>
      <point x="174" y="407"/>
      <point x="174" y="458" type="curve"/>
      <point x="160" y="458" type="line"/>
      <point x="160" y="417"/>
      <point x="150" y="377"/>
      <point x="112" y="377" type="curve"/>
      <point x="112" y="0" type="line"/>
      <point x="290" y="0" type="line" smooth="yes"/>
      <point x="389" y="0"/>
      <point x="416" y="48"/>
      <point x="416" y="147" type="curve" smooth="yes"/>
    </contour>
    <contour>
      <point x="105" y="404" type="curve" smooth="yes"/>
      <point x="81" y="404"/>
      <point x="71" y="427"/>
      <point x="71" y="459" type="curve" smooth="yes"/>
      <point x="71" y="491"/>
      <point x="81" y="514"/>
      <point x="105" y="514" type="curve" smooth="yes"/>
      <point x="129" y="514"/>
      <point x="140" y="491"/>
      <point x="140" y="459" type="curve" smooth="yes"/>
      <point x="140" y="426"/>
      <point x="129" y="404"/>
    </contour>
  </outline>
</glyph>
<glyph name="foFa-thai" format="2">
  <advance width="483"/>
  <unicode hex="0E1D"/>
  <anchor x="238" y="0" name="bottom"/>
  <anchor x="413" y="0" name="bottomright"/>
  <anchor x="167" y="552" name="top"/>
  <anchor x="297" y="552" name="topright"/>
  <outline>
    <contour>
      <point x="62" y="448" type="curve" smooth="yes"/>
      <point x="62" y="0" type="line"/>
      <point x="134" y="0" type="line"/>
      <point x="237" y="181" type="line"/>
      <point x="340" y="0" type="line"/>
      <point x="413" y="0" type="line"/>
      <point x="413" y="743" type="line"/>
      <point x="337" y="743" type="line"/>
      <point x="337" y="60" type="line"/>
      <point x="367" y="72" type="line"/>
      <point x="256" y="266" type="line"/>
      <point x="219" y="266" type="line"/>
      <point x="107" y="72" type="line"/>
      <point x="138" y="60" type="line"/>
      <point x="138" y="377" type="line"/>
      <point x="100" y="377"/>
      <point x="90" y="417"/>
      <point x="90" y="458" type="curve"/>
      <point x="76" y="458" type="line"/>
      <point x="76" y="407"/>
      <point x="93" y="360"/>
      <point x="145" y="360" type="curve" smooth="yes"/>
      <point x="194" y="360"/>
      <point x="225" y="397"/>
      <point x="225" y="458" type="curve" smooth="yes"/>
      <point x="225" y="520"/>
      <point x="196" y="558"/>
      <point x="145" y="558" type="curve" smooth="yes"/>
      <point x="93" y="558"/>
      <point x="62" y="518"/>
    </contour>
    <contour>
      <point x="145" y="404" type="curve" smooth="yes"/>
      <point x="121" y="404"/>
      <point x="110" y="426"/>
      <point x="110" y="459" type="curve" smooth="yes"/>
      <point x="110" y="491"/>
      <point x="121" y="514"/>
      <point x="145" y="514" type="curve" smooth="yes"/>
      <point x="169" y="514"/>
      <point x="179" y="491"/>
      <point x="179" y="459" type="curve" smooth="yes"/>
      <point x="179" y="427"/>
      <point x="169" y="404"/>
    </contour>
    <contour>
      <point x="130" y="121" type="line"/>
      <point x="144" y="121" type="line"/>
      <point x="144" y="129" type="line"/>
      <point x="130" y="129" type="line"/>
    </contour>
    <contour>
      <point x="229" y="178" type="line"/>
      <point x="243" y="178" type="line"/>
      <point x="243" y="186" type="line"/>
      <point x="229" y="186" type="line"/>
    </contour>
    <contour>
      <point x="329" y="122" type="line"/>
      <point x="343" y="122" type="line"/>
      <point x="343" y="130" type="line"/>
      <point x="329" y="130" type="line"/>
    </contour>
  </outline>
</glyph>
<glyph name="phoPhan-thai" format="2">
  <advance width="541"/>
  <unicode hex="0E1E"/>
  <note>
uni0E1E
</note>
  <anchor x="292" y="0" name="bottom"/>
  <anchor x="471" y="0" name="bottomright"/>
  <anchor x="288" y="551" name="top"/>
  <anchor x="471" y="551" name="topright"/>
  <outline>
    <contour>
      <point x="112" y="0" type="line"/>
      <point x="193" y="0" type="line"/>
      <point x="296" y="408" type="line"/>
      <point x="279" y="408" type="line"/>
      <point x="391" y="0" type="line"/>
      <point x="471" y="0" type="line"/>
      <point x="471" y="551" type="line"/>
      <point x="398" y="551" type="line"/>
      <point x="398" y="270" type="line" smooth="yes"/>
      <point x="398" y="214"/>
      <point x="405" y="135"/>
      <point x="412" y="75" type="curve"/>
      <point x="427" y="75" type="line"/>
      <point x="303" y="531" type="line"/>
      <point x="273" y="531" type="line"/>
      <point x="158" y="75" type="line"/>
      <point x="172" y="75" type="line"/>
      <point x="178" y="138"/>
      <point x="185" y="214"/>
      <point x="185" y="270" type="curve" smooth="yes"/>
      <point x="185" y="448" type="line" smooth="yes"/>
      <point x="185" y="518"/>
      <point x="157" y="558"/>
      <point x="105" y="558" type="curve" smooth="yes"/>
      <point x="54" y="558"/>
      <point x="25" y="520"/>
      <point x="25" y="458" type="curve" smooth="yes"/>
      <point x="25" y="398"/>
      <point x="56" y="361"/>
      <point x="105" y="361" type="curve" smooth="yes"/>
      <point x="157" y="361"/>
      <point x="174" y="407"/>
      <point x="174" y="458" type="curve"/>
      <point x="160" y="458" type="line"/>
      <point x="160" y="417"/>
      <point x="150" y="378"/>
      <point x="112" y="378" type="curve"/>
    </contour>
    <contour>
      <point x="103" y="405" type="curve" smooth="yes"/>
      <point x="79" y="405"/>
      <point x="69" y="428"/>
      <point x="69" y="459" type="curve" smooth="yes"/>
      <point x="69" y="491"/>
      <point x="79" y="514"/>
      <point x="103" y="514" type="curve" smooth="yes"/>
      <point x="127" y="514"/>
      <point x="138" y="491"/>
      <point x="138" y="459" type="curve" smooth="yes"/>
      <point x="138" y="427"/>
      <point x="127" y="405"/>
    </contour>
    <contour>
      <point x="162" y="178" type="line"/>
      <point x="162" y="151" type="line"/>
      <point x="196" y="151" type="line"/>
      <point x="196" y="178" type="line"/>
    </contour>
    <contour>
      <point x="273" y="392" type="line"/>
      <point x="273" y="371" type="line"/>
      <point x="301" y="371" type="line"/>
      <point x="301" y="392" type="line"/>
    </contour>
    <contour>
      <point x="384" y="178" type="line"/>
      <point x="384" y="151" type="line"/>
      <point x="418" y="151" type="line"/>
      <point x="418" y="178" type="line"/>
    </contour>
  </outline>
</glyph>
<glyph name="foFan-thai" format="2">
  <advance width="541"/>
  <unicode hex="0E1F"/>
  <anchor x="292" y="0" name="bottom"/>
  <anchor x="471" y="0" name="bottomright"/>
  <anchor x="230" y="552" name="top"/>
  <anchor x="358" y="552" name="topright"/>
  <outline>
    <contour>
      <point x="112" y="0" type="line"/>
      <point x="193" y="0" type="line"/>
      <point x="296" y="409" type="line"/>
      <point x="279" y="409" type="line"/>
      <point x="391" y="0" type="line"/>
      <point x="471" y="0" type="line"/>
      <point x="471" y="743" type="line"/>
      <point x="398" y="743" type="line"/>
      <point x="398" y="270" type="line" smooth="yes"/>
      <point x="398" y="214"/>
      <point x="405" y="135"/>
      <point x="412" y="75" type="curve"/>
      <point x="427" y="75" type="line"/>
      <point x="303" y="532" type="line"/>
      <point x="273" y="532" type="line"/>
      <point x="158" y="75" type="line"/>
      <point x="172" y="75" type="line"/>
      <point x="178" y="137"/>
      <point x="185" y="214"/>
      <point x="185" y="270" type="curve" smooth="yes"/>
      <point x="185" y="448" type="line" smooth="yes"/>
      <point x="185" y="517"/>
      <point x="157" y="558"/>
      <point x="105" y="558" type="curve" smooth="yes"/>
      <point x="54" y="558"/>
      <point x="25" y="519"/>
      <point x="25" y="458" type="curve" smooth="yes"/>
      <point x="25" y="397"/>
      <point x="56" y="360"/>
      <point x="105" y="360" type="curve" smooth="yes"/>
      <point x="157" y="360"/>
      <point x="174" y="407"/>
      <point x="174" y="458" type="curve"/>
      <point x="160" y="458" type="line"/>
      <point x="160" y="417"/>
      <point x="150" y="377"/>
      <point x="112" y="377" type="curve"/>
    </contour>
    <contour>
      <point x="103" y="404" type="curve" smooth="yes"/>
      <point x="79" y="404"/>
      <point x="69" y="427"/>
      <point x="69" y="459" type="curve" smooth="yes"/>
      <point x="69" y="490"/>
      <point x="79" y="514"/>
      <point x="103" y="514" type="curve" smooth="yes"/>
      <point x="127" y="514"/>
      <point x="138" y="490"/>
      <point x="138" y="459" type="curve" smooth="yes"/>
      <point x="138" y="426"/>
      <point x="127" y="404"/>
    </contour>
    <contour>
      <point x="162" y="178" type="line"/>
      <point x="162" y="151" type="line"/>
      <point x="196" y="151" type="line"/>
      <point x="196" y="178" type="line"/>
    </contour>
    <contour>
      <point x="273" y="393" type="line"/>
      <point x="273" y="372" type="line"/>
      <point x="301" y="372" type="line"/>
      <point x="301" y="393" type="line"/>
    </contour>
    <contour>
      <point x="384" y="178" type="line"/>
      <point x="384" y="151" type="line"/>
      <point x="418" y="151" type="line"/>
      <point x="418" y="178" type="line"/>
    </contour>
  </outline>
</glyph>
<glyph name="phoSamphao-thai" format="2">
  <advance width="485"/>
  <unicode hex="0E20"/>
  <anchor x="239" y="0" name="bottom"/>
  <anchor x="417" y="0" name="bottomright"/>
  <anchor x="251" y="551" name="top"/>
  <anchor x="412" y="551" name="topright"/>
  <outline>
    <contour>
      <point x="105" y="-7" type="curve" smooth="yes"/>
      <point x="157" y="-7"/>
      <point x="188" y="33"/>
      <point x="188" y="103" type="curve" smooth="yes"/>
      <point x="188" y="239" type="line" smooth="yes"/>
      <point x="188" y="272"/>
      <point x="199" y="308"/>
      <point x="237" y="308" type="curve"/>
      <point x="243" y="364" type="line"/>
      <point x="132" y="430" type="line"/>
      <point x="159" y="389" type="line"/>
      <point x="159" y="456"/>
      <point x="189" y="490"/>
      <point x="249" y="490" type="curve" smooth="yes"/>
      <point x="302" y="490"/>
      <point x="341" y="455"/>
      <point x="341" y="380" type="curve" smooth="yes"/>
      <point x="341" y="0" type="line"/>
      <point x="417" y="0" type="line"/>
      <point x="417" y="389" type="line" smooth="yes"/>
      <point x="417" y="508"/>
      <point x="336" y="561"/>
      <point x="250" y="561" type="curve" smooth="yes"/>
      <point x="149" y="561"/>
      <point x="85" y="495"/>
      <point x="85" y="415" type="curve" smooth="yes"/>
      <point x="85" y="384" type="line"/>
      <point x="200" y="323" type="line"/>
      <point x="198" y="342" type="line"/>
      <point x="132" y="339"/>
      <point x="112" y="298"/>
      <point x="112" y="239" type="curve" smooth="yes"/>
      <point x="112" y="173" type="line"/>
      <point x="150" y="173"/>
      <point x="160" y="134"/>
      <point x="160" y="93" type="curve"/>
      <point x="174" y="93" type="line"/>
      <point x="174" y="144"/>
      <point x="157" y="190"/>
      <point x="105" y="190" type="curve" smooth="yes"/>
      <point x="56" y="190"/>
      <point x="25" y="153"/>
      <point x="25" y="93" type="curve" smooth="yes"/>
      <point x="25" y="31"/>
      <point x="54" y="-7"/>
    </contour>
    <contour>
      <point x="105" y="37" type="curve" smooth="yes"/>
      <point x="81" y="37"/>
      <point x="71" y="60"/>
      <point x="71" y="92" type="curve" smooth="yes"/>
      <point x="71" y="123"/>
      <point x="81" y="146"/>
      <point x="105" y="146" type="curve" smooth="yes"/>
      <point x="129" y="146"/>
      <point x="140" y="124"/>
      <point x="140" y="92" type="curve" smooth="yes"/>
      <point x="140" y="60"/>
      <point x="129" y="37"/>
    </contour>
    <contour>
      <point x="169" y="347" type="line"/>
      <point x="169" y="329" type="line"/>
      <point x="176" y="329" type="line"/>
      <point x="176" y="347" type="line"/>
    </contour>
  </outline>
</glyph>
<glyph name="moMa-thai" format="2">
  <advance width="481"/>
  <unicode hex="0E21"/>
  <note>
uni0E21
</note>
  <anchor x="256" y="0" name="bottom"/>
  <anchor x="411" y="0" name="bottomright"/>
  <anchor x="255" y="551" name="top"/>
  <anchor x="411" y="551" name="topright"/>
  <outline>
    <contour>
      <point x="139" y="377" type="curve"/>
      <point x="139" y="262" type="line" smooth="yes"/>
      <point x="139" y="235"/>
      <point x="141" y="211"/>
      <point x="144" y="193" type="curve"/>
      <point x="168" y="205" type="line"/>
      <point x="156" y="211"/>
      <point x="145" y="214"/>
      <point x="132" y="214" type="curve" smooth="yes"/>
      <point x="81" y="214"/>
      <point x="45" y="171"/>
      <point x="45" y="104" type="curve" smooth="yes"/>
      <point x="45" y="35"/>
      <point x="82" y="-7"/>
      <point x="135" y="-7" type="curve" smooth="yes"/>
      <point x="198" y="-7"/>
      <point x="226" y="42"/>
      <point x="226" y="102" type="curve" smooth="yes"/>
      <point x="226" y="120"/>
      <point x="225" y="138"/>
      <point x="217" y="156" type="curve"/>
      <point x="201" y="132" type="line"/>
      <point x="251" y="109"/>
      <point x="294" y="64"/>
      <point x="334" y="0" type="curve"/>
      <point x="411" y="0" type="line"/>
      <point x="411" y="551" type="line"/>
      <point x="335" y="551" type="line"/>
      <point x="335" y="52" type="line"/>
      <point x="358" y="74" type="line"/>
      <point x="313" y="139"/>
      <point x="246" y="189"/>
      <point x="188" y="211" type="curve"/>
      <point x="221" y="179" type="line"/>
      <point x="217" y="199"/>
      <point x="215" y="217"/>
      <point x="215" y="243" type="curve" smooth="yes"/>
      <point x="215" y="448" type="line" smooth="yes"/>
      <point x="215" y="518"/>
      <point x="184" y="558"/>
      <point x="132" y="558" type="curve" smooth="yes"/>
      <point x="81" y="558"/>
      <point x="52" y="520"/>
      <point x="52" y="458" type="curve" smooth="yes"/>
      <point x="52" y="397"/>
      <point x="83" y="360"/>
      <point x="132" y="360" type="curve" smooth="yes"/>
      <point x="184" y="360"/>
      <point x="201" y="407"/>
      <point x="201" y="458" type="curve"/>
      <point x="187" y="458" type="line"/>
      <point x="187" y="417"/>
      <point x="177" y="377"/>
    </contour>
    <contour>
      <point x="132" y="404" type="curve" smooth="yes"/>
      <point x="108" y="404"/>
      <point x="98" y="427"/>
      <point x="98" y="459" type="curve" smooth="yes"/>
      <point x="98" y="491"/>
      <point x="108" y="514"/>
      <point x="132" y="514" type="curve" smooth="yes"/>
      <point x="156" y="514"/>
      <point x="167" y="491"/>
      <point x="167" y="459" type="curve" smooth="yes"/>
      <point x="167" y="426"/>
      <point x="156" y="404"/>
    </contour>
    <contour>
      <point x="129" y="42" type="curve" smooth="yes"/>
      <point x="108" y="42"/>
      <point x="96" y="67"/>
      <point x="96" y="104" type="curve" smooth="yes"/>
      <point x="96" y="137"/>
      <point x="106" y="165"/>
      <point x="132" y="165" type="curve" smooth="yes"/>
      <point x="141" y="165"/>
      <point x="147" y="163"/>
      <point x="154" y="160" type="curve"/>
      <point x="156" y="144"/>
      <point x="158" y="125"/>
      <point x="158" y="105" type="curve" smooth="yes"/>
      <point x="158" y="70"/>
      <point x="152" y="42"/>
    </contour>
    <contour>
      <point x="328" y="104" type="line"/>
      <point x="328" y="96" type="line"/>
      <point x="341" y="100" type="line"/>
      <point x="341" y="108" type="line"/>
    </contour>
  </outline>
</glyph>
<glyph name="yoYak-thai" format="2">
  <advance width="454"/>
  <unicode hex="0E22"/>
  <note>
uni0E22
</note>
  <anchor x="229" y="0" name="bottom"/>
  <anchor x="381" y="0" name="bottomright"/>
  <anchor x="221" y="551" name="top"/>
  <anchor x="386" y="551" name="topright"/>
  <outline>
    <contour>
      <point x="64" y="0" type="line"/>
      <point x="260" y="0" type="line" smooth="yes"/>
      <point x="359" y="0"/>
      <point x="386" y="48"/>
      <point x="386" y="147" type="curve" smooth="yes"/>
      <point x="386" y="551" type="line"/>
      <point x="310" y="551" type="line"/>
      <point x="310" y="152" type="line" smooth="yes"/>
      <point x="310" y="86"/>
      <point x="293" y="71"/>
      <point x="248" y="71" type="curve" smooth="yes"/>
      <point x="106" y="71" type="line"/>
      <point x="140" y="37" type="line"/>
      <point x="140" y="157" type="line" smooth="yes"/>
      <point x="140" y="214"/>
      <point x="156" y="236"/>
      <point x="196" y="236" type="curve" smooth="yes"/>
      <point x="240" y="236" type="line"/>
      <point x="240" y="307" type="line"/>
      <point x="193" y="307" type="line" smooth="yes"/>
      <point x="154" y="307"/>
      <point x="131" y="329"/>
      <point x="131" y="363" type="curve" smooth="yes"/>
      <point x="131" y="367"/>
      <point x="132" y="373"/>
      <point x="133" y="378" type="curve"/>
      <point x="102" y="378"/>
      <point x="88" y="407"/>
      <point x="88" y="459" type="curve"/>
      <point x="77" y="459" type="line"/>
      <point x="77" y="399"/>
      <point x="97" y="361"/>
      <point x="141" y="361" type="curve" smooth="yes"/>
      <point x="188" y="361"/>
      <point x="221" y="399"/>
      <point x="221" y="459" type="curve" smooth="yes"/>
      <point x="221" y="521"/>
      <point x="190" y="558"/>
      <point x="143" y="558" type="curve" smooth="yes"/>
      <point x="85" y="558"/>
      <point x="56" y="509"/>
      <point x="56" y="421" type="curve" smooth="yes"/>
      <point x="56" y="336"/>
      <point x="97" y="261"/>
      <point x="150" y="261" type="curve"/>
      <point x="150" y="269" type="line"/>
      <point x="85" y="269"/>
      <point x="64" y="221"/>
      <point x="64" y="147" type="curve" smooth="yes"/>
    </contour>
    <contour>
      <point x="140" y="405" type="curve" smooth="yes"/>
      <point x="116" y="405"/>
      <point x="106" y="428"/>
      <point x="106" y="459" type="curve" smooth="yes"/>
      <point x="106" y="491"/>
      <point x="116" y="514"/>
      <point x="140" y="514" type="curve" smooth="yes"/>
      <point x="164" y="514"/>
      <point x="175" y="491"/>
      <point x="175" y="459" type="curve" smooth="yes"/>
      <point x="175" y="427"/>
      <point x="164" y="405"/>
    </contour>
    <contour>
      <point x="124" y="276" type="line"/>
      <point x="124" y="257" type="line"/>
      <point x="136" y="257" type="line"/>
      <point x="136" y="276" type="line"/>
    </contour>
  </outline>
</glyph>
<glyph name="roRua-thai" format="2">
  <advance width="381"/>
  <unicode hex="0E23"/>
  <note>
uni0E23
</note>
  <anchor x="167" y="0" name="bottom"/>
  <anchor x="302" y="0" name="bottomright"/>
  <anchor x="198" y="551" name="top"/>
  <anchor x="323" y="551" name="topright"/>
  <outline>
    <contour>
      <point x="302" y="276" type="line" smooth="yes"/>
      <point x="302" y="335"/>
      <point x="278" y="368"/>
      <point x="223" y="375" type="curve" smooth="yes"/>
      <point x="108" y="389" type="line"/>
      <point x="108" y="416" type="line" smooth="yes"/>
      <point x="108" y="464"/>
      <point x="132" y="490"/>
      <point x="173" y="490" type="curve" smooth="yes"/>
      <point x="204" y="490"/>
      <point x="243" y="477"/>
      <point x="272" y="477" type="curve" smooth="yes"/>
      <point x="295" y="477"/>
      <point x="309" y="478"/>
      <point x="331" y="485" type="curve"/>
      <point x="323" y="555" type="line"/>
      <point x="303" y="550"/>
      <point x="284" y="548"/>
      <point x="264" y="548" type="curve" smooth="yes"/>
      <point x="231" y="548"/>
      <point x="208" y="561"/>
      <point x="158" y="561" type="curve" smooth="yes"/>
      <point x="84" y="561"/>
      <point x="32" y="509"/>
      <point x="32" y="418" type="curve" smooth="yes"/>
      <point x="32" y="326" type="line"/>
      <point x="184" y="309" type="line" smooth="yes"/>
      <point x="222" y="305"/>
      <point x="226" y="282"/>
      <point x="226" y="253" type="curve" smooth="yes"/>
      <point x="226" y="172" type="line"/>
      <point x="264" y="172"/>
      <point x="274" y="132"/>
      <point x="274" y="91" type="curve"/>
      <point x="288" y="91" type="line"/>
      <point x="288" y="142"/>
      <point x="271" y="189"/>
      <point x="219" y="189" type="curve" smooth="yes"/>
      <point x="170" y="189"/>
      <point x="139" y="152"/>
      <point x="139" y="91" type="curve" smooth="yes"/>
      <point x="139" y="29"/>
      <point x="168" y="-9"/>
      <point x="219" y="-9" type="curve" smooth="yes"/>
      <point x="271" y="-9"/>
      <point x="302" y="31"/>
      <point x="302" y="101" type="curve" smooth="yes"/>
    </contour>
    <contour>
      <point x="219" y="145" type="curve" smooth="yes"/>
      <point x="243" y="145"/>
      <point x="254" y="123"/>
      <point x="254" y="90" type="curve" smooth="yes"/>
      <point x="254" y="58"/>
      <point x="243" y="35"/>
      <point x="219" y="35" type="curve" smooth="yes"/>
      <point x="195" y="35"/>
      <point x="185" y="58"/>
      <point x="185" y="90" type="curve" smooth="yes"/>
      <point x="185" y="122"/>
      <point x="195" y="145"/>
    </contour>
  </outline>
</glyph>
<glyph name="ru-thai" format="2">
  <advance width="454"/>
  <unicode hex="0E24"/>
  <anchor x="181" y="0" name="bottom"/>
  <anchor x="270" y="0" name="bottomright"/>
  <anchor x="215" y="551" name="top"/>
  <anchor x="381" y="551" name="topright"/>
  <outline>
    <contour>
      <point x="310" y="-260" type="line"/>
      <point x="386" y="-260" type="line"/>
      <point x="386" y="389" type="line" smooth="yes"/>
      <point x="386" y="504"/>
      <point x="307" y="561"/>
      <point x="214" y="561" type="curve" smooth="yes"/>
      <point x="112" y="561"/>
      <point x="44" y="495"/>
      <point x="44" y="415" type="curve" smooth="yes"/>
      <point x="44" y="384" type="line"/>
      <point x="159" y="323" type="line"/>
      <point x="148" y="339" type="line"/>
      <point x="102" y="339"/>
      <point x="51" y="304"/>
      <point x="51" y="209" type="curve" smooth="yes"/>
      <point x="51" y="103" type="line" smooth="yes"/>
      <point x="51" y="33"/>
      <point x="82" y="-7"/>
      <point x="134" y="-7" type="curve" smooth="yes"/>
      <point x="185" y="-7"/>
      <point x="214" y="31"/>
      <point x="214" y="93" type="curve" smooth="yes"/>
      <point x="214" y="153"/>
      <point x="183" y="190"/>
      <point x="134" y="190" type="curve" smooth="yes"/>
      <point x="82" y="190"/>
      <point x="65" y="144"/>
      <point x="65" y="93" type="curve"/>
      <point x="79" y="93" type="line"/>
      <point x="79" y="134"/>
      <point x="89" y="173"/>
      <point x="127" y="173" type="curve"/>
      <point x="127" y="209" type="line" smooth="yes"/>
      <point x="127" y="279"/>
      <point x="158" y="308"/>
      <point x="196" y="308" type="curve"/>
      <point x="202" y="364" type="line"/>
      <point x="91" y="430" type="line"/>
      <point x="118" y="390" type="line"/>
      <point x="118" y="457"/>
      <point x="151" y="490"/>
      <point x="213" y="490" type="curve" smooth="yes"/>
      <point x="273" y="490"/>
      <point x="310" y="451"/>
      <point x="310" y="380" type="curve" smooth="yes"/>
    </contour>
    <contour>
      <point x="134" y="37" type="curve" smooth="yes"/>
      <point x="110" y="37"/>
      <point x="99" y="60"/>
      <point x="99" y="92" type="curve" smooth="yes"/>
      <point x="99" y="124"/>
      <point x="110" y="146"/>
      <point x="134" y="146" type="curve" smooth="yes"/>
      <point x="158" y="146"/>
      <point x="168" y="123"/>
      <point x="168" y="92" type="curve" smooth="yes"/>
      <point x="168" y="60"/>
      <point x="158" y="37"/>
    </contour>
    <contour>
      <point x="129" y="345" type="line"/>
      <point x="129" y="327" type="line"/>
      <point x="136" y="327" type="line"/>
      <point x="136" y="345" type="line"/>
    </contour>
  </outline>
</glyph>
<glyph name="loLing-thai" format="2">
  <advance width="437"/>
  <unicode hex="0E25"/>
  <anchor x="207" y="0" name="bottom"/>
  <anchor x="369" y="0" name="bottomright"/>
  <anchor x="208" y="551" name="top"/>
  <anchor x="364" y="551" name="topright"/>
  <outline>
    <contour>
      <point x="127" y="-7" type="curve" smooth="yes"/>
      <point x="178" y="-7"/>
      <point x="207" y="31"/>
      <point x="207" y="93" type="curve" smooth="yes"/>
      <point x="207" y="153"/>
      <point x="176" y="190"/>
      <point x="127" y="190" type="curve" smooth="yes"/>
      <point x="75" y="190"/>
      <point x="58" y="144"/>
      <point x="58" y="93" type="curve"/>
      <point x="72" y="93" type="line"/>
      <point x="72" y="134"/>
      <point x="82" y="173"/>
      <point x="120" y="173" type="curve"/>
      <point x="120" y="199" type="line" smooth="yes"/>
      <point x="120" y="243"/>
      <point x="136" y="283"/>
      <point x="192" y="283" type="curve" smooth="yes"/>
      <point x="248" y="283"/>
      <point x="293" y="241"/>
      <point x="293" y="172" type="curve" smooth="yes"/>
      <point x="293" y="0" type="line"/>
      <point x="369" y="0" type="line"/>
      <point x="369" y="378" type="line" smooth="yes"/>
      <point x="369" y="503"/>
      <point x="312" y="561"/>
      <point x="199" y="561" type="curve" smooth="yes"/>
      <point x="146" y="561"/>
      <point x="90" y="542"/>
      <point x="47" y="512" type="curve"/>
      <point x="65" y="443" type="line"/>
      <point x="102" y="469"/>
      <point x="147" y="490"/>
      <point x="194" y="490" type="curve" smooth="yes"/>
      <point x="283" y="490"/>
      <point x="293" y="436"/>
      <point x="293" y="369" type="curve" smooth="yes"/>
      <point x="293" y="227" type="line"/>
      <point x="336" y="172" type="line"/>
      <point x="336" y="320"/>
      <point x="259" y="354"/>
      <point x="186" y="354" type="curve" smooth="yes"/>
      <point x="108" y="354"/>
      <point x="44" y="307"/>
      <point x="44" y="198" type="curve" smooth="yes"/>
      <point x="44" y="103" type="line" smooth="yes"/>
      <point x="44" y="33"/>
      <point x="75" y="-7"/>
    </contour>
    <contour>
      <point x="127" y="37" type="curve" smooth="yes"/>
      <point x="103" y="37"/>
      <point x="92" y="60"/>
      <point x="92" y="92" type="curve" smooth="yes"/>
      <point x="92" y="124"/>
      <point x="103" y="146"/>
      <point x="127" y="146" type="curve" smooth="yes"/>
      <point x="151" y="146"/>
      <point x="161" y="123"/>
      <point x="161" y="92" type="curve" smooth="yes"/>
      <point x="161" y="60"/>
      <point x="151" y="37"/>
    </contour>
    <contour>
      <point x="282" y="316" type="line"/>
      <point x="282" y="305" type="line"/>
      <point x="301" y="305" type="line"/>
      <point x="301" y="316" type="line"/>
    </contour>
  </outline>
</glyph>
<glyph name="woWaen-thai" format="2">
  <advance width="371"/>
  <unicode hex="0E27"/>
  <anchor x="157" y="0" name="bottom"/>
  <anchor x="305" y="0" name="bottomright"/>
  <anchor x="176" y="551" name="top"/>
  <anchor x="303" y="551" name="topright"/>
  <outline>
    <contour>
      <point x="308" y="381" type="line" smooth="yes"/>
      <point x="308" y="489"/>
      <point x="273" y="561"/>
      <point x="155" y="561" type="curve" smooth="yes"/>
      <point x="101" y="561"/>
      <point x="55" y="544"/>
      <point x="24" y="524" type="curve"/>
      <point x="45" y="455" type="line"/>
      <point x="75" y="474"/>
      <point x="108" y="490"/>
      <point x="149" y="490" type="curve" smooth="yes"/>
      <point x="217" y="490"/>
      <point x="232" y="444"/>
      <point x="232" y="372" type="curve" smooth="yes"/>
      <point x="232" y="174" type="line"/>
      <point x="270" y="174"/>
      <point x="280" y="134"/>
      <point x="280" y="93" type="curve"/>
      <point x="294" y="93" type="line"/>
      <point x="294" y="144"/>
      <point x="277" y="191"/>
      <point x="225" y="191" type="curve" smooth="yes"/>
      <point x="176" y="191"/>
      <point x="145" y="154"/>
      <point x="145" y="93" type="curve" smooth="yes"/>
      <point x="145" y="31"/>
      <point x="174" y="-7"/>
      <point x="225" y="-7" type="curve" smooth="yes"/>
      <point x="277" y="-7"/>
      <point x="308" y="33"/>
      <point x="308" y="103" type="curve" smooth="yes"/>
    </contour>
    <contour>
      <point x="225" y="147" type="curve" smooth="yes"/>
      <point x="249" y="147"/>
      <point x="260" y="125"/>
      <point x="260" y="92" type="curve" smooth="yes"/>
      <point x="260" y="60"/>
      <point x="249" y="37"/>
      <point x="225" y="37" type="curve" smooth="yes"/>
      <point x="201" y="37"/>
      <point x="191" y="60"/>
      <point x="191" y="92" type="curve" smooth="yes"/>
      <point x="191" y="124"/>
      <point x="201" y="147"/>
    </contour>
  </outline>
</glyph>
<glyph name="soSala-thai" format="2">
  <advance width="493"/>
  <unicode hex="0E28"/>
  <anchor x="238" y="0" name="bottom"/>
  <anchor x="411" y="0" name="bottomright"/>
  <anchor x="227" y="551" name="top"/>
  <anchor x="411" y="551" name="topright"/>
  <outline>
    <contour>
      <point x="65" y="0" type="line"/>
      <point x="141" y="0" type="line"/>
      <point x="141" y="65" type="line" smooth="yes"/>
      <point x="141" y="147"/>
      <point x="141" y="209"/>
      <point x="173" y="229" type="curve"/>
      <point x="169" y="303" type="line"/>
      <point x="160" y="290"/>
      <point x="156" y="272"/>
      <point x="156" y="259" type="curve" smooth="yes"/>
      <point x="156" y="194"/>
      <point x="195" y="160"/>
      <point x="233" y="160" type="curve" smooth="yes"/>
      <point x="279" y="160"/>
      <point x="311" y="199"/>
      <point x="311" y="259" type="curve" smooth="yes"/>
      <point x="311" y="320"/>
      <point x="279" y="358"/>
      <point x="231" y="358" type="curve" smooth="yes"/>
      <point x="160" y="358"/>
      <point x="102" y="261"/>
      <point x="102" y="147" type="curve"/>
      <point x="130" y="147" type="line"/>
      <point x="130" y="219"/>
      <point x="119" y="251"/>
      <point x="119" y="345" type="curve" smooth="yes"/>
      <point x="119" y="445"/>
      <point x="157" y="490"/>
      <point x="233" y="490" type="curve" smooth="yes"/>
      <point x="293" y="490"/>
      <point x="335" y="455"/>
      <point x="335" y="360" type="curve" smooth="yes"/>
      <point x="335" y="0" type="line"/>
      <point x="411" y="0" type="line"/>
      <point x="411" y="369" type="line" smooth="yes"/>
      <point x="411" y="420"/>
      <point x="398" y="460"/>
      <point x="377" y="490" type="curve"/>
      <point x="360" y="504" type="line"/>
      <point x="360" y="483"/>
      <point x="394" y="473"/>
      <point x="416" y="473" type="curve" smooth="yes"/>
      <point x="435" y="473"/>
      <point x="452" y="477"/>
      <point x="465" y="484" type="curve"/>
      <point x="448" y="573" type="line"/>
      <point x="420" y="553"/>
      <point x="393" y="543"/>
      <point x="359" y="543" type="curve" smooth="yes"/>
      <point x="326" y="543"/>
      <point x="297" y="561"/>
      <point x="233" y="561" type="curve" smooth="yes"/>
      <point x="115" y="561"/>
      <point x="43" y="494"/>
      <point x="43" y="350" type="curve" smooth="yes"/>
      <point x="43" y="236"/>
      <point x="65" y="178"/>
      <point x="65" y="81" type="curve" smooth="yes"/>
    </contour>
    <contour>
      <point x="232" y="204" type="curve" smooth="yes"/>
      <point x="209" y="204"/>
      <point x="199" y="228"/>
      <point x="199" y="259" type="curve" smooth="yes"/>
      <point x="199" y="289"/>
      <point x="209" y="314"/>
      <point x="232" y="314" type="curve" smooth="yes"/>
      <point x="255" y="314"/>
      <point x="265" y="289"/>
      <point x="265" y="259" type="curve" smooth="yes"/>
      <point x="265" y="229"/>
      <point x="255" y="204"/>
    </contour>
    <contour>
      <point x="117" y="263" type="line"/>
      <point x="117" y="255" type="line"/>
      <point x="130" y="255" type="line"/>
      <point x="130" y="263" type="line"/>
    </contour>
    <contour>
      <point x="382" y="487" type="line"/>
      <point x="376" y="469" type="line"/>
      <point x="383" y="469" type="line"/>
      <point x="389" y="487" type="line"/>
    </contour>
  </outline>
</glyph>
<glyph name="soRusi-thai" format="2">
  <advance width="543"/>
  <unicode hex="0E29"/>
  <anchor x="283" y="0" name="bottom"/>
  <anchor x="438" y="0" name="bottomright"/>
  <anchor x="273" y="551" name="top"/>
  <anchor x="443" y="551" name="topright"/>
  <outline>
    <contour>
      <point x="199" y="32" type="line"/>
      <point x="199" y="448" type="line" smooth="yes"/>
      <point x="199" y="518"/>
      <point x="168" y="558"/>
      <point x="116" y="558" type="curve" smooth="yes"/>
      <point x="65" y="558"/>
      <point x="36" y="520"/>
      <point x="36" y="458" type="curve" smooth="yes"/>
      <point x="36" y="397"/>
      <point x="67" y="360"/>
      <point x="116" y="360" type="curve" smooth="yes"/>
      <point x="168" y="360"/>
      <point x="185" y="407"/>
      <point x="185" y="458" type="curve"/>
      <point x="171" y="458" type="line"/>
      <point x="171" y="417"/>
      <point x="161" y="377"/>
      <point x="123" y="377" type="curve"/>
      <point x="123" y="0" type="line"/>
      <point x="317" y="0" type="line" smooth="yes"/>
      <point x="416" y="0"/>
      <point x="443" y="45"/>
      <point x="443" y="144" type="curve" smooth="yes"/>
      <point x="443" y="551" type="line"/>
      <point x="367" y="551" type="line"/>
      <point x="367" y="149" type="line"/>
      <point x="367" y="83"/>
      <point x="350" y="71"/>
      <point x="305" y="71" type="curve" smooth="yes"/>
      <point x="159" y="71" type="line"/>
    </contour>
    <contour>
      <point x="116" y="404" type="curve" smooth="yes"/>
      <point x="92" y="404"/>
      <point x="82" y="427"/>
      <point x="82" y="459" type="curve" smooth="yes"/>
      <point x="82" y="491"/>
      <point x="92" y="514"/>
      <point x="116" y="514" type="curve" smooth="yes"/>
      <point x="140" y="514"/>
      <point x="151" y="491"/>
      <point x="151" y="459" type="curve" smooth="yes"/>
      <point x="151" y="426"/>
      <point x="140" y="404"/>
    </contour>
    <contour>
      <point x="349" y="200" type="curve" smooth="yes"/>
      <point x="433" y="200"/>
      <point x="505" y="260"/>
      <point x="540" y="340" type="curve"/>
      <point x="494" y="385" type="line"/>
      <point x="459" y="312"/>
      <point x="408" y="267"/>
      <point x="357" y="267" type="curve" smooth="yes"/>
      <point x="347" y="267"/>
      <point x="337" y="268"/>
      <point x="324" y="273" type="curve"/>
      <point x="302" y="241" type="line"/>
      <point x="330" y="241"/>
      <point x="348" y="286"/>
      <point x="348" y="320" type="curve" smooth="yes"/>
      <point x="348" y="369"/>
      <point x="321" y="402"/>
      <point x="281" y="402" type="curve" smooth="yes"/>
      <point x="236" y="402"/>
      <point x="212" y="364"/>
      <point x="212" y="318" type="curve" smooth="yes"/>
      <point x="212" y="247"/>
      <point x="271" y="200"/>
    </contour>
    <contour>
      <point x="281" y="279" type="curve" smooth="yes"/>
      <point x="264" y="279"/>
      <point x="256" y="295"/>
      <point x="256" y="320" type="curve" smooth="yes"/>
      <point x="256" y="345"/>
      <point x="264" y="362"/>
      <point x="281" y="362" type="curve" smooth="yes"/>
      <point x="298" y="362"/>
      <point x="307" y="345"/>
      <point x="307" y="320" type="curve" smooth="yes"/>
      <point x="307" y="295"/>
      <point x="298" y="279"/>
    </contour>
  </outline>
</glyph>
<glyph name="soSua-thai" format="2">
  <advance width="458"/>
  <unicode hex="0E2A"/>
  <note>
uni0E2A
</note>
  <anchor x="207" y="0" name="bottom"/>
  <anchor x="369" y="0" name="bottomright"/>
  <anchor x="208" y="551" name="top"/>
  <anchor x="369" y="551" name="topright"/>
  <outline>
    <contour>
      <point x="127" y="-7" type="curve" smooth="yes"/>
      <point x="178" y="-7"/>
      <point x="207" y="31"/>
      <point x="207" y="93" type="curve" smooth="yes"/>
      <point x="207" y="153"/>
      <point x="176" y="190"/>
      <point x="127" y="190" type="curve" smooth="yes"/>
      <point x="75" y="190"/>
      <point x="58" y="144"/>
      <point x="58" y="93" type="curve"/>
      <point x="72" y="93" type="line"/>
      <point x="72" y="134"/>
      <point x="82" y="173"/>
      <point x="120" y="173" type="curve"/>
      <point x="120" y="199" type="line" smooth="yes"/>
      <point x="120" y="244"/>
      <point x="136" y="283"/>
      <point x="192" y="283" type="curve" smooth="yes"/>
      <point x="248" y="283"/>
      <point x="293" y="241"/>
      <point x="293" y="172" type="curve" smooth="yes"/>
      <point x="293" y="0" type="line"/>
      <point x="369" y="0" type="line"/>
      <point x="369" y="378" type="line" smooth="yes"/>
      <point x="369" y="427"/>
      <point x="360" y="466"/>
      <point x="343" y="495" type="curve"/>
      <point x="316" y="510" type="line"/>
      <point x="316" y="482"/>
      <point x="360" y="473"/>
      <point x="382" y="473" type="curve" smooth="yes"/>
      <point x="400" y="473"/>
      <point x="417" y="477"/>
      <point x="431" y="484" type="curve"/>
      <point x="413" y="573" type="line"/>
      <point x="386" y="553"/>
      <point x="353" y="543"/>
      <point x="321" y="543" type="curve" smooth="yes"/>
      <point x="287" y="543"/>
      <point x="259" y="561"/>
      <point x="199" y="561" type="curve" smooth="yes"/>
      <point x="146" y="561"/>
      <point x="90" y="542"/>
      <point x="47" y="512" type="curve"/>
      <point x="65" y="443" type="line"/>
      <point x="102" y="469"/>
      <point x="147" y="490"/>
      <point x="194" y="490" type="curve" smooth="yes"/>
      <point x="283" y="490"/>
      <point x="293" y="436"/>
      <point x="293" y="369" type="curve" smooth="yes"/>
      <point x="293" y="227" type="line"/>
      <point x="336" y="172" type="line"/>
      <point x="336" y="320"/>
      <point x="259" y="354"/>
      <point x="186" y="354" type="curve" smooth="yes"/>
      <point x="108" y="354"/>
      <point x="44" y="307"/>
      <point x="44" y="198" type="curve" smooth="yes"/>
      <point x="44" y="103" type="line" smooth="yes"/>
      <point x="44" y="33"/>
      <point x="75" y="-7"/>
    </contour>
    <contour>
      <point x="127" y="37" type="curve" smooth="yes"/>
      <point x="103" y="37"/>
      <point x="92" y="60"/>
      <point x="92" y="92" type="curve" smooth="yes"/>
      <point x="92" y="124"/>
      <point x="103" y="146"/>
      <point x="127" y="146" type="curve" smooth="yes"/>
      <point x="151" y="146"/>
      <point x="161" y="123"/>
      <point x="161" y="92" type="curve" smooth="yes"/>
      <point x="161" y="60"/>
      <point x="151" y="37"/>
    </contour>
    <contour>
      <point x="282" y="316" type="line"/>
      <point x="282" y="305" type="line"/>
      <point x="301" y="305" type="line"/>
      <point x="301" y="316" type="line"/>
    </contour>
    <contour>
      <point x="350" y="487" type="line"/>
      <point x="344" y="469" type="line"/>
      <point x="351" y="469" type="line"/>
      <point x="357" y="487" type="line"/>
    </contour>
  </outline>
</glyph>
<glyph name="hoHip-thai" format="2">
  <advance width="482"/>
  <unicode hex="0E2B"/>
  <note>
uni0E2B
</note>
  <anchor x="268" y="0" name="bottom"/>
  <anchor x="423" y="0" name="bottomright"/>
  <anchor x="258" y="551" name="top"/>
  <anchor x="423" y="551" name="topright"/>
  <outline>
    <contour>
      <point x="181" y="227" type="line"/>
      <point x="181" y="216" type="line"/>
      <point x="198" y="216" type="line"/>
      <point x="198" y="227" type="line"/>
    </contour>
    <contour>
      <point x="188" y="270" type="curve" smooth="yes"/>
      <point x="188" y="448" type="line" smooth="yes"/>
      <point x="188" y="518"/>
      <point x="157" y="558"/>
      <point x="105" y="558" type="curve" smooth="yes"/>
      <point x="54" y="558"/>
      <point x="25" y="520"/>
      <point x="25" y="458" type="curve" smooth="yes"/>
      <point x="25" y="397"/>
      <point x="56" y="360"/>
      <point x="105" y="360" type="curve" smooth="yes"/>
      <point x="157" y="360"/>
      <point x="174" y="407"/>
      <point x="174" y="458" type="curve"/>
      <point x="160" y="458" type="line"/>
      <point x="160" y="417"/>
      <point x="150" y="377"/>
      <point x="112" y="377" type="curve"/>
      <point x="112" y="0" type="line"/>
      <point x="183" y="0" type="line"/>
      <point x="226" y="230"/>
      <point x="291" y="325"/>
      <point x="325" y="325" type="curve" smooth="yes"/>
      <point x="342" y="325"/>
      <point x="347" y="310"/>
      <point x="347" y="291" type="curve" smooth="yes"/>
      <point x="347" y="0" type="line"/>
      <point x="423" y="0" type="line"/>
      <point x="423" y="294" type="line" smooth="yes"/>
      <point x="423" y="336"/>
      <point x="404" y="386"/>
      <point x="356" y="386" type="curve"/>
      <point x="356" y="364" type="line"/>
      <point x="392" y="364"/>
      <point x="430" y="420"/>
      <point x="430" y="464" type="curve" smooth="yes"/>
      <point x="430" y="525"/>
      <point x="395" y="558"/>
      <point x="346" y="558" type="curve" smooth="yes"/>
      <point x="297" y="558"/>
      <point x="263" y="525"/>
      <point x="263" y="464" type="curve" smooth="yes"/>
      <point x="263" y="422"/>
      <point x="296" y="368"/>
      <point x="334" y="368" type="curve"/>
      <point x="334" y="392" type="line"/>
      <point x="241" y="392"/>
      <point x="170" y="230"/>
      <point x="161" y="75" type="curve"/>
      <point x="175" y="75" type="line"/>
      <point x="181" y="138"/>
      <point x="188" y="214"/>
    </contour>
    <contour>
      <point x="105" y="404" type="curve" smooth="yes"/>
      <point x="81" y="404"/>
      <point x="71" y="427"/>
      <point x="71" y="459" type="curve" smooth="yes"/>
      <point x="71" y="491"/>
      <point x="81" y="514"/>
      <point x="105" y="514" type="curve" smooth="yes"/>
      <point x="129" y="514"/>
      <point x="140" y="491"/>
      <point x="140" y="459" type="curve" smooth="yes"/>
      <point x="140" y="426"/>
      <point x="129" y="404"/>
    </contour>
    <contour>
      <point x="312" y="464" type="curve" smooth="yes"/>
      <point x="312" y="490"/>
      <point x="321" y="512"/>
      <point x="346" y="512" type="curve" smooth="yes"/>
      <point x="371" y="512"/>
      <point x="381" y="490"/>
      <point x="381" y="464" type="curve" smooth="yes"/>
      <point x="381" y="438"/>
      <point x="366" y="415"/>
      <point x="346" y="402" type="curve"/>
      <point x="326" y="415"/>
      <point x="312" y="438"/>
    </contour>
  </outline>
</glyph>
<glyph name="loChula-thai" format="2">
  <advance width="538"/>
  <unicode hex="0E2C"/>
  <anchor x="291" y="0" name="bottom"/>
  <anchor x="469" y="0" name="bottomright"/>
  <outline>
    <contour>
      <point x="112" y="0" type="line"/>
      <point x="188" y="0" type="line"/>
      <point x="297" y="341" type="line"/>
      <point x="276" y="341" type="line"/>
      <point x="394" y="0" type="line"/>
      <point x="469" y="0" type="line"/>
      <point x="469" y="509" type="line" smooth="yes"/>
      <point x="469" y="525"/>
      <point x="469" y="548"/>
      <point x="467" y="566" type="curve"/>
      <point x="498" y="612"/>
      <point x="522" y="681"/>
      <point x="538" y="758" type="curve"/>
      <point x="470" y="777" type="line"/>
      <point x="461" y="716"/>
      <point x="445" y="660"/>
      <point x="431" y="622" type="curve"/>
      <point x="453" y="622" type="line"/>
      <point x="453" y="666"/>
      <point x="418" y="713"/>
      <point x="362" y="713" type="curve" smooth="yes"/>
      <point x="310" y="713"/>
      <point x="273" y="677"/>
      <point x="273" y="614" type="curve" smooth="yes"/>
      <point x="273" y="553"/>
      <point x="312" y="515"/>
      <point x="368" y="515" type="curve" smooth="yes"/>
      <point x="420" y="515"/>
      <point x="450" y="550"/>
      <point x="450" y="595" type="curve"/>
      <point x="396" y="562" type="line"/>
      <point x="396" y="257" type="line" smooth="yes"/>
      <point x="396" y="201"/>
      <point x="403" y="138"/>
      <point x="408" y="90" type="curve"/>
      <point x="424" y="90" type="line"/>
      <point x="302" y="446" type="line"/>
      <point x="272" y="446" type="line"/>
      <point x="162" y="89" type="line"/>
      <point x="179" y="89" type="line"/>
      <point x="182" y="138"/>
      <point x="185" y="204"/>
      <point x="185" y="257" type="curve" smooth="yes"/>
      <point x="185" y="448" type="line" smooth="yes"/>
      <point x="185" y="517"/>
      <point x="157" y="558"/>
      <point x="105" y="558" type="curve" smooth="yes"/>
      <point x="54" y="558"/>
      <point x="25" y="519"/>
      <point x="25" y="458" type="curve" smooth="yes"/>
      <point x="25" y="397"/>
      <point x="56" y="360"/>
      <point x="105" y="360" type="curve" smooth="yes"/>
      <point x="157" y="360"/>
      <point x="174" y="407"/>
      <point x="174" y="458" type="curve"/>
      <point x="160" y="458" type="line"/>
      <point x="160" y="417"/>
      <point x="150" y="377"/>
      <point x="112" y="377" type="curve"/>
    </contour>
    <contour>
      <point x="103" y="404" type="curve" smooth="yes"/>
      <point x="79" y="404"/>
      <point x="69" y="427"/>
      <point x="69" y="459" type="curve" smooth="yes"/>
      <point x="69" y="490"/>
      <point x="79" y="514"/>
      <point x="103" y="514" type="curve" smooth="yes"/>
      <point x="127" y="514"/>
      <point x="138" y="490"/>
      <point x="138" y="459" type="curve" smooth="yes"/>
      <point x="138" y="426"/>
      <point x="127" y="404"/>
    </contour>
    <contour>
      <point x="368" y="563" type="curve" smooth="yes"/>
      <point x="341" y="563"/>
      <point x="323" y="583"/>
      <point x="323" y="614" type="curve" smooth="yes"/>
      <point x="323" y="644"/>
      <point x="337" y="665"/>
      <point x="360" y="665" type="curve" smooth="yes"/>
      <point x="391" y="665"/>
      <point x="400" y="628"/>
      <point x="400" y="573" type="curve"/>
      <point x="390" y="566"/>
      <point x="381" y="563"/>
    </contour>
    <contour>
      <point x="171" y="171" type="line"/>
      <point x="171" y="151" type="line"/>
      <point x="205" y="151" type="line"/>
      <point x="205" y="171" type="line"/>
    </contour>
    <contour>
      <point x="269" y="324" type="line"/>
      <point x="269" y="304" type="line"/>
      <point x="303" y="304" type="line"/>
      <point x="303" y="324" type="line"/>
    </contour>
    <contour>
      <point x="380" y="171" type="line"/>
      <point x="380" y="151" type="line"/>
      <point x="414" y="151" type="line"/>
      <point x="414" y="171" type="line"/>
    </contour>
  </outline>
</glyph>
<glyph name="hoNokhuk-thai" format="2">
  <advance width="465"/>
  <unicode hex="0E2E"/>
  <anchor x="219" y="0" name="bottom"/>
  <anchor x="374" y="0" name="bottomright"/>
  <anchor x="219" y="551" name="top"/>
  <anchor x="379" y="551" name="topright"/>
  <outline>
    <contour>
      <point x="379" y="378" type="line" smooth="yes"/>
      <point x="379" y="434"/>
      <point x="364" y="474"/>
      <point x="339" y="507" type="curve"/>
      <point x="310" y="517" type="line"/>
      <point x="310" y="488"/>
      <point x="372" y="473"/>
      <point x="391" y="473" type="curve" smooth="yes"/>
      <point x="409" y="473"/>
      <point x="426" y="477"/>
      <point x="439" y="484" type="curve"/>
      <point x="422" y="573" type="line"/>
      <point x="394" y="553"/>
      <point x="362" y="543"/>
      <point x="330" y="543" type="curve" smooth="yes"/>
      <point x="295" y="543"/>
      <point x="268" y="561"/>
      <point x="211" y="561" type="curve" smooth="yes"/>
      <point x="157" y="561"/>
      <point x="102" y="542"/>
      <point x="58" y="512" type="curve"/>
      <point x="76" y="444" type="line"/>
      <point x="114" y="470"/>
      <point x="160" y="490"/>
      <point x="206" y="490" type="curve" smooth="yes"/>
      <point x="290" y="490"/>
      <point x="303" y="443"/>
      <point x="303" y="369" type="curve" smooth="yes"/>
      <point x="303" y="148" type="line" smooth="yes"/>
      <point x="303" y="82"/>
      <point x="286" y="71"/>
      <point x="241" y="71" type="curve" smooth="yes"/>
      <point x="134" y="71" type="line"/>
      <point x="134" y="201" type="line"/>
      <point x="96" y="201"/>
      <point x="86" y="241"/>
      <point x="86" y="282" type="curve"/>
      <point x="72" y="282" type="line"/>
      <point x="72" y="231"/>
      <point x="89" y="184"/>
      <point x="141" y="184" type="curve" smooth="yes"/>
      <point x="190" y="184"/>
      <point x="221" y="221"/>
      <point x="221" y="282" type="curve" smooth="yes"/>
      <point x="221" y="344"/>
      <point x="192" y="382"/>
      <point x="141" y="382" type="curve" smooth="yes"/>
      <point x="89" y="382"/>
      <point x="58" y="342"/>
      <point x="58" y="272" type="curve" smooth="yes"/>
      <point x="58" y="0" type="line"/>
      <point x="253" y="0" type="line" smooth="yes"/>
      <point x="352" y="0"/>
      <point x="379" y="48"/>
      <point x="379" y="147" type="curve" smooth="yes"/>
    </contour>
    <contour>
      <point x="141" y="228" type="curve" smooth="yes"/>
      <point x="117" y="228"/>
      <point x="106" y="250"/>
      <point x="106" y="283" type="curve" smooth="yes"/>
      <point x="106" y="315"/>
      <point x="117" y="338"/>
      <point x="141" y="338" type="curve" smooth="yes"/>
      <point x="165" y="338"/>
      <point x="175" y="315"/>
      <point x="175" y="283" type="curve" smooth="yes"/>
      <point x="175" y="251"/>
      <point x="165" y="228"/>
    </contour>
    <contour>
      <point x="355" y="487" type="line"/>
      <point x="349" y="469" type="line"/>
      <point x="356" y="469" type="line"/>
      <point x="362" y="487" type="line"/>
    </contour>
  </outline>
</glyph>
<glyph name="saraA-thai" format="2">
  <advance width="353"/>
  <unicode hex="0E30"/>
  <anchor x="237" y="0" name="bottomright"/>
  <anchor x="215" y="551" name="topright"/>
  <outline>
    <contour>
      <point x="157" y="336" type="curve" smooth="yes"/>
      <point x="240" y="336"/>
      <point x="291" y="382"/>
      <point x="325" y="467" type="curve"/>
      <point x="266" y="506" type="line"/>
      <point x="243" y="442"/>
      <point x="211" y="402"/>
      <point x="162" y="402" type="curve" smooth="yes"/>
      <point x="152" y="402"/>
      <point x="143" y="403"/>
      <point x="130" y="407" type="curve"/>
      <point x="145" y="381" type="line"/>
      <point x="168" y="397"/>
      <point x="178" y="431"/>
      <point x="178" y="457" type="curve" smooth="yes"/>
      <point x="178" y="508"/>
      <point x="144" y="541"/>
      <point x="103" y="541" type="curve" smooth="yes"/>
      <point x="58" y="541"/>
      <point x="29" y="503"/>
      <point x="29" y="452" type="curve" smooth="yes"/>
      <point x="29" y="381"/>
      <point x="81" y="336"/>
    </contour>
    <contour>
      <point x="103" y="409" type="curve" smooth="yes"/>
      <point x="85" y="409"/>
      <point x="75" y="426"/>
      <point x="75" y="452" type="curve" smooth="yes"/>
      <point x="75" y="479"/>
      <point x="85" y="497"/>
      <point x="103" y="497" type="curve" smooth="yes"/>
      <point x="122" y="497"/>
      <point x="132" y="479"/>
      <point x="132" y="452" type="curve" smooth="yes"/>
      <point x="132" y="426"/>
      <point x="122" y="409"/>
    </contour>
    <contour>
      <point x="157" y="36" type="curve" smooth="yes"/>
      <point x="238" y="36"/>
      <point x="290" y="80"/>
      <point x="325" y="167" type="curve"/>
      <point x="266" y="206" type="line"/>
      <point x="242" y="140"/>
      <point x="210" y="102"/>
      <point x="162" y="102" type="curve" smooth="yes"/>
      <point x="149" y="102"/>
      <point x="140" y="104"/>
      <point x="130" y="107" type="curve"/>
      <point x="145" y="81" type="line"/>
      <point x="170" y="99"/>
      <point x="178" y="134"/>
      <point x="178" y="157" type="curve" smooth="yes"/>
      <point x="178" y="208"/>
      <point x="144" y="241"/>
      <point x="103" y="241" type="curve" smooth="yes"/>
      <point x="58" y="241"/>
      <point x="29" y="203"/>
      <point x="29" y="152" type="curve" smooth="yes"/>
      <point x="29" y="81"/>
      <point x="81" y="36"/>
    </contour>
    <contour>
      <point x="103" y="109" type="curve" smooth="yes"/>
      <point x="85" y="109"/>
      <point x="75" y="126"/>
      <point x="75" y="152" type="curve" smooth="yes"/>
      <point x="75" y="179"/>
      <point x="85" y="197"/>
      <point x="103" y="197" type="curve" smooth="yes"/>
      <point x="122" y="197"/>
      <point x="132" y="179"/>
      <point x="132" y="152" type="curve" smooth="yes"/>
      <point x="132" y="126"/>
      <point x="122" y="109"/>
    </contour>
  </outline>
</glyph>
<glyph name="maiHanaKat-thai" format="2">
  <unicode hex="0E31"/>
  <anchor x="274" y="551" name="_topright"/>
  <anchor x="271" y="843" name="topright"/>
  <outline>
    <contour>
      <point x="192" y="635" type="curve" smooth="yes"/>
      <point x="278" y="635"/>
      <point x="336" y="685"/>
      <point x="367" y="765" type="curve"/>
      <point x="307" y="801" type="line"/>
      <point x="282" y="734"/>
      <point x="242" y="698"/>
      <point x="193" y="698" type="curve" smooth="yes"/>
      <point x="182" y="698"/>
      <point x="174" y="700"/>
      <point x="166" y="704" type="curve"/>
      <point x="163" y="673" type="line"/>
      <point x="186" y="687"/>
      <point x="202" y="721"/>
      <point x="202" y="758" type="curve" smooth="yes"/>
      <point x="202" y="819"/>
      <point x="169" y="848"/>
      <point x="127" y="848" type="curve" smooth="yes"/>
      <point x="80" y="848"/>
      <point x="50" y="814"/>
      <point x="50" y="755" type="curve" smooth="yes"/>
      <point x="50" y="680"/>
      <point x="105" y="635"/>
    </contour>
    <contour>
      <point x="127" y="709" type="curve" smooth="yes"/>
      <point x="108" y="709"/>
      <point x="96" y="727"/>
      <point x="96" y="758" type="curve" smooth="yes"/>
      <point x="96" y="789"/>
      <point x="108" y="808"/>
      <point x="127" y="808" type="curve" smooth="yes"/>
      <point x="145" y="808"/>
      <point x="158" y="789"/>
      <point x="158" y="758" type="curve" smooth="yes"/>
      <point x="158" y="727"/>
      <point x="145" y="709"/>
    </contour>
  </outline>
</glyph>
<glyph name="saraAa-thai" format="2">
  <advance width="360"/>
  <unicode hex="0E32"/>
  <anchor x="292" y="0" name="bottomright"/>
  <anchor x="287" y="551" name="topright"/>
  <outline>
    <contour>
      <point x="37" y="455" type="line"/>
      <point x="67" y="474"/>
      <point x="101" y="490"/>
      <point x="136" y="490" type="curve" smooth="yes"/>
      <point x="211" y="490"/>
      <point x="216" y="439"/>
      <point x="216" y="372" type="curve" smooth="yes"/>
      <point x="216" y="0" type="line"/>
      <point x="292" y="0" type="line"/>
      <point x="292" y="381" type="line" smooth="yes"/>
      <point x="292" y="494"/>
      <point x="253" y="561"/>
      <point x="142" y="561" type="curve" smooth="yes"/>
      <point x="92" y="561"/>
      <point x="46" y="543"/>
      <point x="15" y="523" type="curve"/>
    </contour>
  </outline>
</glyph>
<glyph name="saraI-thai" format="2">
  <unicode hex="0E34"/>
  <anchor x="373" y="551" name="_topright"/>
  <anchor x="373" y="829" name="topright"/>
  <outline>
    <contour>
      <point x="53" y="640" type="line"/>
      <point x="365" y="640" type="line"/>
      <point x="373" y="690" type="line"/>
      <point x="352" y="764"/>
      <point x="290" y="834"/>
      <point x="192" y="834" type="curve" smooth="yes"/>
      <point x="94" y="834"/>
      <point x="50" y="766"/>
      <point x="50" y="675" type="curve"/>
    </contour>
    <contour>
      <point x="124" y="695" type="line"/>
      <point x="124" y="737"/>
      <point x="143" y="776"/>
      <point x="192" y="776" type="curve" smooth="yes"/>
      <point x="247" y="776"/>
      <point x="283" y="736"/>
      <point x="295" y="695" type="curve"/>
    </contour>
  </outline>
</glyph>
<glyph name="saraIi-thai" format="2">
  <unicode hex="0E35"/>
  <anchor x="383" y="551" name="_topright"/>
  <anchor x="383" y="834" name="topright"/>
  <outline>
    <contour>
      <point x="53" y="640" type="line"/>
      <point x="383" y="640" type="line"/>
      <point x="383" y="834" type="line"/>
      <point x="312" y="834" type="line"/>
      <point x="312" y="693" type="line"/>
      <point x="341" y="704" type="line"/>
      <point x="308" y="779"/>
      <point x="246" y="834"/>
      <point x="179" y="834" type="curve" smooth="yes"/>
      <point x="83" y="834"/>
      <point x="50" y="766"/>
      <point x="50" y="675" type="curve"/>
    </contour>
    <contour>
      <point x="123" y="695" type="line"/>
      <point x="123" y="737"/>
      <point x="134" y="776"/>
      <point x="183" y="776" type="curve" smooth="yes"/>
      <point x="229" y="776"/>
      <point x="268" y="739"/>
      <point x="292" y="695" type="curve"/>
    </contour>
  </outline>
</glyph>
<glyph name="saraUe-thai" format="2">
  <unicode hex="0E36"/>
  <anchor x="419" y="551" name="_topright"/>
  <anchor x="431" y="840" name="topright"/>
  <outline>
    <contour>
      <point x="53" y="640" type="line"/>
      <point x="351" y="640" type="line" smooth="yes"/>
      <point x="406" y="640"/>
      <point x="434" y="682"/>
      <point x="434" y="742" type="curve" smooth="yes"/>
      <point x="434" y="802"/>
      <point x="406" y="845"/>
      <point x="354" y="845" type="curve" smooth="yes"/>
      <point x="307" y="845"/>
      <point x="274" y="803"/>
      <point x="274" y="748" type="curve"/>
      <point x="297" y="756" type="line"/>
      <point x="267" y="805"/>
      <point x="225" y="834"/>
      <point x="173" y="834" type="curve" smooth="yes"/>
      <point x="84" y="834"/>
      <point x="50" y="766"/>
      <point x="50" y="675" type="curve"/>
    </contour>
    <contour>
      <point x="123" y="695" type="line"/>
      <point x="123" y="737"/>
      <point x="134" y="776"/>
      <point x="176" y="776" type="curve" smooth="yes"/>
      <point x="218" y="776"/>
      <point x="254" y="739"/>
      <point x="272" y="695" type="curve"/>
    </contour>
    <contour>
      <point x="354" y="689" type="curve" smooth="yes"/>
      <point x="334" y="689"/>
      <point x="325" y="710"/>
      <point x="325" y="742" type="curve" smooth="yes"/>
      <point x="325" y="774"/>
      <point x="334" y="796"/>
      <point x="354" y="796" type="curve" smooth="yes"/>
      <point x="373" y="796"/>
      <point x="382" y="774"/>
      <point x="382" y="742" type="curve" smooth="yes"/>
      <point x="382" y="710"/>
      <point x="373" y="689"/>
    </contour>
  </outline>
</glyph>
<glyph name="saraUee-thai" format="2">
  <unicode hex="0E37"/>
  <anchor x="419" y="551" name="_topright"/>
  <anchor x="419" y="834" name="topright"/>
  <outline>
    <contour>
      <point x="53" y="640" type="line"/>
      <point x="419" y="640" type="line"/>
      <point x="419" y="834" type="line"/>
      <point x="360" y="834" type="line"/>
      <point x="360" y="697" type="line"/>
      <point x="337" y="697" type="line"/>
      <point x="337" y="834" type="line"/>
      <point x="278" y="834" type="line"/>
      <point x="278" y="739" type="line"/>
      <point x="295" y="758" type="line"/>
      <point x="266" y="802"/>
      <point x="220" y="834"/>
      <point x="173" y="834" type="curve" smooth="yes"/>
      <point x="85" y="834"/>
      <point x="50" y="766"/>
      <point x="50" y="675" type="curve"/>
    </contour>
    <contour>
      <point x="123" y="695" type="line"/>
      <point x="123" y="737"/>
      <point x="134" y="776"/>
      <point x="178" y="776" type="curve" smooth="yes"/>
      <point x="224" y="776"/>
      <point x="261" y="739"/>
      <point x="282" y="695" type="curve"/>
    </contour>
  </outline>
</glyph>
<glyph name="saraU-thai" format="2">
  <unicode hex="0E38"/>
  <anchor x="187" y="0" name="_bottomright"/>
  <anchor x="192" y="-312" name="bottomright"/>
  <outline>
    <contour>
      <point x="120" y="-312" type="line"/>
      <point x="192" y="-312" type="line"/>
      <point x="192" y="-143" type="line" smooth="yes"/>
      <point x="192" y="-86"/>
      <point x="160" y="-55"/>
      <point x="119" y="-55" type="curve" smooth="yes"/>
      <point x="80" y="-55"/>
      <point x="50" y="-86"/>
      <point x="50" y="-137" type="curve" smooth="yes"/>
      <point x="50" y="-187"/>
      <point x="80" y="-219"/>
      <point x="119" y="-219" type="curve" smooth="yes"/>
      <point x="159" y="-219"/>
      <point x="186" y="-188"/>
      <point x="186" y="-137" type="curve"/>
      <point x="173" y="-137" type="line"/>
      <point x="173" y="-167"/>
      <point x="157" y="-204"/>
      <point x="120" y="-204" type="curve"/>
    </contour>
    <contour>
      <point x="119" y="-180" type="curve" smooth="yes"/>
      <point x="101" y="-180"/>
      <point x="91" y="-164"/>
      <point x="91" y="-137" type="curve" smooth="yes"/>
      <point x="91" y="-110"/>
      <point x="101" y="-93"/>
      <point x="119" y="-93" type="curve" smooth="yes"/>
      <point x="137" y="-93"/>
      <point x="148" y="-110"/>
      <point x="148" y="-137" type="curve" smooth="yes"/>
      <point x="148" y="-164"/>
      <point x="137" y="-180"/>
    </contour>
  </outline>
</glyph>
<glyph name="saraUu-thai" format="2">
  <unicode hex="0E39"/>
  <anchor x="308" y="0" name="_bottomright"/>
  <anchor x="305" y="-302" name="bottomright"/>
  <outline>
    <contour>
      <point x="215" y="-302" type="curve" smooth="yes"/>
      <point x="278" y="-302"/>
      <point x="308" y="-258"/>
      <point x="308" y="-204" type="curve" smooth="yes"/>
      <point x="308" y="-60" type="line"/>
      <point x="238" y="-60" type="line"/>
      <point x="238" y="-205" type="line" smooth="yes"/>
      <point x="238" y="-231"/>
      <point x="230" y="-238"/>
      <point x="215" y="-238" type="curve" smooth="yes"/>
      <point x="199" y="-238"/>
      <point x="192" y="-231"/>
      <point x="192" y="-205" type="curve" smooth="yes"/>
      <point x="192" y="-143" type="line" smooth="yes"/>
      <point x="192" y="-86"/>
      <point x="160" y="-55"/>
      <point x="119" y="-55" type="curve" smooth="yes"/>
      <point x="80" y="-55"/>
      <point x="50" y="-86"/>
      <point x="50" y="-137" type="curve" smooth="yes"/>
      <point x="50" y="-187"/>
      <point x="80" y="-219"/>
      <point x="119" y="-219" type="curve" smooth="yes"/>
      <point x="167" y="-219"/>
      <point x="186" y="-177"/>
      <point x="186" y="-137" type="curve"/>
      <point x="167" y="-137" type="line"/>
      <point x="167" y="-170"/>
      <point x="155" y="-198"/>
      <point x="122" y="-198" type="curve"/>
      <point x="122" y="-209" type="line" smooth="yes"/>
      <point x="122" y="-258"/>
      <point x="151" y="-302"/>
    </contour>
    <contour>
      <point x="119" y="-180" type="curve" smooth="yes"/>
      <point x="101" y="-180"/>
      <point x="91" y="-164"/>
      <point x="91" y="-137" type="curve" smooth="yes"/>
      <point x="91" y="-110"/>
      <point x="101" y="-93"/>
      <point x="119" y="-93" type="curve" smooth="yes"/>
      <point x="137" y="-93"/>
      <point x="148" y="-110"/>
      <point x="148" y="-137" type="curve" smooth="yes"/>
      <point x="148" y="-164"/>
      <point x="137" y="-180"/>
    </contour>
  </outline>
</glyph>
<glyph name="phinthu-thai" format="2">
  <unicode hex="0E3A"/>
  <anchor x="165" y="0" name="_bottomright"/>
  <anchor x="165" y="-210" name="bottomright"/>
  <outline>
    <contour>
      <point x="110" y="-210" type="curve" smooth="yes"/>
      <point x="143" y="-210"/>
      <point x="169" y="-176"/>
      <point x="169" y="-133" type="curve" smooth="yes"/>
      <point x="169" y="-89"/>
      <point x="143" y="-55"/>
      <point x="110" y="-55" type="curve" smooth="yes"/>
      <point x="77" y="-55"/>
      <point x="50" y="-89"/>
      <point x="50" y="-133" type="curve" smooth="yes"/>
      <point x="50" y="-176"/>
      <point x="77" y="-210"/>
    </contour>
  </outline>
</glyph>
<glyph name="saraE-thai" format="2">
  <advance width="243"/>
  <unicode hex="0E40"/>
  <anchor x="190" y="0" name="bottomright"/>
  <anchor x="159" y="551" name="topright"/>
  <outline>
    <contour>
      <point x="129" y="551" type="line"/>
      <point x="53" y="551" type="line"/>
      <point x="53" y="103" type="line" smooth="yes"/>
      <point x="53" y="33"/>
      <point x="84" y="-7"/>
      <point x="136" y="-7" type="curve" smooth="yes"/>
      <point x="187" y="-7"/>
      <point x="216" y="31"/>
      <point x="216" y="93" type="curve" smooth="yes"/>
      <point x="216" y="154"/>
      <point x="185" y="191"/>
      <point x="136" y="191" type="curve" smooth="yes"/>
      <point x="84" y="191"/>
      <point x="67" y="144"/>
      <point x="67" y="93" type="curve"/>
      <point x="81" y="93" type="line"/>
      <point x="81" y="134"/>
      <point x="91" y="174"/>
      <point x="129" y="174" type="curve"/>
    </contour>
    <contour>
      <point x="136" y="147" type="curve" smooth="yes"/>
      <point x="160" y="147"/>
      <point x="170" y="124"/>
      <point x="170" y="92" type="curve" smooth="yes"/>
      <point x="170" y="60"/>
      <point x="160" y="37"/>
      <point x="136" y="37" type="curve" smooth="yes"/>
      <point x="112" y="37"/>
      <point x="101" y="60"/>
      <point x="101" y="92" type="curve" smooth="yes"/>
      <point x="101" y="125"/>
      <point x="112" y="147"/>
    </contour>
  </outline>
</glyph>
<glyph name="saraAe-thai" format="2">
  <advance width="458"/>
  <unicode hex="0E41"/>
  <anchor x="298" y="0" name="bottomright"/>
  <anchor x="238" y="551" name="topright"/>
  <outline>
    <contour>
      <point x="136" y="-7" type="curve" smooth="yes"/>
      <point x="187" y="-7"/>
      <point x="216" y="31"/>
      <point x="216" y="93" type="curve" smooth="yes"/>
      <point x="216" y="154"/>
      <point x="185" y="191"/>
      <point x="136" y="191" type="curve" smooth="yes"/>
      <point x="84" y="191"/>
      <point x="67" y="144"/>
      <point x="67" y="93" type="curve"/>
      <point x="81" y="93" type="line"/>
      <point x="81" y="134"/>
      <point x="91" y="174"/>
      <point x="129" y="174" type="curve"/>
      <point x="129" y="551" type="line"/>
      <point x="53" y="551" type="line"/>
      <point x="53" y="103" type="line"/>
      <point x="53" y="33"/>
      <point x="84" y="-7"/>
    </contour>
    <contour>
      <point x="136" y="37" type="curve" smooth="yes"/>
      <point x="112" y="37"/>
      <point x="101" y="60"/>
      <point x="101" y="92" type="curve" smooth="yes"/>
      <point x="101" y="125"/>
      <point x="112" y="147"/>
      <point x="136" y="147" type="curve" smooth="yes"/>
      <point x="160" y="147"/>
      <point x="170" y="124"/>
      <point x="170" y="92" type="curve" smooth="yes"/>
      <point x="170" y="60"/>
      <point x="160" y="37"/>
    </contour>
    <contour>
      <point x="351" y="-7" type="curve" smooth="yes"/>
      <point x="402" y="-7"/>
      <point x="431" y="31"/>
      <point x="431" y="93" type="curve" smooth="yes"/>
      <point x="431" y="154"/>
      <point x="400" y="191"/>
      <point x="351" y="191" type="curve" smooth="yes"/>
      <point x="299" y="191"/>
      <point x="282" y="144"/>
      <point x="282" y="93" type="curve"/>
      <point x="296" y="93" type="line"/>
      <point x="296" y="134"/>
      <point x="306" y="174"/>
      <point x="344" y="174" type="curve"/>
      <point x="344" y="551" type="line"/>
      <point x="268" y="551" type="line"/>
      <point x="268" y="103" type="line"/>
      <point x="268" y="33"/>
      <point x="299" y="-7"/>
    </contour>
    <contour>
      <point x="351" y="37" type="curve" smooth="yes"/>
      <point x="327" y="37"/>
      <point x="316" y="60"/>
      <point x="316" y="92" type="curve" smooth="yes"/>
      <point x="316" y="125"/>
      <point x="327" y="147"/>
      <point x="351" y="147" type="curve" smooth="yes"/>
      <point x="375" y="147"/>
      <point x="385" y="124"/>
      <point x="385" y="92" type="curve" smooth="yes"/>
      <point x="385" y="60"/>
      <point x="375" y="37"/>
    </contour>
  </outline>
</glyph>
<glyph name="saraO-thai" format="2">
  <advance width="310"/>
  <unicode hex="0E42"/>
  <anchor x="271" y="0" name="bottomright"/>
  <anchor x="244" y="910" name="topright"/>
  <outline>
    <contour>
      <point x="284" y="910" type="line"/>
      <point x="266" y="905"/>
      <point x="257" y="904"/>
      <point x="237" y="904" type="curve" smooth="yes"/>
      <point x="201" y="904"/>
      <point x="170" y="917"/>
      <point x="128" y="917" type="curve" smooth="yes"/>
      <point x="65" y="917"/>
      <point x="5" y="887"/>
      <point x="5" y="763" type="curve" smooth="yes"/>
      <point x="5" y="699" type="line"/>
      <point x="104" y="699"/>
      <point x="134" y="675"/>
      <point x="134" y="603" type="curve" smooth="yes"/>
      <point x="134" y="103" type="line" smooth="yes"/>
      <point x="134" y="33"/>
      <point x="165" y="-7"/>
      <point x="217" y="-7" type="curve" smooth="yes"/>
      <point x="268" y="-7"/>
      <point x="297" y="31"/>
      <point x="297" y="93" type="curve" smooth="yes"/>
      <point x="297" y="154"/>
      <point x="266" y="191"/>
      <point x="217" y="191" type="curve" smooth="yes"/>
      <point x="165" y="191"/>
      <point x="148" y="144"/>
      <point x="148" y="93" type="curve"/>
      <point x="162" y="93" type="line"/>
      <point x="162" y="134"/>
      <point x="172" y="174"/>
      <point x="210" y="174" type="curve"/>
      <point x="210" y="600" type="line" smooth="yes"/>
      <point x="210" y="703"/>
      <point x="169" y="740"/>
      <point x="81" y="757" type="curve"/>
      <point x="81" y="770" type="line" smooth="yes"/>
      <point x="81" y="817"/>
      <point x="93" y="846"/>
      <point x="133" y="846" type="curve" smooth="yes"/>
      <point x="168" y="846"/>
      <point x="203" y="833"/>
      <point x="239" y="833" type="curve" smooth="yes"/>
      <point x="261" y="833"/>
      <point x="276" y="835"/>
      <point x="291" y="839" type="curve"/>
    </contour>
    <contour>
      <point x="217" y="147" type="curve" smooth="yes"/>
      <point x="241" y="147"/>
      <point x="251" y="124"/>
      <point x="251" y="92" type="curve" smooth="yes"/>
      <point x="251" y="60"/>
      <point x="241" y="37"/>
      <point x="217" y="37" type="curve" smooth="yes"/>
      <point x="193" y="37"/>
      <point x="182" y="60"/>
      <point x="182" y="92" type="curve" smooth="yes"/>
      <point x="182" y="125"/>
      <point x="193" y="147"/>
    </contour>
  </outline>
</glyph>
<glyph name="saraAiMaimuan-thai" format="2">
  <advance width="300"/>
  <unicode hex="0E43"/>
  <anchor x="241" y="0" name="bottomright"/>
  <anchor x="225" y="910" name="topright"/>
  <outline>
    <contour>
      <point x="140" y="920" type="curve" smooth="yes"/>
      <point x="58" y="920"/>
      <point x="4" y="850"/>
      <point x="4" y="753" type="curve" smooth="yes"/>
      <point x="4" y="691"/>
      <point x="30" y="649"/>
      <point x="78" y="649" type="curve" smooth="yes"/>
      <point x="121" y="649"/>
      <point x="149" y="690"/>
      <point x="149" y="742" type="curve" smooth="yes"/>
      <point x="149" y="792"/>
      <point x="122" y="833"/>
      <point x="79" y="833" type="curve" smooth="yes"/>
      <point x="71" y="833"/>
      <point x="62" y="831"/>
      <point x="54" y="827" type="curve"/>
      <point x="87" y="794" type="line"/>
      <point x="87" y="829"/>
      <point x="110" y="849"/>
      <point x="138" y="849" type="curve" smooth="yes"/>
      <point x="181" y="849"/>
      <point x="197" y="811"/>
      <point x="197" y="750" type="curve" smooth="yes"/>
      <point x="197" y="665"/>
      <point x="166" y="627"/>
      <point x="104" y="584" type="curve"/>
      <point x="104" y="103" type="line" smooth="yes"/>
      <point x="104" y="33"/>
      <point x="135" y="-7"/>
      <point x="187" y="-7" type="curve" smooth="yes"/>
      <point x="238" y="-7"/>
      <point x="267" y="31"/>
      <point x="267" y="93" type="curve" smooth="yes"/>
      <point x="267" y="154"/>
      <point x="236" y="191"/>
      <point x="187" y="191" type="curve" smooth="yes"/>
      <point x="135" y="191"/>
      <point x="118" y="144"/>
      <point x="118" y="93" type="curve"/>
      <point x="132" y="93" type="line"/>
      <point x="132" y="134"/>
      <point x="142" y="174"/>
      <point x="180" y="174" type="curve"/>
      <point x="180" y="545" type="line"/>
      <point x="238" y="594"/>
      <point x="273" y="655"/>
      <point x="273" y="753" type="curve" smooth="yes"/>
      <point x="273" y="851"/>
      <point x="227" y="920"/>
    </contour>
    <contour>
      <point x="187" y="147" type="curve" smooth="yes"/>
      <point x="211" y="147"/>
      <point x="221" y="124"/>
      <point x="221" y="92" type="curve" smooth="yes"/>
      <point x="221" y="60"/>
      <point x="211" y="37"/>
      <point x="187" y="37" type="curve" smooth="yes"/>
      <point x="163" y="37"/>
      <point x="152" y="60"/>
      <point x="152" y="92" type="curve" smooth="yes"/>
      <point x="152" y="125"/>
      <point x="163" y="147"/>
    </contour>
    <contour>
      <point x="77" y="693" type="curve" smooth="yes"/>
      <point x="57" y="693"/>
      <point x="50" y="715"/>
      <point x="50" y="741" type="curve" smooth="yes"/>
      <point x="50" y="767"/>
      <point x="57" y="788"/>
      <point x="77" y="788" type="curve" smooth="yes"/>
      <point x="95" y="788"/>
      <point x="103" y="767"/>
      <point x="103" y="741" type="curve" smooth="yes"/>
      <point x="103" y="715"/>
      <point x="95" y="693"/>
    </contour>
  </outline>
</glyph>
<glyph name="saraAiMaimalai-thai" format="2">
  <advance width="299"/>
  <unicode hex="0E44"/>
  <anchor x="233" y="0" name="bottomright"/>
  <anchor x="234" y="910" name="topright"/>
  <outline>
    <contour>
      <point x="281" y="743" type="curve" smooth="yes"/>
      <point x="281" y="856"/>
      <point x="225" y="917"/>
      <point x="152" y="917" type="curve"/>
      <point x="80" y="773" type="line"/>
      <point x="101" y="773" type="line"/>
      <point x="89" y="823"/>
      <point x="73" y="863"/>
      <point x="40" y="917" type="curve"/>
      <point x="-23" y="871" type="line"/>
      <point x="14" y="826"/>
      <point x="41" y="775"/>
      <point x="63" y="712" type="curve"/>
      <point x="115" y="712" type="line"/>
      <point x="208" y="884" type="line"/>
      <point x="138" y="846" type="line"/>
      <point x="179" y="846"/>
      <point x="205" y="814"/>
      <point x="205" y="738" type="curve" smooth="yes"/>
      <point x="205" y="667"/>
      <point x="165" y="611"/>
      <point x="96" y="577" type="curve"/>
      <point x="96" y="103" type="line" smooth="yes"/>
      <point x="96" y="33"/>
      <point x="127" y="-7"/>
      <point x="179" y="-7" type="curve" smooth="yes"/>
      <point x="230" y="-7"/>
      <point x="259" y="31"/>
      <point x="259" y="93" type="curve" smooth="yes"/>
      <point x="259" y="154"/>
      <point x="228" y="191"/>
      <point x="179" y="191" type="curve" smooth="yes"/>
      <point x="127" y="191"/>
      <point x="110" y="144"/>
      <point x="110" y="93" type="curve"/>
      <point x="124" y="93" type="line"/>
      <point x="124" y="134"/>
      <point x="134" y="174"/>
      <point x="172" y="174" type="curve"/>
      <point x="172" y="540" type="line"/>
      <point x="248" y="588"/>
      <point x="281" y="656"/>
    </contour>
    <contour>
      <point x="179" y="147" type="curve" smooth="yes"/>
      <point x="203" y="147"/>
      <point x="213" y="124"/>
      <point x="213" y="92" type="curve" smooth="yes"/>
      <point x="213" y="60"/>
      <point x="203" y="37"/>
      <point x="179" y="37" type="curve" smooth="yes"/>
      <point x="155" y="37"/>
      <point x="144" y="60"/>
      <point x="144" y="92" type="curve" smooth="yes"/>
      <point x="144" y="125"/>
      <point x="155" y="147"/>
    </contour>
    <contour>
      <point x="82" y="804" type="line"/>
      <point x="82" y="792" type="line"/>
      <point x="111" y="792" type="line"/>
      <point x="111" y="804" type="line"/>
    </contour>
  </outline>
</glyph>
<glyph name="maiyamok-thai" format="2">
  <advance width="420"/>
  <unicode hex="0E46"/>
  <outline>
    <contour>
      <point x="285" y="-108" type="line"/>
      <point x="348" y="-23"/>
      <point x="356" y="46"/>
      <point x="356" y="142" type="curve" smooth="yes"/>
      <point x="356" y="427" type="line" smooth="yes"/>
      <point x="356" y="497"/>
      <point x="328" y="539"/>
      <point x="277" y="561" type="curve"/>
      <point x="201" y="484" type="line"/>
      <point x="113" y="561" type="line"/>
      <point x="53" y="507"/>
      <point x="30" y="446"/>
      <point x="30" y="355" type="curve" smooth="yes"/>
      <point x="30" y="275"/>
      <point x="62" y="228"/>
      <point x="111" y="228" type="curve" smooth="yes"/>
      <point x="159" y="228"/>
      <point x="189" y="265"/>
      <point x="189" y="327" type="curve" smooth="yes"/>
      <point x="189" y="393"/>
      <point x="158" y="425"/>
      <point x="111" y="425" type="curve" smooth="yes"/>
      <point x="72" y="425"/>
      <point x="43" y="394"/>
      <point x="43" y="327" type="curve"/>
      <point x="108" y="408" type="line"/>
      <point x="108" y="438"/>
      <point x="119" y="460"/>
      <point x="135" y="475" type="curve"/>
      <point x="198" y="421" type="line"/>
      <point x="204" y="421" type="line"/>
      <point x="259" y="475" type="line"/>
      <point x="275" y="464"/>
      <point x="282" y="444"/>
      <point x="282" y="412" type="curve" smooth="yes"/>
      <point x="282" y="147" type="line" smooth="yes"/>
      <point x="282" y="59"/>
      <point x="272" y="5"/>
      <point x="222" y="-62" type="curve"/>
    </contour>
    <contour>
      <point x="110" y="271" type="curve" smooth="yes"/>
      <point x="86" y="271"/>
      <point x="75" y="295"/>
      <point x="75" y="327" type="curve" smooth="yes"/>
      <point x="75" y="359"/>
      <point x="86" y="383"/>
      <point x="110" y="383" type="curve" smooth="yes"/>
      <point x="134" y="383"/>
      <point x="144" y="358"/>
      <point x="144" y="327" type="curve" smooth="yes"/>
      <point x="144" y="295"/>
      <point x="134" y="271"/>
    </contour>
  </outline>
</glyph>
<glyph name="maitaikhu-thai" format="2">
  <unicode hex="0E47"/>
  <anchor x="343" y="551" name="_topright"/>
  <anchor x="329" y="927" name="topright"/>
  <outline>
    <contour>
      <point x="261" y="635" type="curve" smooth="yes"/>
      <point x="317" y="635"/>
      <point x="347" y="683"/>
      <point x="347" y="737" type="curve" smooth="yes"/>
      <point x="347" y="780"/>
      <point x="324" y="814"/>
      <point x="285" y="814" type="curve" smooth="yes"/>
      <point x="249" y="814"/>
      <point x="225" y="789"/>
      <point x="225" y="742" type="curve" smooth="yes"/>
      <point x="225" y="699"/>
      <point x="252" y="674"/>
      <point x="283" y="674" type="curve" smooth="yes"/>
      <point x="292" y="674"/>
      <point x="305" y="680"/>
      <point x="309" y="683" type="curve"/>
      <point x="275" y="698" type="line"/>
      <point x="269" y="693"/>
      <point x="259" y="689"/>
      <point x="250" y="689" type="curve" smooth="yes"/>
      <point x="223" y="689"/>
      <point x="197" y="717"/>
      <point x="197" y="787" type="curve"/>
      <point x="156" y="787" type="line"/>
      <point x="113" y="680" type="line"/>
      <point x="153" y="701" type="line"/>
      <point x="121" y="701"/>
      <point x="113" y="732"/>
      <point x="113" y="773" type="curve" smooth="yes"/>
      <point x="113" y="824"/>
      <point x="136" y="851"/>
      <point x="181" y="851" type="curve" smooth="yes"/>
      <point x="254" y="851"/>
      <point x="293" y="851"/>
      <point x="329" y="869" type="curve"/>
      <point x="315" y="927" type="line"/>
      <point x="278" y="908"/>
      <point x="242" y="908"/>
      <point x="179" y="908" type="curve" smooth="yes"/>
      <point x="104" y="908"/>
      <point x="50" y="867"/>
      <point x="50" y="773" type="curve" smooth="yes"/>
      <point x="50" y="709"/>
      <point x="80" y="662"/>
      <point x="115" y="640" type="curve"/>
      <point x="148" y="640" type="line"/>
      <point x="184" y="725" type="line"/>
      <point x="164" y="725" type="line"/>
      <point x="164" y="681"/>
      <point x="208" y="635"/>
    </contour>
    <contour>
      <point x="284" y="706" type="curve" smooth="yes"/>
      <point x="270" y="706"/>
      <point x="264" y="720"/>
      <point x="264" y="742" type="curve" smooth="yes"/>
      <point x="264" y="764"/>
      <point x="270" y="779"/>
      <point x="284" y="779" type="curve" smooth="yes"/>
      <point x="298" y="779"/>
      <point x="305" y="764"/>
      <point x="305" y="742" type="curve" smooth="yes"/>
      <point x="305" y="720"/>
      <point x="298" y="706"/>
    </contour>
  </outline>
</glyph>
<glyph name="maiEk-thai" format="2">
  <unicode hex="0E48"/>
  <anchor x="126" y="551" name="_topright"/>
  <anchor x="127" y="820" name="topright"/>
  <outline>
    <contour>
      <point x="54" y="640" type="line"/>
      <point x="123" y="640" type="line"/>
      <point x="127" y="746" type="line"/>
      <point x="127" y="820" type="line"/>
      <point x="50" y="820" type="line"/>
      <point x="50" y="746" type="line"/>
    </contour>
  </outline>
</glyph>
<glyph name="maiTho-thai" format="2">
  <unicode hex="0E49"/>
  <anchor x="259" y="551" name="_topright"/>
  <anchor x="349" y="878" name="topright"/>
  <outline>
    <contour>
      <point x="135" y="635" type="curve" smooth="yes"/>
      <point x="278" y="635"/>
      <point x="333" y="740"/>
      <point x="349" y="865" type="curve"/>
      <point x="286" y="877" type="line"/>
      <point x="271" y="777"/>
      <point x="236" y="695"/>
      <point x="144" y="695" type="curve" smooth="yes"/>
      <point x="136" y="695"/>
      <point x="127" y="696"/>
      <point x="118" y="698" type="curve"/>
      <point x="141" y="678" type="line"/>
      <point x="168" y="704"/>
      <point x="190" y="745"/>
      <point x="190" y="791" type="curve" smooth="yes"/>
      <point x="190" y="844"/>
      <point x="165" y="882"/>
      <point x="117" y="882" type="curve" smooth="yes"/>
      <point x="79" y="882"/>
      <point x="50" y="853"/>
      <point x="50" y="803" type="curve" smooth="yes"/>
      <point x="50" y="753"/>
      <point x="76" y="725"/>
      <point x="113" y="725" type="curve" smooth="yes"/>
      <point x="158" y="725"/>
      <point x="178" y="756"/>
      <point x="178" y="803" type="curve"/>
      <point x="160" y="803" type="line"/>
      <point x="160" y="769"/>
      <point x="148" y="745"/>
      <point x="115" y="745" type="curve"/>
      <point x="115" y="742" type="line" smooth="yes"/>
      <point x="115" y="716"/>
      <point x="93" y="690"/>
      <point x="60" y="683" type="curve"/>
      <point x="60" y="640" type="line"/>
      <point x="85" y="637"/>
      <point x="106" y="635"/>
    </contour>
    <contour>
      <point x="118" y="762" type="curve" smooth="yes"/>
      <point x="100" y="762"/>
      <point x="91" y="779"/>
      <point x="91" y="803" type="curve" smooth="yes"/>
      <point x="91" y="827"/>
      <point x="100" y="845"/>
      <point x="118" y="845" type="curve" smooth="yes"/>
      <point x="136" y="845"/>
      <point x="145" y="827"/>
      <point x="145" y="803" type="curve" smooth="yes"/>
      <point x="145" y="779"/>
      <point x="136" y="762"/>
    </contour>
  </outline>
</glyph>
<glyph name="maiTri-thai" format="2">
  <unicode hex="0E4A"/>
  <anchor x="320" y="551" name="_topright"/>
  <anchor x="320" y="887" name="topright"/>
  <outline>
    <contour>
      <point x="113" y="738" type="curve" smooth="yes"/>
      <point x="100" y="738"/>
      <point x="91" y="726"/>
      <point x="91" y="705" type="curve" smooth="yes"/>
      <point x="91" y="684"/>
      <point x="100" y="671"/>
      <point x="113" y="671" type="curve" smooth="yes"/>
      <point x="127" y="671"/>
      <point x="135" y="684"/>
      <point x="135" y="705" type="curve" smooth="yes"/>
      <point x="135" y="726"/>
      <point x="127" y="738"/>
    </contour>
    <contour>
      <point x="419" y="881" type="line"/>
      <point x="419" y="742"/>
      <point x="383" y="638"/>
      <point x="289" y="638" type="curve" smooth="yes"/>
      <point x="274" y="638"/>
      <point x="247" y="639"/>
      <point x="232" y="641" type="curve"/>
      <point x="232" y="666" type="line"/>
      <point x="242" y="693"/>
      <point x="248" y="720"/>
      <point x="248" y="751" type="curve" smooth="yes"/>
      <point x="248" y="777"/>
      <point x="246" y="793"/>
      <point x="238" y="814" type="curve"/>
      <point x="193" y="767" type="line"/>
      <point x="182" y="767" type="line"/>
      <point x="132" y="814" type="line"/>
      <point x="119" y="803"/>
      <point x="113" y="788"/>
      <point x="113" y="769" type="curve" smooth="yes"/>
      <point x="113" y="761"/>
      <point x="114" y="753"/>
      <point x="116" y="745" type="curve"/>
      <point x="77" y="760" type="line"/>
      <point x="90" y="769"/>
      <point x="106" y="773"/>
      <point x="118" y="773" type="curve" smooth="yes"/>
      <point x="148" y="773"/>
      <point x="173" y="745"/>
      <point x="173" y="704" type="curve" smooth="yes"/>
      <point x="173" y="664"/>
      <point x="151" y="635"/>
      <point x="114" y="635" type="curve" smooth="yes"/>
      <point x="73" y="635"/>
      <point x="50" y="671"/>
      <point x="50" y="734" type="curve" smooth="yes"/>
      <point x="50" y="791"/>
      <point x="65" y="850"/>
      <point x="123" y="887" type="curve"/>
      <point x="188" y="824" type="line"/>
      <point x="244" y="887" type="line"/>
      <point x="290" y="862"/>
      <point x="309" y="809"/>
      <point x="309" y="762" type="curve" smooth="yes"/>
      <point x="309" y="723"/>
      <point x="299" y="696"/>
      <point x="288" y="669" type="curve"/>
      <point x="262" y="694" type="line"/>
      <point x="269" y="692"/>
      <point x="277" y="691"/>
      <point x="284" y="691" type="curve" smooth="yes"/>
      <point x="340" y="691"/>
      <point x="351" y="767"/>
      <point x="351" y="883" type="curve"/>
    </contour>
  </outline>
</glyph>
<glyph name="maiChattawa-thai" format="2">
  <unicode hex="0E4B"/>
  <anchor x="256" y="551" name="_topright"/>
  <anchor x="256" y="854" name="topright"/>
  <outline>
    <contour>
      <point x="119" y="854" type="line"/>
      <point x="121" y="746" type="line"/>
      <point x="119" y="640" type="line"/>
      <point x="188" y="640" type="line"/>
      <point x="186" y="746" type="line"/>
      <point x="188" y="854" type="line"/>
    </contour>
    <contour>
      <point x="50" y="777" type="line"/>
      <point x="50" y="713" type="line"/>
      <point x="155" y="716" type="line"/>
      <point x="256" y="713" type="line"/>
      <point x="256" y="778" type="line"/>
      <point x="155" y="775" type="line"/>
    </contour>
  </outline>
</glyph>
<glyph name="thanthakhat-thai" format="2">
  <unicode hex="0E4C"/>
  <anchor x="197" y="551" name="_topright"/>
  <anchor x="261" y="930" name="topright"/>
  <outline>
    <contour>
      <point x="122" y="635" type="curve" smooth="yes"/>
      <point x="162" y="635"/>
      <point x="192" y="666"/>
      <point x="192" y="717" type="curve" smooth="yes"/>
      <point x="192" y="752"/>
      <point x="172" y="800"/>
      <point x="124" y="800" type="curve" smooth="yes"/>
      <point x="112" y="800"/>
      <point x="100" y="797"/>
      <point x="90" y="791" type="curve"/>
      <point x="144" y="780" type="line"/>
      <point x="170" y="809"/>
      <point x="231" y="828"/>
      <point x="261" y="887" type="curve"/>
      <point x="205" y="930" type="line"/>
      <point x="149" y="843"/>
      <point x="50" y="823"/>
      <point x="50" y="724" type="curve" smooth="yes"/>
      <point x="50" y="675"/>
      <point x="77" y="635"/>
    </contour>
    <contour>
      <point x="122" y="676" type="curve" smooth="yes"/>
      <point x="106" y="676"/>
      <point x="97" y="692"/>
      <point x="97" y="717" type="curve" smooth="yes"/>
      <point x="97" y="742"/>
      <point x="106" y="757"/>
      <point x="122" y="757" type="curve" smooth="yes"/>
      <point x="138" y="757"/>
      <point x="147" y="742"/>
      <point x="147" y="717" type="curve" smooth="yes"/>
      <point x="147" y="692"/>
      <point x="138" y="676"/>
    </contour>
  </outline>
</glyph>
<glyph name="yamakkan-thai" format="2">
  <unicode hex="0E4E"/>
  <anchor x="191" y="551" name="_topright"/>
  <anchor x="215" y="938" name="topright"/>
  <outline>
    <contour>
      <point x="139" y="635" type="curve" smooth="yes"/>
      <point x="163" y="635"/>
      <point x="176" y="639"/>
      <point x="191" y="647" type="curve"/>
      <point x="181" y="704" type="line"/>
      <point x="172" y="698"/>
      <point x="163" y="694"/>
      <point x="148" y="694" type="curve" smooth="yes"/>
      <point x="128" y="694"/>
      <point x="115" y="706"/>
      <point x="115" y="729" type="curve" smooth="yes"/>
      <point x="115" y="751"/>
      <point x="128" y="765"/>
      <point x="149" y="765" type="curve" smooth="yes"/>
      <point x="163" y="765"/>
      <point x="177" y="762"/>
      <point x="185" y="759" type="curve"/>
      <point x="185" y="815" type="line"/>
      <point x="159" y="815"/>
      <point x="148" y="827"/>
      <point x="148" y="849" type="curve" smooth="yes"/>
      <point x="148" y="868"/>
      <point x="157" y="877"/>
      <point x="175" y="877" type="curve" smooth="yes"/>
      <point x="185" y="877"/>
      <point x="197" y="874"/>
      <point x="206" y="870" type="curve"/>
      <point x="215" y="925" type="line"/>
      <point x="202" y="932"/>
      <point x="182" y="938"/>
      <point x="159" y="938" type="curve" smooth="yes"/>
      <point x="115" y="938"/>
      <point x="85" y="906"/>
      <point x="85" y="862" type="curve" smooth="yes"/>
      <point x="85" y="819"/>
      <point x="110" y="791"/>
      <point x="147" y="791" type="curve"/>
      <point x="147" y="799" type="line"/>
      <point x="142" y="801"/>
      <point x="135" y="802"/>
      <point x="129" y="802" type="curve" smooth="yes"/>
      <point x="80" y="802"/>
      <point x="50" y="768"/>
      <point x="50" y="720" type="curve" smooth="yes"/>
      <point x="50" y="663"/>
      <point x="92" y="635"/>
    </contour>
  </outline>
</glyph>
<glyph name="fongman-thai" format="2">
  <advance width="416"/>
  <unicode hex="0E4F"/>
  <outline>
    <contour>
      <point x="208" y="30" type="curve" smooth="yes"/>
      <point x="309" y="30"/>
      <point x="375" y="134"/>
      <point x="375" y="261" type="curve" smooth="yes"/>
      <point x="375" y="388"/>
      <point x="309" y="492"/>
      <point x="208" y="492" type="curve" smooth="yes"/>
      <point x="108" y="492"/>
      <point x="41" y="389"/>
      <point x="41" y="261" type="curve" smooth="yes"/>
      <point x="41" y="133"/>
      <point x="108" y="30"/>
    </contour>
    <contour>
      <point x="208" y="68" type="curve" smooth="yes"/>
      <point x="125" y="68"/>
      <point x="73" y="156"/>
      <point x="73" y="261" type="curve" smooth="yes"/>
      <point x="73" y="366"/>
      <point x="125" y="454"/>
      <point x="208" y="454" type="curve" smooth="yes"/>
      <point x="292" y="454"/>
      <point x="344" y="366"/>
      <point x="344" y="261" type="curve" smooth="yes"/>
      <point x="344" y="155"/>
      <point x="291" y="68"/>
    </contour>
    <contour>
      <point x="208" y="134" type="curve" smooth="yes"/>
      <point x="265" y="134"/>
      <point x="297" y="190"/>
      <point x="297" y="261" type="curve" smooth="yes"/>
      <point x="297" y="332"/>
      <point x="265" y="388"/>
      <point x="208" y="388" type="curve" smooth="yes"/>
      <point x="151" y="388"/>
      <point x="119" y="331"/>
      <point x="119" y="261" type="curve" smooth="yes"/>
      <point x="119" y="191"/>
      <point x="151" y="134"/>
    </contour>
  </outline>
</glyph>
<glyph name="zero-thai" format="2">
  <advance width="456"/>
  <unicode hex="0E50"/>
  <outline>
    <contour>
      <point x="228" y="-10" type="curve" smooth="yes"/>
      <point x="360" y="-10"/>
      <point x="420" y="97"/>
      <point x="420" y="255" type="curve" smooth="yes"/>
      <point x="420" y="413"/>
      <point x="360" y="521"/>
      <point x="228" y="521" type="curve" smooth="yes"/>
      <point x="96" y="521"/>
      <point x="36" y="413"/>
      <point x="36" y="255" type="curve" smooth="yes"/>
      <point x="36" y="97"/>
      <point x="96" y="-10"/>
    </contour>
    <contour>
      <point x="228" y="59" type="curve" smooth="yes"/>
      <point x="142" y="59"/>
      <point x="110" y="140"/>
      <point x="110" y="255" type="curve" smooth="yes"/>
      <point x="110" y="370"/>
      <point x="142" y="452"/>
      <point x="228" y="452" type="curve" smooth="yes"/>
      <point x="314" y="452"/>
      <point x="346" y="370"/>
      <point x="346" y="255" type="curve" smooth="yes"/>
      <point x="346" y="140"/>
      <point x="314" y="59"/>
    </contour>
  </outline>
</glyph>
<glyph name="one-thai" format="2">
  <advance width="438"/>
  <unicode hex="0E51"/>
  <outline>
    <contour>
      <point x="193" y="-108" type="line"/>
      <point x="338" y="-43"/>
      <point x="410" y="92"/>
      <point x="410" y="258" type="curve" smooth="yes"/>
      <point x="410" y="412"/>
      <point x="350" y="521"/>
      <point x="216" y="521" type="curve" smooth="yes"/>
      <point x="97" y="521"/>
      <point x="30" y="427"/>
      <point x="30" y="288" type="curve" smooth="yes"/>
      <point x="30" y="156"/>
      <point x="100" y="84"/>
      <point x="184" y="84" type="curve" smooth="yes"/>
      <point x="235" y="84"/>
      <point x="272" y="122"/>
      <point x="272" y="183" type="curve" smooth="yes"/>
      <point x="272" y="244"/>
      <point x="240" y="283"/>
      <point x="194" y="283" type="curve" smooth="yes"/>
      <point x="149" y="283"/>
      <point x="116" y="244"/>
      <point x="116" y="183" type="curve" smooth="yes"/>
      <point x="116" y="169"/>
      <point x="118" y="156"/>
      <point x="123" y="143" type="curve"/>
      <point x="132" y="179" type="line"/>
      <point x="115" y="188"/>
      <point x="104" y="228"/>
      <point x="104" y="288" type="curve" smooth="yes"/>
      <point x="104" y="388"/>
      <point x="138" y="452"/>
      <point x="216" y="452" type="curve" smooth="yes"/>
      <point x="305" y="452"/>
      <point x="336" y="368"/>
      <point x="336" y="255" type="curve" smooth="yes"/>
      <point x="336" y="113"/>
      <point x="275" y="8"/>
      <point x="160" y="-38" type="curve"/>
    </contour>
    <contour>
      <point x="194" y="127" type="curve" smooth="yes"/>
      <point x="172" y="127"/>
      <point x="159" y="152"/>
      <point x="159" y="183" type="curve" smooth="yes"/>
      <point x="159" y="216"/>
      <point x="172" y="240"/>
      <point x="194" y="240" type="curve" smooth="yes"/>
      <point x="216" y="240"/>
      <point x="228" y="215"/>
      <point x="228" y="183" type="curve" smooth="yes"/>
      <point x="228" y="152"/>
      <point x="216" y="127"/>
    </contour>
  </outline>
</glyph>
<glyph name="two-thai" format="2">
  <advance width="572"/>
  <unicode hex="0E52"/>
  <outline>
    <contour>
      <point x="62" y="0" type="line"/>
      <point x="403" y="0" type="line" smooth="yes"/>
      <point x="467" y="0"/>
      <point x="517" y="47"/>
      <point x="517" y="131" type="curve" smooth="yes"/>
      <point x="517" y="381" type="line" smooth="yes"/>
      <point x="517" y="460"/>
      <point x="479" y="505"/>
      <point x="417" y="521" type="curve"/>
      <point x="350" y="449" type="line"/>
      <point x="268" y="521" type="line"/>
      <point x="211" y="485"/>
      <point x="176" y="441"/>
      <point x="176" y="331" type="curve" smooth="yes"/>
      <point x="176" y="227"/>
      <point x="212" y="165"/>
      <point x="272" y="165" type="curve" smooth="yes"/>
      <point x="322" y="165"/>
      <point x="350" y="211"/>
      <point x="350" y="264" type="curve" smooth="yes"/>
      <point x="350" y="322"/>
      <point x="321" y="363"/>
      <point x="276" y="363" type="curve" smooth="yes"/>
      <point x="243" y="363"/>
      <point x="197" y="337"/>
      <point x="197" y="264" type="curve"/>
      <point x="251" y="331" type="line"/>
      <point x="250" y="340"/>
      <point x="249" y="349"/>
      <point x="249" y="357" type="curve" smooth="yes"/>
      <point x="249" y="402"/>
      <point x="257" y="423"/>
      <point x="276" y="442" type="curve"/>
      <point x="347" y="379" type="line"/>
      <point x="351" y="379" type="line"/>
      <point x="418" y="443" type="line"/>
      <point x="440" y="430"/>
      <point x="443" y="412"/>
      <point x="443" y="377" type="curve" smooth="yes"/>
      <point x="443" y="145" type="line" smooth="yes"/>
      <point x="443" y="95"/>
      <point x="422" y="69"/>
      <point x="383" y="69" type="curve" smooth="yes"/>
      <point x="136" y="69" type="line"/>
      <point x="136" y="443" type="line" smooth="yes"/>
      <point x="136" y="518"/>
      <point x="131" y="562"/>
      <point x="115" y="625" type="curve"/>
      <point x="40" y="606" type="line"/>
      <point x="56" y="550"/>
      <point x="62" y="498"/>
      <point x="62" y="433" type="curve" smooth="yes"/>
    </contour>
    <contour>
      <point x="272" y="208" type="curve" smooth="yes"/>
      <point x="250" y="208"/>
      <point x="237" y="233"/>
      <point x="237" y="264" type="curve" smooth="yes"/>
      <point x="237" y="297"/>
      <point x="250" y="320"/>
      <point x="272" y="320" type="curve" smooth="yes"/>
      <point x="294" y="320"/>
      <point x="306" y="296"/>
      <point x="306" y="264" type="curve" smooth="yes"/>
      <point x="306" y="233"/>
      <point x="294" y="208"/>
    </contour>
  </outline>
</glyph>
<glyph name="three-thai" format="2">
  <advance width="588"/>
  <unicode hex="0E53"/>
  <outline>
    <contour>
      <point x="138" y="-7" type="curve" smooth="yes"/>
      <point x="189" y="-7"/>
      <point x="218" y="31"/>
      <point x="218" y="93" type="curve" smooth="yes"/>
      <point x="218" y="153"/>
      <point x="187" y="190"/>
      <point x="138" y="190" type="curve" smooth="yes"/>
      <point x="86" y="190"/>
      <point x="69" y="144"/>
      <point x="69" y="93" type="curve"/>
      <point x="83" y="93" type="line"/>
      <point x="83" y="134"/>
      <point x="91" y="173"/>
      <point x="129" y="173" type="curve"/>
      <point x="129" y="356" type="line" smooth="yes"/>
      <point x="129" y="414"/>
      <point x="143" y="452"/>
      <point x="195" y="452" type="curve" smooth="yes"/>
      <point x="242" y="452"/>
      <point x="267" y="412"/>
      <point x="267" y="344" type="curve" smooth="yes"/>
      <point x="267" y="0" type="line"/>
      <point x="340" y="0" type="line"/>
      <point x="340" y="344" type="line" smooth="yes"/>
      <point x="340" y="412"/>
      <point x="359" y="452"/>
      <point x="400" y="452" type="curve" smooth="yes"/>
      <point x="446" y="452"/>
      <point x="456" y="414"/>
      <point x="456" y="356" type="curve" smooth="yes"/>
      <point x="456" y="0" type="line"/>
      <point x="530" y="0" type="line"/>
      <point x="530" y="361" type="line" smooth="yes"/>
      <point x="530" y="470"/>
      <point x="481" y="521"/>
      <point x="407" y="521" type="curve" smooth="yes"/>
      <point x="345" y="521"/>
      <point x="301" y="472"/>
      <point x="295" y="409" type="curve"/>
      <point x="312" y="409" type="line"/>
      <point x="304" y="472"/>
      <point x="257" y="521"/>
      <point x="188" y="521" type="curve" smooth="yes"/>
      <point x="113" y="521"/>
      <point x="55" y="470"/>
      <point x="55" y="361" type="curve" smooth="yes"/>
      <point x="55" y="103" type="line" smooth="yes"/>
      <point x="55" y="33"/>
      <point x="86" y="-7"/>
    </contour>
    <contour>
      <point x="138" y="38" type="curve" smooth="yes"/>
      <point x="114" y="38"/>
      <point x="103" y="61"/>
      <point x="103" y="93" type="curve" smooth="yes"/>
      <point x="103" y="125"/>
      <point x="114" y="147"/>
      <point x="138" y="147" type="curve" smooth="yes"/>
      <point x="162" y="147"/>
      <point x="172" y="124"/>
      <point x="172" y="93" type="curve" smooth="yes"/>
      <point x="172" y="61"/>
      <point x="162" y="38"/>
    </contour>
    <contour>
      <point x="296" y="448" type="line"/>
      <point x="296" y="437" type="line"/>
      <point x="311" y="437" type="line"/>
      <point x="311" y="448" type="line"/>
    </contour>
  </outline>
</glyph>
<glyph name="four-thai" format="2">
  <advance width="503"/>
  <unicode hex="0E54"/>
  <outline>
    <contour>
      <point x="221" y="0" type="curve" smooth="yes"/>
      <point x="471" y="0" type="line"/>
      <point x="471" y="60" type="line"/>
      <point x="402" y="64" type="line" smooth="yes"/>
      <point x="347" y="67"/>
      <point x="317" y="120"/>
      <point x="317" y="177" type="curve" smooth="yes"/>
      <point x="317" y="182" type="line"/>
      <point x="296" y="182"/>
      <point x="281" y="218"/>
      <point x="281" y="256" type="curve"/>
      <point x="266" y="256" type="line"/>
      <point x="266" y="201"/>
      <point x="292" y="157"/>
      <point x="336" y="157" type="curve" smooth="yes"/>
      <point x="383" y="157"/>
      <point x="413" y="197"/>
      <point x="413" y="255" type="curve" smooth="yes"/>
      <point x="413" y="314"/>
      <point x="382" y="355"/>
      <point x="334" y="355" type="curve" smooth="yes"/>
      <point x="271" y="355"/>
      <point x="243" y="289"/>
      <point x="243" y="220" type="curve" smooth="yes"/>
      <point x="243" y="148"/>
      <point x="266" y="86"/>
      <point x="303" y="48" type="curve"/>
      <point x="303" y="69" type="line"/>
      <point x="216" y="69" type="line" smooth="yes"/>
      <point x="142" y="69"/>
      <point x="110" y="131"/>
      <point x="110" y="263" type="curve" smooth="yes"/>
      <point x="110" y="392"/>
      <point x="150" y="442"/>
      <point x="232" y="442" type="curve" smooth="yes"/>
      <point x="344" y="442" type="line" smooth="yes"/>
      <point x="428" y="442"/>
      <point x="472" y="500"/>
      <point x="482" y="604" type="curve"/>
      <point x="403" y="625" type="line"/>
      <point x="397" y="556"/>
      <point x="386" y="511"/>
      <point x="329" y="511" type="curve" smooth="yes"/>
      <point x="227" y="511" type="line" smooth="yes"/>
      <point x="115" y="511"/>
      <point x="36" y="437"/>
      <point x="36" y="263" type="curve" smooth="yes"/>
      <point x="36" y="106"/>
      <point x="93" y="0"/>
    </contour>
    <contour>
      <point x="335" y="200" type="curve" smooth="yes"/>
      <point x="312" y="200"/>
      <point x="301" y="225"/>
      <point x="301" y="256" type="curve" smooth="yes"/>
      <point x="301" y="289"/>
      <point x="312" y="312"/>
      <point x="335" y="312" type="curve" smooth="yes"/>
      <point x="358" y="312"/>
      <point x="368" y="288"/>
      <point x="368" y="256" type="curve" smooth="yes"/>
      <point x="368" y="225"/>
      <point x="358" y="200"/>
    </contour>
  </outline>
</glyph>
<glyph name="five-thai" format="2">
  <advance width="503"/>
  <unicode hex="0E55"/>
  <outline>
    <contour>
      <point x="221" y="0" type="curve" smooth="yes"/>
      <point x="471" y="0" type="line"/>
      <point x="471" y="60" type="line"/>
      <point x="402" y="64" type="line" smooth="yes"/>
      <point x="347" y="67"/>
      <point x="317" y="120"/>
      <point x="317" y="177" type="curve" smooth="yes"/>
      <point x="317" y="182" type="line"/>
      <point x="296" y="182"/>
      <point x="281" y="218"/>
      <point x="281" y="256" type="curve"/>
      <point x="266" y="256" type="line"/>
      <point x="266" y="201"/>
      <point x="292" y="157"/>
      <point x="336" y="157" type="curve" smooth="yes"/>
      <point x="383" y="157"/>
      <point x="413" y="197"/>
      <point x="413" y="255" type="curve" smooth="yes"/>
      <point x="413" y="314"/>
      <point x="382" y="355"/>
      <point x="334" y="355" type="curve" smooth="yes"/>
      <point x="271" y="355"/>
      <point x="243" y="289"/>
      <point x="243" y="220" type="curve" smooth="yes"/>
      <point x="243" y="148"/>
      <point x="266" y="86"/>
      <point x="303" y="48" type="curve"/>
      <point x="303" y="69" type="line"/>
      <point x="216" y="69" type="line" smooth="yes"/>
      <point x="142" y="69"/>
      <point x="110" y="131"/>
      <point x="110" y="263" type="curve" smooth="yes"/>
      <point x="110" y="392"/>
      <point x="150" y="442"/>
      <point x="232" y="442" type="curve" smooth="yes"/>
      <point x="340" y="442" type="line" smooth="yes"/>
      <point x="427" y="442"/>
      <point x="474" y="500"/>
      <point x="482" y="604" type="curve"/>
      <point x="403" y="625" type="line"/>
      <point x="398" y="564"/>
      <point x="389" y="508"/>
      <point x="329" y="508" type="curve" smooth="yes"/>
      <point x="294" y="508" type="line"/>
      <point x="319" y="488" type="line"/>
      <point x="329" y="503"/>
      <point x="332" y="523"/>
      <point x="332" y="542" type="curve" smooth="yes"/>
      <point x="332" y="601"/>
      <point x="299" y="645"/>
      <point x="247" y="645" type="curve" smooth="yes"/>
      <point x="194" y="645"/>
      <point x="160" y="601"/>
      <point x="160" y="542" type="curve" smooth="yes"/>
      <point x="160" y="521"/>
      <point x="165" y="501"/>
      <point x="175" y="480" type="curve"/>
      <point x="185" y="506" type="line"/>
      <point x="92" y="490"/>
      <point x="36" y="412"/>
      <point x="36" y="263" type="curve" smooth="yes"/>
      <point x="36" y="106"/>
      <point x="93" y="0"/>
    </contour>
    <contour>
      <point x="335" y="200" type="curve" smooth="yes"/>
      <point x="312" y="200"/>
      <point x="301" y="225"/>
      <point x="301" y="256" type="curve" smooth="yes"/>
      <point x="301" y="289"/>
      <point x="312" y="312"/>
      <point x="335" y="312" type="curve" smooth="yes"/>
      <point x="358" y="312"/>
      <point x="368" y="288"/>
      <point x="368" y="256" type="curve" smooth="yes"/>
      <point x="368" y="225"/>
      <point x="358" y="200"/>
    </contour>
    <contour>
      <point x="246" y="495" type="curve" smooth="yes"/>
      <point x="239" y="495"/>
      <point x="233" y="496"/>
      <point x="223" y="498" type="curve"/>
      <point x="218" y="508"/>
      <point x="214" y="524"/>
      <point x="214" y="541" type="curve" smooth="yes"/>
      <point x="214" y="571"/>
      <point x="222" y="593"/>
      <point x="247" y="593" type="curve" smooth="yes"/>
      <point x="270" y="593"/>
      <point x="278" y="570"/>
      <point x="278" y="542" type="curve" smooth="yes"/>
      <point x="278" y="518"/>
      <point x="272" y="495"/>
    </contour>
  </outline>
</glyph>
<glyph name="six-thai" format="2">
  <advance width="458"/>
  <unicode hex="0E56"/>
  <outline>
    <contour>
      <point x="239" y="-10" type="curve" smooth="yes"/>
      <point x="366" y="-10"/>
      <point x="422" y="100"/>
      <point x="422" y="261" type="curve" smooth="yes"/>
      <point x="422" y="417"/>
      <point x="368" y="521"/>
      <point x="248" y="521" type="curve" smooth="yes"/>
      <point x="179" y="521"/>
      <point x="127" y="479"/>
      <point x="112" y="421" type="curve"/>
      <point x="127" y="421" type="line"/>
      <point x="128" y="430"/>
      <point x="129" y="440"/>
      <point x="129" y="450" type="curve" smooth="yes"/>
      <point x="129" y="506"/>
      <point x="113" y="584"/>
      <point x="91" y="625" type="curve"/>
      <point x="17" y="594" type="line"/>
      <point x="50" y="531"/>
      <point x="76" y="443"/>
      <point x="82" y="357" type="curve"/>
      <point x="133" y="357" type="line"/>
      <point x="153" y="413"/>
      <point x="188" y="452"/>
      <point x="244" y="452" type="curve" smooth="yes"/>
      <point x="308" y="452"/>
      <point x="348" y="399"/>
      <point x="348" y="264" type="curve" smooth="yes"/>
      <point x="348" y="134"/>
      <point x="312" y="59"/>
      <point x="237" y="59" type="curve" smooth="yes"/>
      <point x="213" y="59"/>
      <point x="189" y="71"/>
      <point x="172" y="84" type="curve"/>
      <point x="146" y="48" type="line"/>
      <point x="152" y="46"/>
      <point x="157" y="45"/>
      <point x="166" y="45" type="curve" smooth="yes"/>
      <point x="212" y="45"/>
      <point x="244" y="86"/>
      <point x="244" y="143" type="curve" smooth="yes"/>
      <point x="244" y="200"/>
      <point x="214" y="242"/>
      <point x="164" y="242" type="curve" smooth="yes"/>
      <point x="110" y="242"/>
      <point x="81" y="199"/>
      <point x="81" y="139" type="curve" smooth="yes"/>
      <point x="81" y="48"/>
      <point x="144" y="-10"/>
    </contour>
    <contour>
      <point x="165" y="86" type="curve" smooth="yes"/>
      <point x="141" y="86"/>
      <point x="130" y="111"/>
      <point x="130" y="143" type="curve" smooth="yes"/>
      <point x="130" y="175"/>
      <point x="141" y="199"/>
      <point x="165" y="199" type="curve" smooth="yes"/>
      <point x="189" y="199"/>
      <point x="199" y="174"/>
      <point x="199" y="143" type="curve" smooth="yes"/>
      <point x="199" y="111"/>
      <point x="189" y="86"/>
    </contour>
    <contour>
      <point x="122" y="465" type="line"/>
      <point x="122" y="455" type="line"/>
      <point x="139" y="452" type="line"/>
      <point x="139" y="462" type="line"/>
    </contour>
  </outline>
</glyph>
<glyph name="seven-thai" format="2">
  <advance width="676"/>
  <unicode hex="0E57"/>
  <outline>
    <contour>
      <point x="138" y="-7" type="curve" smooth="yes"/>
      <point x="189" y="-7"/>
      <point x="218" y="31"/>
      <point x="218" y="93" type="curve" smooth="yes"/>
      <point x="218" y="153"/>
      <point x="187" y="190"/>
      <point x="138" y="190" type="curve" smooth="yes"/>
      <point x="86" y="190"/>
      <point x="69" y="144"/>
      <point x="69" y="93" type="curve"/>
      <point x="83" y="93" type="line"/>
      <point x="83" y="134"/>
      <point x="91" y="173"/>
      <point x="129" y="173" type="curve"/>
      <point x="129" y="349" type="line" smooth="yes"/>
      <point x="129" y="406"/>
      <point x="137" y="450"/>
      <point x="179" y="450" type="curve" smooth="yes"/>
      <point x="226" y="450"/>
      <point x="232" y="400"/>
      <point x="232" y="344" type="curve" smooth="yes"/>
      <point x="232" y="204" type="line"/>
      <point x="303" y="204" type="line"/>
      <point x="303" y="344" type="line" smooth="yes"/>
      <point x="303" y="399"/>
      <point x="308" y="450"/>
      <point x="351" y="450" type="curve" smooth="yes"/>
      <point x="393" y="450"/>
      <point x="395" y="405"/>
      <point x="395" y="351" type="curve" smooth="yes"/>
      <point x="395" y="0" type="line"/>
      <point x="516" y="0" type="line" smooth="yes"/>
      <point x="587" y="0"/>
      <point x="614" y="47"/>
      <point x="614" y="121" type="curve" smooth="yes"/>
      <point x="614" y="443" type="line" smooth="yes"/>
      <point x="614" y="508"/>
      <point x="620" y="549"/>
      <point x="636" y="605" type="curve"/>
      <point x="563" y="625" type="line"/>
      <point x="545" y="562"/>
      <point x="540" y="518"/>
      <point x="540" y="443" type="curve" smooth="yes"/>
      <point x="540" y="129" type="line" smooth="yes"/>
      <point x="540" y="85"/>
      <point x="529" y="71"/>
      <point x="502" y="71" type="curve" smooth="yes"/>
      <point x="469" y="71" type="line"/>
      <point x="469" y="356" type="line" smooth="yes"/>
      <point x="469" y="465"/>
      <point x="431" y="521"/>
      <point x="362" y="521" type="curve" smooth="yes"/>
      <point x="300" y="521"/>
      <point x="265" y="472"/>
      <point x="262" y="419" type="curve"/>
      <point x="273" y="419" type="line"/>
      <point x="266" y="472"/>
      <point x="236" y="521"/>
      <point x="168" y="521" type="curve" smooth="yes"/>
      <point x="96" y="521"/>
      <point x="55" y="463"/>
      <point x="55" y="354" type="curve" smooth="yes"/>
      <point x="55" y="103" type="line" smooth="yes"/>
      <point x="55" y="33"/>
      <point x="86" y="-7"/>
    </contour>
    <contour>
      <point x="138" y="38" type="curve" smooth="yes"/>
      <point x="114" y="38"/>
      <point x="103" y="61"/>
      <point x="103" y="93" type="curve" smooth="yes"/>
      <point x="103" y="125"/>
      <point x="114" y="148"/>
      <point x="138" y="148" type="curve" smooth="yes"/>
      <point x="162" y="148"/>
      <point x="172" y="124"/>
      <point x="172" y="93" type="curve" smooth="yes"/>
      <point x="172" y="61"/>
      <point x="162" y="38"/>
    </contour>
    <contour>
      <point x="259" y="452" type="line"/>
      <point x="259" y="441" type="line"/>
      <point x="274" y="441" type="line"/>
      <point x="274" y="452" type="line"/>
    </contour>
  </outline>
</glyph>
